%TF.GenerationSoftware,KiCad,Pcbnew,9.0.6*%
%TF.CreationDate,2025-11-15T15:38:20+00:00*%
%TF.ProjectId,guitarwire,67756974-6172-4776-9972-652e6b696361,rev?*%
%TF.SameCoordinates,Original*%
%TF.FileFunction,Legend,Top*%
%TF.FilePolarity,Positive*%
%FSLAX46Y46*%
G04 Gerber Fmt 4.6, Leading zero omitted, Abs format (unit mm)*
G04 Created by KiCad (PCBNEW 9.0.6) date 2025-11-15 15:38:20*
%MOMM*%
%LPD*%
G01*
G04 APERTURE LIST*
%ADD10C,0.100000*%
%ADD11C,0.175000*%
%ADD12C,0.120000*%
G04 APERTURE END LIST*
D10*
X74500000Y-82852464D02*
X77840000Y-82852464D01*
X77840000Y-84999964D01*
X74500000Y-84999964D01*
X74500000Y-82852464D01*
X77430000Y-32249964D02*
X82250000Y-32249964D01*
X82250000Y-38373700D01*
X77430000Y-38373700D01*
X77430000Y-32249964D01*
X83500000Y-31999964D02*
X88820000Y-31999964D01*
X88820000Y-38453700D01*
X83500000Y-38453700D01*
X83500000Y-31999964D01*
X83570000Y-33499964D02*
X88820000Y-33499964D01*
X89700000Y-80899964D02*
X95000000Y-80899964D01*
X95000000Y-86999964D01*
X89700000Y-86999964D01*
X89700000Y-80899964D01*
X77430000Y-35311832D02*
X82250000Y-35311832D01*
X89750000Y-85499964D02*
X95000000Y-85499964D01*
X89750000Y-82499964D02*
X95000000Y-82499964D01*
X71500000Y-82852464D02*
X74500000Y-82852464D01*
X74500000Y-84999964D01*
X71500000Y-84999964D01*
X71500000Y-82852464D01*
X83570000Y-35249964D02*
X88820000Y-35249964D01*
X71000000Y-60249964D02*
X76250000Y-60249964D01*
X76250000Y-65429964D01*
X71000000Y-65429964D01*
X71000000Y-60249964D01*
X83570000Y-36749964D02*
X88820000Y-36749964D01*
X71000000Y-61999964D02*
X76250000Y-61999964D01*
X77430000Y-33749964D02*
X82180000Y-33749964D01*
X71000000Y-63749964D02*
X76250000Y-63749964D01*
X77430000Y-36749964D02*
X82180000Y-36749964D01*
X89700000Y-83999964D02*
X95000000Y-83999964D01*
D11*
X90572273Y-83223911D02*
X90686559Y-83262006D01*
X90686559Y-83262006D02*
X90724654Y-83300102D01*
X90724654Y-83300102D02*
X90762750Y-83376292D01*
X90762750Y-83376292D02*
X90762750Y-83490578D01*
X90762750Y-83490578D02*
X90724654Y-83566768D01*
X90724654Y-83566768D02*
X90686559Y-83604864D01*
X90686559Y-83604864D02*
X90610369Y-83642959D01*
X90610369Y-83642959D02*
X90305607Y-83642959D01*
X90305607Y-83642959D02*
X90305607Y-82842959D01*
X90305607Y-82842959D02*
X90572273Y-82842959D01*
X90572273Y-82842959D02*
X90648464Y-82881054D01*
X90648464Y-82881054D02*
X90686559Y-82919149D01*
X90686559Y-82919149D02*
X90724654Y-82995340D01*
X90724654Y-82995340D02*
X90724654Y-83071530D01*
X90724654Y-83071530D02*
X90686559Y-83147721D01*
X90686559Y-83147721D02*
X90648464Y-83185816D01*
X90648464Y-83185816D02*
X90572273Y-83223911D01*
X90572273Y-83223911D02*
X90305607Y-83223911D01*
X90915131Y-83719149D02*
X91524654Y-83719149D01*
X92172274Y-83642959D02*
X91905607Y-83262006D01*
X91715131Y-83642959D02*
X91715131Y-82842959D01*
X91715131Y-82842959D02*
X92019893Y-82842959D01*
X92019893Y-82842959D02*
X92096083Y-82881054D01*
X92096083Y-82881054D02*
X92134178Y-82919149D01*
X92134178Y-82919149D02*
X92172274Y-82995340D01*
X92172274Y-82995340D02*
X92172274Y-83109625D01*
X92172274Y-83109625D02*
X92134178Y-83185816D01*
X92134178Y-83185816D02*
X92096083Y-83223911D01*
X92096083Y-83223911D02*
X92019893Y-83262006D01*
X92019893Y-83262006D02*
X91715131Y-83262006D01*
X92515131Y-83223911D02*
X92781797Y-83223911D01*
X92896083Y-83642959D02*
X92515131Y-83642959D01*
X92515131Y-83642959D02*
X92515131Y-82842959D01*
X92515131Y-82842959D02*
X92896083Y-82842959D01*
X93238941Y-83642959D02*
X93238941Y-82842959D01*
X93238941Y-82842959D02*
X93429417Y-82842959D01*
X93429417Y-82842959D02*
X93543703Y-82881054D01*
X93543703Y-82881054D02*
X93619893Y-82957244D01*
X93619893Y-82957244D02*
X93657988Y-83033435D01*
X93657988Y-83033435D02*
X93696084Y-83185816D01*
X93696084Y-83185816D02*
X93696084Y-83300102D01*
X93696084Y-83300102D02*
X93657988Y-83452483D01*
X93657988Y-83452483D02*
X93619893Y-83528673D01*
X93619893Y-83528673D02*
X93543703Y-83604864D01*
X93543703Y-83604864D02*
X93429417Y-83642959D01*
X93429417Y-83642959D02*
X93238941Y-83642959D01*
X91805607Y-37892959D02*
X91805607Y-37092959D01*
X91805607Y-37092959D02*
X92262750Y-37892959D01*
X92262750Y-37892959D02*
X92262750Y-37092959D01*
X92643702Y-37473911D02*
X92910368Y-37473911D01*
X93024654Y-37892959D02*
X92643702Y-37892959D01*
X92643702Y-37892959D02*
X92643702Y-37092959D01*
X92643702Y-37092959D02*
X93024654Y-37092959D01*
X93824655Y-37816768D02*
X93786559Y-37854864D01*
X93786559Y-37854864D02*
X93672274Y-37892959D01*
X93672274Y-37892959D02*
X93596083Y-37892959D01*
X93596083Y-37892959D02*
X93481797Y-37854864D01*
X93481797Y-37854864D02*
X93405607Y-37778673D01*
X93405607Y-37778673D02*
X93367512Y-37702483D01*
X93367512Y-37702483D02*
X93329416Y-37550102D01*
X93329416Y-37550102D02*
X93329416Y-37435816D01*
X93329416Y-37435816D02*
X93367512Y-37283435D01*
X93367512Y-37283435D02*
X93405607Y-37207244D01*
X93405607Y-37207244D02*
X93481797Y-37131054D01*
X93481797Y-37131054D02*
X93596083Y-37092959D01*
X93596083Y-37092959D02*
X93672274Y-37092959D01*
X93672274Y-37092959D02*
X93786559Y-37131054D01*
X93786559Y-37131054D02*
X93824655Y-37169149D01*
X94167512Y-37892959D02*
X94167512Y-37092959D01*
X94624655Y-37892959D02*
X94281797Y-37435816D01*
X94624655Y-37092959D02*
X94167512Y-37550102D01*
X71441321Y-62342959D02*
X71707988Y-63142959D01*
X71707988Y-63142959D02*
X71974654Y-62342959D01*
X72393702Y-62342959D02*
X72546083Y-62342959D01*
X72546083Y-62342959D02*
X72622273Y-62381054D01*
X72622273Y-62381054D02*
X72698464Y-62457244D01*
X72698464Y-62457244D02*
X72736559Y-62609625D01*
X72736559Y-62609625D02*
X72736559Y-62876292D01*
X72736559Y-62876292D02*
X72698464Y-63028673D01*
X72698464Y-63028673D02*
X72622273Y-63104864D01*
X72622273Y-63104864D02*
X72546083Y-63142959D01*
X72546083Y-63142959D02*
X72393702Y-63142959D01*
X72393702Y-63142959D02*
X72317511Y-63104864D01*
X72317511Y-63104864D02*
X72241321Y-63028673D01*
X72241321Y-63028673D02*
X72203225Y-62876292D01*
X72203225Y-62876292D02*
X72203225Y-62609625D01*
X72203225Y-62609625D02*
X72241321Y-62457244D01*
X72241321Y-62457244D02*
X72317511Y-62381054D01*
X72317511Y-62381054D02*
X72393702Y-62342959D01*
X73460368Y-63142959D02*
X73079416Y-63142959D01*
X73079416Y-63142959D02*
X73079416Y-62342959D01*
X77985607Y-33392959D02*
X77985607Y-32592959D01*
X77985607Y-32592959D02*
X78442750Y-33392959D01*
X78442750Y-33392959D02*
X78442750Y-32592959D01*
X78823702Y-32973911D02*
X79090368Y-32973911D01*
X79204654Y-33392959D02*
X78823702Y-33392959D01*
X78823702Y-33392959D02*
X78823702Y-32592959D01*
X78823702Y-32592959D02*
X79204654Y-32592959D01*
X80004655Y-33316768D02*
X79966559Y-33354864D01*
X79966559Y-33354864D02*
X79852274Y-33392959D01*
X79852274Y-33392959D02*
X79776083Y-33392959D01*
X79776083Y-33392959D02*
X79661797Y-33354864D01*
X79661797Y-33354864D02*
X79585607Y-33278673D01*
X79585607Y-33278673D02*
X79547512Y-33202483D01*
X79547512Y-33202483D02*
X79509416Y-33050102D01*
X79509416Y-33050102D02*
X79509416Y-32935816D01*
X79509416Y-32935816D02*
X79547512Y-32783435D01*
X79547512Y-32783435D02*
X79585607Y-32707244D01*
X79585607Y-32707244D02*
X79661797Y-32631054D01*
X79661797Y-32631054D02*
X79776083Y-32592959D01*
X79776083Y-32592959D02*
X79852274Y-32592959D01*
X79852274Y-32592959D02*
X79966559Y-32631054D01*
X79966559Y-32631054D02*
X80004655Y-32669149D01*
X80347512Y-33392959D02*
X80347512Y-32592959D01*
X80804655Y-33392959D02*
X80461797Y-32935816D01*
X80804655Y-32592959D02*
X80347512Y-33050102D01*
X71267511Y-37854864D02*
X71381797Y-37892959D01*
X71381797Y-37892959D02*
X71572273Y-37892959D01*
X71572273Y-37892959D02*
X71648464Y-37854864D01*
X71648464Y-37854864D02*
X71686559Y-37816768D01*
X71686559Y-37816768D02*
X71724654Y-37740578D01*
X71724654Y-37740578D02*
X71724654Y-37664387D01*
X71724654Y-37664387D02*
X71686559Y-37588197D01*
X71686559Y-37588197D02*
X71648464Y-37550102D01*
X71648464Y-37550102D02*
X71572273Y-37512006D01*
X71572273Y-37512006D02*
X71419892Y-37473911D01*
X71419892Y-37473911D02*
X71343702Y-37435816D01*
X71343702Y-37435816D02*
X71305607Y-37397721D01*
X71305607Y-37397721D02*
X71267511Y-37321530D01*
X71267511Y-37321530D02*
X71267511Y-37245340D01*
X71267511Y-37245340D02*
X71305607Y-37169149D01*
X71305607Y-37169149D02*
X71343702Y-37131054D01*
X71343702Y-37131054D02*
X71419892Y-37092959D01*
X71419892Y-37092959D02*
X71610369Y-37092959D01*
X71610369Y-37092959D02*
X71724654Y-37131054D01*
X71991321Y-37092959D02*
X72181797Y-37892959D01*
X72181797Y-37892959D02*
X72334178Y-37321530D01*
X72334178Y-37321530D02*
X72486559Y-37892959D01*
X72486559Y-37892959D02*
X72677036Y-37092959D01*
X72981798Y-37892959D02*
X72981798Y-37092959D01*
X73248464Y-37092959D02*
X73705607Y-37092959D01*
X73477035Y-37892959D02*
X73477035Y-37092959D01*
X74429417Y-37816768D02*
X74391321Y-37854864D01*
X74391321Y-37854864D02*
X74277036Y-37892959D01*
X74277036Y-37892959D02*
X74200845Y-37892959D01*
X74200845Y-37892959D02*
X74086559Y-37854864D01*
X74086559Y-37854864D02*
X74010369Y-37778673D01*
X74010369Y-37778673D02*
X73972274Y-37702483D01*
X73972274Y-37702483D02*
X73934178Y-37550102D01*
X73934178Y-37550102D02*
X73934178Y-37435816D01*
X73934178Y-37435816D02*
X73972274Y-37283435D01*
X73972274Y-37283435D02*
X74010369Y-37207244D01*
X74010369Y-37207244D02*
X74086559Y-37131054D01*
X74086559Y-37131054D02*
X74200845Y-37092959D01*
X74200845Y-37092959D02*
X74277036Y-37092959D01*
X74277036Y-37092959D02*
X74391321Y-37131054D01*
X74391321Y-37131054D02*
X74429417Y-37169149D01*
X74772274Y-37892959D02*
X74772274Y-37092959D01*
X74772274Y-37473911D02*
X75229417Y-37473911D01*
X75229417Y-37892959D02*
X75229417Y-37092959D01*
X78404654Y-37131054D02*
X78328464Y-37092959D01*
X78328464Y-37092959D02*
X78214178Y-37092959D01*
X78214178Y-37092959D02*
X78099892Y-37131054D01*
X78099892Y-37131054D02*
X78023702Y-37207244D01*
X78023702Y-37207244D02*
X77985607Y-37283435D01*
X77985607Y-37283435D02*
X77947511Y-37435816D01*
X77947511Y-37435816D02*
X77947511Y-37550102D01*
X77947511Y-37550102D02*
X77985607Y-37702483D01*
X77985607Y-37702483D02*
X78023702Y-37778673D01*
X78023702Y-37778673D02*
X78099892Y-37854864D01*
X78099892Y-37854864D02*
X78214178Y-37892959D01*
X78214178Y-37892959D02*
X78290369Y-37892959D01*
X78290369Y-37892959D02*
X78404654Y-37854864D01*
X78404654Y-37854864D02*
X78442750Y-37816768D01*
X78442750Y-37816768D02*
X78442750Y-37550102D01*
X78442750Y-37550102D02*
X78290369Y-37550102D01*
X78785607Y-37892959D02*
X78785607Y-37092959D01*
X78785607Y-37092959D02*
X79242750Y-37892959D01*
X79242750Y-37892959D02*
X79242750Y-37092959D01*
X79623702Y-37892959D02*
X79623702Y-37092959D01*
X79623702Y-37092959D02*
X79814178Y-37092959D01*
X79814178Y-37092959D02*
X79928464Y-37131054D01*
X79928464Y-37131054D02*
X80004654Y-37207244D01*
X80004654Y-37207244D02*
X80042749Y-37283435D01*
X80042749Y-37283435D02*
X80080845Y-37435816D01*
X80080845Y-37435816D02*
X80080845Y-37550102D01*
X80080845Y-37550102D02*
X80042749Y-37702483D01*
X80042749Y-37702483D02*
X80004654Y-37778673D01*
X80004654Y-37778673D02*
X79928464Y-37854864D01*
X79928464Y-37854864D02*
X79814178Y-37892959D01*
X79814178Y-37892959D02*
X79623702Y-37892959D01*
X84125607Y-33142959D02*
X84125607Y-32342959D01*
X84125607Y-32342959D02*
X84582750Y-33142959D01*
X84582750Y-33142959D02*
X84582750Y-32342959D01*
X84773226Y-33219149D02*
X85382749Y-33219149D01*
X85992273Y-32381054D02*
X85916083Y-32342959D01*
X85916083Y-32342959D02*
X85801797Y-32342959D01*
X85801797Y-32342959D02*
X85687511Y-32381054D01*
X85687511Y-32381054D02*
X85611321Y-32457244D01*
X85611321Y-32457244D02*
X85573226Y-32533435D01*
X85573226Y-32533435D02*
X85535130Y-32685816D01*
X85535130Y-32685816D02*
X85535130Y-32800102D01*
X85535130Y-32800102D02*
X85573226Y-32952483D01*
X85573226Y-32952483D02*
X85611321Y-33028673D01*
X85611321Y-33028673D02*
X85687511Y-33104864D01*
X85687511Y-33104864D02*
X85801797Y-33142959D01*
X85801797Y-33142959D02*
X85877988Y-33142959D01*
X85877988Y-33142959D02*
X85992273Y-33104864D01*
X85992273Y-33104864D02*
X86030369Y-33066768D01*
X86030369Y-33066768D02*
X86030369Y-32800102D01*
X86030369Y-32800102D02*
X85877988Y-32800102D01*
X86373226Y-33142959D02*
X86373226Y-32342959D01*
X86373226Y-32342959D02*
X86830369Y-33142959D01*
X86830369Y-33142959D02*
X86830369Y-32342959D01*
X87211321Y-33142959D02*
X87211321Y-32342959D01*
X87211321Y-32342959D02*
X87401797Y-32342959D01*
X87401797Y-32342959D02*
X87516083Y-32381054D01*
X87516083Y-32381054D02*
X87592273Y-32457244D01*
X87592273Y-32457244D02*
X87630368Y-32533435D01*
X87630368Y-32533435D02*
X87668464Y-32685816D01*
X87668464Y-32685816D02*
X87668464Y-32800102D01*
X87668464Y-32800102D02*
X87630368Y-32952483D01*
X87630368Y-32952483D02*
X87592273Y-33028673D01*
X87592273Y-33028673D02*
X87516083Y-33104864D01*
X87516083Y-33104864D02*
X87401797Y-33142959D01*
X87401797Y-33142959D02*
X87211321Y-33142959D01*
X84125607Y-37892959D02*
X84125607Y-37092959D01*
X84125607Y-37092959D02*
X84582750Y-37892959D01*
X84582750Y-37892959D02*
X84582750Y-37092959D01*
X84773226Y-37969149D02*
X85382749Y-37969149D01*
X85497035Y-37092959D02*
X85687511Y-37892959D01*
X85687511Y-37892959D02*
X85839892Y-37321530D01*
X85839892Y-37321530D02*
X85992273Y-37892959D01*
X85992273Y-37892959D02*
X86182750Y-37092959D01*
X86487512Y-37892959D02*
X86487512Y-37092959D01*
X86487512Y-37473911D02*
X86944655Y-37473911D01*
X86944655Y-37892959D02*
X86944655Y-37092959D01*
X87325607Y-37892959D02*
X87325607Y-37092959D01*
X71974654Y-64131054D02*
X71898464Y-64092959D01*
X71898464Y-64092959D02*
X71784178Y-64092959D01*
X71784178Y-64092959D02*
X71669892Y-64131054D01*
X71669892Y-64131054D02*
X71593702Y-64207244D01*
X71593702Y-64207244D02*
X71555607Y-64283435D01*
X71555607Y-64283435D02*
X71517511Y-64435816D01*
X71517511Y-64435816D02*
X71517511Y-64550102D01*
X71517511Y-64550102D02*
X71555607Y-64702483D01*
X71555607Y-64702483D02*
X71593702Y-64778673D01*
X71593702Y-64778673D02*
X71669892Y-64854864D01*
X71669892Y-64854864D02*
X71784178Y-64892959D01*
X71784178Y-64892959D02*
X71860369Y-64892959D01*
X71860369Y-64892959D02*
X71974654Y-64854864D01*
X71974654Y-64854864D02*
X72012750Y-64816768D01*
X72012750Y-64816768D02*
X72012750Y-64550102D01*
X72012750Y-64550102D02*
X71860369Y-64550102D01*
X72355607Y-64892959D02*
X72355607Y-64092959D01*
X72355607Y-64092959D02*
X72812750Y-64892959D01*
X72812750Y-64892959D02*
X72812750Y-64092959D01*
X73193702Y-64892959D02*
X73193702Y-64092959D01*
X73193702Y-64092959D02*
X73384178Y-64092959D01*
X73384178Y-64092959D02*
X73498464Y-64131054D01*
X73498464Y-64131054D02*
X73574654Y-64207244D01*
X73574654Y-64207244D02*
X73612749Y-64283435D01*
X73612749Y-64283435D02*
X73650845Y-64435816D01*
X73650845Y-64435816D02*
X73650845Y-64550102D01*
X73650845Y-64550102D02*
X73612749Y-64702483D01*
X73612749Y-64702483D02*
X73574654Y-64778673D01*
X73574654Y-64778673D02*
X73498464Y-64854864D01*
X73498464Y-64854864D02*
X73384178Y-64892959D01*
X73384178Y-64892959D02*
X73193702Y-64892959D01*
X75457988Y-83592959D02*
X75610369Y-83592959D01*
X75610369Y-83592959D02*
X75686559Y-83631054D01*
X75686559Y-83631054D02*
X75762750Y-83707244D01*
X75762750Y-83707244D02*
X75800845Y-83859625D01*
X75800845Y-83859625D02*
X75800845Y-84126292D01*
X75800845Y-84126292D02*
X75762750Y-84278673D01*
X75762750Y-84278673D02*
X75686559Y-84354864D01*
X75686559Y-84354864D02*
X75610369Y-84392959D01*
X75610369Y-84392959D02*
X75457988Y-84392959D01*
X75457988Y-84392959D02*
X75381797Y-84354864D01*
X75381797Y-84354864D02*
X75305607Y-84278673D01*
X75305607Y-84278673D02*
X75267511Y-84126292D01*
X75267511Y-84126292D02*
X75267511Y-83859625D01*
X75267511Y-83859625D02*
X75305607Y-83707244D01*
X75305607Y-83707244D02*
X75381797Y-83631054D01*
X75381797Y-83631054D02*
X75457988Y-83592959D01*
X76143702Y-83592959D02*
X76143702Y-84240578D01*
X76143702Y-84240578D02*
X76181797Y-84316768D01*
X76181797Y-84316768D02*
X76219892Y-84354864D01*
X76219892Y-84354864D02*
X76296083Y-84392959D01*
X76296083Y-84392959D02*
X76448464Y-84392959D01*
X76448464Y-84392959D02*
X76524654Y-84354864D01*
X76524654Y-84354864D02*
X76562749Y-84316768D01*
X76562749Y-84316768D02*
X76600845Y-84240578D01*
X76600845Y-84240578D02*
X76600845Y-83592959D01*
X76867511Y-83592959D02*
X77324654Y-83592959D01*
X77096082Y-84392959D02*
X77096082Y-83592959D01*
X71517511Y-61354864D02*
X71631797Y-61392959D01*
X71631797Y-61392959D02*
X71822273Y-61392959D01*
X71822273Y-61392959D02*
X71898464Y-61354864D01*
X71898464Y-61354864D02*
X71936559Y-61316768D01*
X71936559Y-61316768D02*
X71974654Y-61240578D01*
X71974654Y-61240578D02*
X71974654Y-61164387D01*
X71974654Y-61164387D02*
X71936559Y-61088197D01*
X71936559Y-61088197D02*
X71898464Y-61050102D01*
X71898464Y-61050102D02*
X71822273Y-61012006D01*
X71822273Y-61012006D02*
X71669892Y-60973911D01*
X71669892Y-60973911D02*
X71593702Y-60935816D01*
X71593702Y-60935816D02*
X71555607Y-60897721D01*
X71555607Y-60897721D02*
X71517511Y-60821530D01*
X71517511Y-60821530D02*
X71517511Y-60745340D01*
X71517511Y-60745340D02*
X71555607Y-60669149D01*
X71555607Y-60669149D02*
X71593702Y-60631054D01*
X71593702Y-60631054D02*
X71669892Y-60592959D01*
X71669892Y-60592959D02*
X71860369Y-60592959D01*
X71860369Y-60592959D02*
X71974654Y-60631054D01*
X72241321Y-60592959D02*
X72431797Y-61392959D01*
X72431797Y-61392959D02*
X72584178Y-60821530D01*
X72584178Y-60821530D02*
X72736559Y-61392959D01*
X72736559Y-61392959D02*
X72927036Y-60592959D01*
X73231798Y-61392959D02*
X73231798Y-60592959D01*
X73498464Y-60592959D02*
X73955607Y-60592959D01*
X73727035Y-61392959D02*
X73727035Y-60592959D01*
X74679417Y-61316768D02*
X74641321Y-61354864D01*
X74641321Y-61354864D02*
X74527036Y-61392959D01*
X74527036Y-61392959D02*
X74450845Y-61392959D01*
X74450845Y-61392959D02*
X74336559Y-61354864D01*
X74336559Y-61354864D02*
X74260369Y-61278673D01*
X74260369Y-61278673D02*
X74222274Y-61202483D01*
X74222274Y-61202483D02*
X74184178Y-61050102D01*
X74184178Y-61050102D02*
X74184178Y-60935816D01*
X74184178Y-60935816D02*
X74222274Y-60783435D01*
X74222274Y-60783435D02*
X74260369Y-60707244D01*
X74260369Y-60707244D02*
X74336559Y-60631054D01*
X74336559Y-60631054D02*
X74450845Y-60592959D01*
X74450845Y-60592959D02*
X74527036Y-60592959D01*
X74527036Y-60592959D02*
X74641321Y-60631054D01*
X74641321Y-60631054D02*
X74679417Y-60669149D01*
X75022274Y-61392959D02*
X75022274Y-60592959D01*
X75022274Y-60973911D02*
X75479417Y-60973911D01*
X75479417Y-61392959D02*
X75479417Y-60592959D01*
X84125607Y-36392959D02*
X84125607Y-35592959D01*
X84125607Y-35592959D02*
X84582750Y-36392959D01*
X84582750Y-36392959D02*
X84582750Y-35592959D01*
X84773226Y-36469149D02*
X85382749Y-36469149D01*
X85839892Y-35973911D02*
X85954178Y-36012006D01*
X85954178Y-36012006D02*
X85992273Y-36050102D01*
X85992273Y-36050102D02*
X86030369Y-36126292D01*
X86030369Y-36126292D02*
X86030369Y-36240578D01*
X86030369Y-36240578D02*
X85992273Y-36316768D01*
X85992273Y-36316768D02*
X85954178Y-36354864D01*
X85954178Y-36354864D02*
X85877988Y-36392959D01*
X85877988Y-36392959D02*
X85573226Y-36392959D01*
X85573226Y-36392959D02*
X85573226Y-35592959D01*
X85573226Y-35592959D02*
X85839892Y-35592959D01*
X85839892Y-35592959D02*
X85916083Y-35631054D01*
X85916083Y-35631054D02*
X85954178Y-35669149D01*
X85954178Y-35669149D02*
X85992273Y-35745340D01*
X85992273Y-35745340D02*
X85992273Y-35821530D01*
X85992273Y-35821530D02*
X85954178Y-35897721D01*
X85954178Y-35897721D02*
X85916083Y-35935816D01*
X85916083Y-35935816D02*
X85839892Y-35973911D01*
X85839892Y-35973911D02*
X85573226Y-35973911D01*
X86754178Y-36392959D02*
X86373226Y-36392959D01*
X86373226Y-36392959D02*
X86373226Y-35592959D01*
X87020845Y-36392959D02*
X87020845Y-35592959D01*
X87477988Y-36392959D02*
X87135130Y-35935816D01*
X87477988Y-35592959D02*
X87020845Y-36050102D01*
X84125607Y-34642959D02*
X84125607Y-33842959D01*
X84125607Y-33842959D02*
X84582750Y-34642959D01*
X84582750Y-34642959D02*
X84582750Y-33842959D01*
X84773226Y-34719149D02*
X85382749Y-34719149D01*
X86030369Y-34642959D02*
X85763702Y-34262006D01*
X85573226Y-34642959D02*
X85573226Y-33842959D01*
X85573226Y-33842959D02*
X85877988Y-33842959D01*
X85877988Y-33842959D02*
X85954178Y-33881054D01*
X85954178Y-33881054D02*
X85992273Y-33919149D01*
X85992273Y-33919149D02*
X86030369Y-33995340D01*
X86030369Y-33995340D02*
X86030369Y-34109625D01*
X86030369Y-34109625D02*
X85992273Y-34185816D01*
X85992273Y-34185816D02*
X85954178Y-34223911D01*
X85954178Y-34223911D02*
X85877988Y-34262006D01*
X85877988Y-34262006D02*
X85573226Y-34262006D01*
X86373226Y-34223911D02*
X86639892Y-34223911D01*
X86754178Y-34642959D02*
X86373226Y-34642959D01*
X86373226Y-34642959D02*
X86373226Y-33842959D01*
X86373226Y-33842959D02*
X86754178Y-33842959D01*
X87097036Y-34642959D02*
X87097036Y-33842959D01*
X87097036Y-33842959D02*
X87287512Y-33842959D01*
X87287512Y-33842959D02*
X87401798Y-33881054D01*
X87401798Y-33881054D02*
X87477988Y-33957244D01*
X87477988Y-33957244D02*
X87516083Y-34033435D01*
X87516083Y-34033435D02*
X87554179Y-34185816D01*
X87554179Y-34185816D02*
X87554179Y-34300102D01*
X87554179Y-34300102D02*
X87516083Y-34452483D01*
X87516083Y-34452483D02*
X87477988Y-34528673D01*
X87477988Y-34528673D02*
X87401798Y-34604864D01*
X87401798Y-34604864D02*
X87287512Y-34642959D01*
X87287512Y-34642959D02*
X87097036Y-34642959D01*
X72474654Y-83631054D02*
X72398464Y-83592959D01*
X72398464Y-83592959D02*
X72284178Y-83592959D01*
X72284178Y-83592959D02*
X72169892Y-83631054D01*
X72169892Y-83631054D02*
X72093702Y-83707244D01*
X72093702Y-83707244D02*
X72055607Y-83783435D01*
X72055607Y-83783435D02*
X72017511Y-83935816D01*
X72017511Y-83935816D02*
X72017511Y-84050102D01*
X72017511Y-84050102D02*
X72055607Y-84202483D01*
X72055607Y-84202483D02*
X72093702Y-84278673D01*
X72093702Y-84278673D02*
X72169892Y-84354864D01*
X72169892Y-84354864D02*
X72284178Y-84392959D01*
X72284178Y-84392959D02*
X72360369Y-84392959D01*
X72360369Y-84392959D02*
X72474654Y-84354864D01*
X72474654Y-84354864D02*
X72512750Y-84316768D01*
X72512750Y-84316768D02*
X72512750Y-84050102D01*
X72512750Y-84050102D02*
X72360369Y-84050102D01*
X72855607Y-84392959D02*
X72855607Y-83592959D01*
X72855607Y-83592959D02*
X73312750Y-84392959D01*
X73312750Y-84392959D02*
X73312750Y-83592959D01*
X73693702Y-84392959D02*
X73693702Y-83592959D01*
X73693702Y-83592959D02*
X73884178Y-83592959D01*
X73884178Y-83592959D02*
X73998464Y-83631054D01*
X73998464Y-83631054D02*
X74074654Y-83707244D01*
X74074654Y-83707244D02*
X74112749Y-83783435D01*
X74112749Y-83783435D02*
X74150845Y-83935816D01*
X74150845Y-83935816D02*
X74150845Y-84050102D01*
X74150845Y-84050102D02*
X74112749Y-84202483D01*
X74112749Y-84202483D02*
X74074654Y-84278673D01*
X74074654Y-84278673D02*
X73998464Y-84354864D01*
X73998464Y-84354864D02*
X73884178Y-84392959D01*
X73884178Y-84392959D02*
X73693702Y-84392959D01*
X90572273Y-81723911D02*
X90686559Y-81762006D01*
X90686559Y-81762006D02*
X90724654Y-81800102D01*
X90724654Y-81800102D02*
X90762750Y-81876292D01*
X90762750Y-81876292D02*
X90762750Y-81990578D01*
X90762750Y-81990578D02*
X90724654Y-82066768D01*
X90724654Y-82066768D02*
X90686559Y-82104864D01*
X90686559Y-82104864D02*
X90610369Y-82142959D01*
X90610369Y-82142959D02*
X90305607Y-82142959D01*
X90305607Y-82142959D02*
X90305607Y-81342959D01*
X90305607Y-81342959D02*
X90572273Y-81342959D01*
X90572273Y-81342959D02*
X90648464Y-81381054D01*
X90648464Y-81381054D02*
X90686559Y-81419149D01*
X90686559Y-81419149D02*
X90724654Y-81495340D01*
X90724654Y-81495340D02*
X90724654Y-81571530D01*
X90724654Y-81571530D02*
X90686559Y-81647721D01*
X90686559Y-81647721D02*
X90648464Y-81685816D01*
X90648464Y-81685816D02*
X90572273Y-81723911D01*
X90572273Y-81723911D02*
X90305607Y-81723911D01*
X90915131Y-82219149D02*
X91524654Y-82219149D01*
X92134178Y-81381054D02*
X92057988Y-81342959D01*
X92057988Y-81342959D02*
X91943702Y-81342959D01*
X91943702Y-81342959D02*
X91829416Y-81381054D01*
X91829416Y-81381054D02*
X91753226Y-81457244D01*
X91753226Y-81457244D02*
X91715131Y-81533435D01*
X91715131Y-81533435D02*
X91677035Y-81685816D01*
X91677035Y-81685816D02*
X91677035Y-81800102D01*
X91677035Y-81800102D02*
X91715131Y-81952483D01*
X91715131Y-81952483D02*
X91753226Y-82028673D01*
X91753226Y-82028673D02*
X91829416Y-82104864D01*
X91829416Y-82104864D02*
X91943702Y-82142959D01*
X91943702Y-82142959D02*
X92019893Y-82142959D01*
X92019893Y-82142959D02*
X92134178Y-82104864D01*
X92134178Y-82104864D02*
X92172274Y-82066768D01*
X92172274Y-82066768D02*
X92172274Y-81800102D01*
X92172274Y-81800102D02*
X92019893Y-81800102D01*
X92515131Y-82142959D02*
X92515131Y-81342959D01*
X92515131Y-81342959D02*
X92972274Y-82142959D01*
X92972274Y-82142959D02*
X92972274Y-81342959D01*
X93353226Y-82142959D02*
X93353226Y-81342959D01*
X93353226Y-81342959D02*
X93543702Y-81342959D01*
X93543702Y-81342959D02*
X93657988Y-81381054D01*
X93657988Y-81381054D02*
X93734178Y-81457244D01*
X93734178Y-81457244D02*
X93772273Y-81533435D01*
X93772273Y-81533435D02*
X93810369Y-81685816D01*
X93810369Y-81685816D02*
X93810369Y-81800102D01*
X93810369Y-81800102D02*
X93772273Y-81952483D01*
X93772273Y-81952483D02*
X93734178Y-82028673D01*
X93734178Y-82028673D02*
X93657988Y-82104864D01*
X93657988Y-82104864D02*
X93543702Y-82142959D01*
X93543702Y-82142959D02*
X93353226Y-82142959D01*
X80572273Y-60973911D02*
X80686559Y-61012006D01*
X80686559Y-61012006D02*
X80724654Y-61050102D01*
X80724654Y-61050102D02*
X80762750Y-61126292D01*
X80762750Y-61126292D02*
X80762750Y-61240578D01*
X80762750Y-61240578D02*
X80724654Y-61316768D01*
X80724654Y-61316768D02*
X80686559Y-61354864D01*
X80686559Y-61354864D02*
X80610369Y-61392959D01*
X80610369Y-61392959D02*
X80305607Y-61392959D01*
X80305607Y-61392959D02*
X80305607Y-60592959D01*
X80305607Y-60592959D02*
X80572273Y-60592959D01*
X80572273Y-60592959D02*
X80648464Y-60631054D01*
X80648464Y-60631054D02*
X80686559Y-60669149D01*
X80686559Y-60669149D02*
X80724654Y-60745340D01*
X80724654Y-60745340D02*
X80724654Y-60821530D01*
X80724654Y-60821530D02*
X80686559Y-60897721D01*
X80686559Y-60897721D02*
X80648464Y-60935816D01*
X80648464Y-60935816D02*
X80572273Y-60973911D01*
X80572273Y-60973911D02*
X80305607Y-60973911D01*
X81562750Y-61392959D02*
X81296083Y-61012006D01*
X81105607Y-61392959D02*
X81105607Y-60592959D01*
X81105607Y-60592959D02*
X81410369Y-60592959D01*
X81410369Y-60592959D02*
X81486559Y-60631054D01*
X81486559Y-60631054D02*
X81524654Y-60669149D01*
X81524654Y-60669149D02*
X81562750Y-60745340D01*
X81562750Y-60745340D02*
X81562750Y-60859625D01*
X81562750Y-60859625D02*
X81524654Y-60935816D01*
X81524654Y-60935816D02*
X81486559Y-60973911D01*
X81486559Y-60973911D02*
X81410369Y-61012006D01*
X81410369Y-61012006D02*
X81105607Y-61012006D01*
X81905607Y-61392959D02*
X81905607Y-60592959D01*
X82286559Y-61392959D02*
X82286559Y-60592959D01*
X82286559Y-60592959D02*
X82477035Y-60592959D01*
X82477035Y-60592959D02*
X82591321Y-60631054D01*
X82591321Y-60631054D02*
X82667511Y-60707244D01*
X82667511Y-60707244D02*
X82705606Y-60783435D01*
X82705606Y-60783435D02*
X82743702Y-60935816D01*
X82743702Y-60935816D02*
X82743702Y-61050102D01*
X82743702Y-61050102D02*
X82705606Y-61202483D01*
X82705606Y-61202483D02*
X82667511Y-61278673D01*
X82667511Y-61278673D02*
X82591321Y-61354864D01*
X82591321Y-61354864D02*
X82477035Y-61392959D01*
X82477035Y-61392959D02*
X82286559Y-61392959D01*
X83505606Y-60631054D02*
X83429416Y-60592959D01*
X83429416Y-60592959D02*
X83315130Y-60592959D01*
X83315130Y-60592959D02*
X83200844Y-60631054D01*
X83200844Y-60631054D02*
X83124654Y-60707244D01*
X83124654Y-60707244D02*
X83086559Y-60783435D01*
X83086559Y-60783435D02*
X83048463Y-60935816D01*
X83048463Y-60935816D02*
X83048463Y-61050102D01*
X83048463Y-61050102D02*
X83086559Y-61202483D01*
X83086559Y-61202483D02*
X83124654Y-61278673D01*
X83124654Y-61278673D02*
X83200844Y-61354864D01*
X83200844Y-61354864D02*
X83315130Y-61392959D01*
X83315130Y-61392959D02*
X83391321Y-61392959D01*
X83391321Y-61392959D02*
X83505606Y-61354864D01*
X83505606Y-61354864D02*
X83543702Y-61316768D01*
X83543702Y-61316768D02*
X83543702Y-61050102D01*
X83543702Y-61050102D02*
X83391321Y-61050102D01*
X83886559Y-60973911D02*
X84153225Y-60973911D01*
X84267511Y-61392959D02*
X83886559Y-61392959D01*
X83886559Y-61392959D02*
X83886559Y-60592959D01*
X83886559Y-60592959D02*
X84267511Y-60592959D01*
X90572273Y-84723911D02*
X90686559Y-84762006D01*
X90686559Y-84762006D02*
X90724654Y-84800102D01*
X90724654Y-84800102D02*
X90762750Y-84876292D01*
X90762750Y-84876292D02*
X90762750Y-84990578D01*
X90762750Y-84990578D02*
X90724654Y-85066768D01*
X90724654Y-85066768D02*
X90686559Y-85104864D01*
X90686559Y-85104864D02*
X90610369Y-85142959D01*
X90610369Y-85142959D02*
X90305607Y-85142959D01*
X90305607Y-85142959D02*
X90305607Y-84342959D01*
X90305607Y-84342959D02*
X90572273Y-84342959D01*
X90572273Y-84342959D02*
X90648464Y-84381054D01*
X90648464Y-84381054D02*
X90686559Y-84419149D01*
X90686559Y-84419149D02*
X90724654Y-84495340D01*
X90724654Y-84495340D02*
X90724654Y-84571530D01*
X90724654Y-84571530D02*
X90686559Y-84647721D01*
X90686559Y-84647721D02*
X90648464Y-84685816D01*
X90648464Y-84685816D02*
X90572273Y-84723911D01*
X90572273Y-84723911D02*
X90305607Y-84723911D01*
X90915131Y-85219149D02*
X91524654Y-85219149D01*
X91981797Y-84723911D02*
X92096083Y-84762006D01*
X92096083Y-84762006D02*
X92134178Y-84800102D01*
X92134178Y-84800102D02*
X92172274Y-84876292D01*
X92172274Y-84876292D02*
X92172274Y-84990578D01*
X92172274Y-84990578D02*
X92134178Y-85066768D01*
X92134178Y-85066768D02*
X92096083Y-85104864D01*
X92096083Y-85104864D02*
X92019893Y-85142959D01*
X92019893Y-85142959D02*
X91715131Y-85142959D01*
X91715131Y-85142959D02*
X91715131Y-84342959D01*
X91715131Y-84342959D02*
X91981797Y-84342959D01*
X91981797Y-84342959D02*
X92057988Y-84381054D01*
X92057988Y-84381054D02*
X92096083Y-84419149D01*
X92096083Y-84419149D02*
X92134178Y-84495340D01*
X92134178Y-84495340D02*
X92134178Y-84571530D01*
X92134178Y-84571530D02*
X92096083Y-84647721D01*
X92096083Y-84647721D02*
X92057988Y-84685816D01*
X92057988Y-84685816D02*
X91981797Y-84723911D01*
X91981797Y-84723911D02*
X91715131Y-84723911D01*
X92896083Y-85142959D02*
X92515131Y-85142959D01*
X92515131Y-85142959D02*
X92515131Y-84342959D01*
X93162750Y-85142959D02*
X93162750Y-84342959D01*
X93619893Y-85142959D02*
X93277035Y-84685816D01*
X93619893Y-84342959D02*
X93162750Y-84800102D01*
X90572273Y-86223911D02*
X90686559Y-86262006D01*
X90686559Y-86262006D02*
X90724654Y-86300102D01*
X90724654Y-86300102D02*
X90762750Y-86376292D01*
X90762750Y-86376292D02*
X90762750Y-86490578D01*
X90762750Y-86490578D02*
X90724654Y-86566768D01*
X90724654Y-86566768D02*
X90686559Y-86604864D01*
X90686559Y-86604864D02*
X90610369Y-86642959D01*
X90610369Y-86642959D02*
X90305607Y-86642959D01*
X90305607Y-86642959D02*
X90305607Y-85842959D01*
X90305607Y-85842959D02*
X90572273Y-85842959D01*
X90572273Y-85842959D02*
X90648464Y-85881054D01*
X90648464Y-85881054D02*
X90686559Y-85919149D01*
X90686559Y-85919149D02*
X90724654Y-85995340D01*
X90724654Y-85995340D02*
X90724654Y-86071530D01*
X90724654Y-86071530D02*
X90686559Y-86147721D01*
X90686559Y-86147721D02*
X90648464Y-86185816D01*
X90648464Y-86185816D02*
X90572273Y-86223911D01*
X90572273Y-86223911D02*
X90305607Y-86223911D01*
X90915131Y-86719149D02*
X91524654Y-86719149D01*
X91638940Y-85842959D02*
X91829416Y-86642959D01*
X91829416Y-86642959D02*
X91981797Y-86071530D01*
X91981797Y-86071530D02*
X92134178Y-86642959D01*
X92134178Y-86642959D02*
X92324655Y-85842959D01*
X92629417Y-86642959D02*
X92629417Y-85842959D01*
X92629417Y-86223911D02*
X93086560Y-86223911D01*
X93086560Y-86642959D02*
X93086560Y-85842959D01*
X93467512Y-86642959D02*
X93467512Y-85842959D01*
X78252273Y-34473911D02*
X78366559Y-34512006D01*
X78366559Y-34512006D02*
X78404654Y-34550102D01*
X78404654Y-34550102D02*
X78442750Y-34626292D01*
X78442750Y-34626292D02*
X78442750Y-34740578D01*
X78442750Y-34740578D02*
X78404654Y-34816768D01*
X78404654Y-34816768D02*
X78366559Y-34854864D01*
X78366559Y-34854864D02*
X78290369Y-34892959D01*
X78290369Y-34892959D02*
X77985607Y-34892959D01*
X77985607Y-34892959D02*
X77985607Y-34092959D01*
X77985607Y-34092959D02*
X78252273Y-34092959D01*
X78252273Y-34092959D02*
X78328464Y-34131054D01*
X78328464Y-34131054D02*
X78366559Y-34169149D01*
X78366559Y-34169149D02*
X78404654Y-34245340D01*
X78404654Y-34245340D02*
X78404654Y-34321530D01*
X78404654Y-34321530D02*
X78366559Y-34397721D01*
X78366559Y-34397721D02*
X78328464Y-34435816D01*
X78328464Y-34435816D02*
X78252273Y-34473911D01*
X78252273Y-34473911D02*
X77985607Y-34473911D01*
X79242750Y-34892959D02*
X78976083Y-34512006D01*
X78785607Y-34892959D02*
X78785607Y-34092959D01*
X78785607Y-34092959D02*
X79090369Y-34092959D01*
X79090369Y-34092959D02*
X79166559Y-34131054D01*
X79166559Y-34131054D02*
X79204654Y-34169149D01*
X79204654Y-34169149D02*
X79242750Y-34245340D01*
X79242750Y-34245340D02*
X79242750Y-34359625D01*
X79242750Y-34359625D02*
X79204654Y-34435816D01*
X79204654Y-34435816D02*
X79166559Y-34473911D01*
X79166559Y-34473911D02*
X79090369Y-34512006D01*
X79090369Y-34512006D02*
X78785607Y-34512006D01*
X79585607Y-34892959D02*
X79585607Y-34092959D01*
X79966559Y-34892959D02*
X79966559Y-34092959D01*
X79966559Y-34092959D02*
X80157035Y-34092959D01*
X80157035Y-34092959D02*
X80271321Y-34131054D01*
X80271321Y-34131054D02*
X80347511Y-34207244D01*
X80347511Y-34207244D02*
X80385606Y-34283435D01*
X80385606Y-34283435D02*
X80423702Y-34435816D01*
X80423702Y-34435816D02*
X80423702Y-34550102D01*
X80423702Y-34550102D02*
X80385606Y-34702483D01*
X80385606Y-34702483D02*
X80347511Y-34778673D01*
X80347511Y-34778673D02*
X80271321Y-34854864D01*
X80271321Y-34854864D02*
X80157035Y-34892959D01*
X80157035Y-34892959D02*
X79966559Y-34892959D01*
X81185606Y-34131054D02*
X81109416Y-34092959D01*
X81109416Y-34092959D02*
X80995130Y-34092959D01*
X80995130Y-34092959D02*
X80880844Y-34131054D01*
X80880844Y-34131054D02*
X80804654Y-34207244D01*
X80804654Y-34207244D02*
X80766559Y-34283435D01*
X80766559Y-34283435D02*
X80728463Y-34435816D01*
X80728463Y-34435816D02*
X80728463Y-34550102D01*
X80728463Y-34550102D02*
X80766559Y-34702483D01*
X80766559Y-34702483D02*
X80804654Y-34778673D01*
X80804654Y-34778673D02*
X80880844Y-34854864D01*
X80880844Y-34854864D02*
X80995130Y-34892959D01*
X80995130Y-34892959D02*
X81071321Y-34892959D01*
X81071321Y-34892959D02*
X81185606Y-34854864D01*
X81185606Y-34854864D02*
X81223702Y-34816768D01*
X81223702Y-34816768D02*
X81223702Y-34550102D01*
X81223702Y-34550102D02*
X81071321Y-34550102D01*
X81566559Y-34473911D02*
X81833225Y-34473911D01*
X81947511Y-34892959D02*
X81566559Y-34892959D01*
X81566559Y-34892959D02*
X81566559Y-34092959D01*
X81566559Y-34092959D02*
X81947511Y-34092959D01*
X77947511Y-36354864D02*
X78061797Y-36392959D01*
X78061797Y-36392959D02*
X78252273Y-36392959D01*
X78252273Y-36392959D02*
X78328464Y-36354864D01*
X78328464Y-36354864D02*
X78366559Y-36316768D01*
X78366559Y-36316768D02*
X78404654Y-36240578D01*
X78404654Y-36240578D02*
X78404654Y-36164387D01*
X78404654Y-36164387D02*
X78366559Y-36088197D01*
X78366559Y-36088197D02*
X78328464Y-36050102D01*
X78328464Y-36050102D02*
X78252273Y-36012006D01*
X78252273Y-36012006D02*
X78099892Y-35973911D01*
X78099892Y-35973911D02*
X78023702Y-35935816D01*
X78023702Y-35935816D02*
X77985607Y-35897721D01*
X77985607Y-35897721D02*
X77947511Y-35821530D01*
X77947511Y-35821530D02*
X77947511Y-35745340D01*
X77947511Y-35745340D02*
X77985607Y-35669149D01*
X77985607Y-35669149D02*
X78023702Y-35631054D01*
X78023702Y-35631054D02*
X78099892Y-35592959D01*
X78099892Y-35592959D02*
X78290369Y-35592959D01*
X78290369Y-35592959D02*
X78404654Y-35631054D01*
X78671321Y-35592959D02*
X78861797Y-36392959D01*
X78861797Y-36392959D02*
X79014178Y-35821530D01*
X79014178Y-35821530D02*
X79166559Y-36392959D01*
X79166559Y-36392959D02*
X79357036Y-35592959D01*
X79661798Y-36392959D02*
X79661798Y-35592959D01*
X79928464Y-35592959D02*
X80385607Y-35592959D01*
X80157035Y-36392959D02*
X80157035Y-35592959D01*
X81109417Y-36316768D02*
X81071321Y-36354864D01*
X81071321Y-36354864D02*
X80957036Y-36392959D01*
X80957036Y-36392959D02*
X80880845Y-36392959D01*
X80880845Y-36392959D02*
X80766559Y-36354864D01*
X80766559Y-36354864D02*
X80690369Y-36278673D01*
X80690369Y-36278673D02*
X80652274Y-36202483D01*
X80652274Y-36202483D02*
X80614178Y-36050102D01*
X80614178Y-36050102D02*
X80614178Y-35935816D01*
X80614178Y-35935816D02*
X80652274Y-35783435D01*
X80652274Y-35783435D02*
X80690369Y-35707244D01*
X80690369Y-35707244D02*
X80766559Y-35631054D01*
X80766559Y-35631054D02*
X80880845Y-35592959D01*
X80880845Y-35592959D02*
X80957036Y-35592959D01*
X80957036Y-35592959D02*
X81071321Y-35631054D01*
X81071321Y-35631054D02*
X81109417Y-35669149D01*
X81452274Y-36392959D02*
X81452274Y-35592959D01*
X81452274Y-35973911D02*
X81909417Y-35973911D01*
X81909417Y-36392959D02*
X81909417Y-35592959D01*
X76621321Y-64404827D02*
X76887988Y-65204827D01*
X76887988Y-65204827D02*
X77154654Y-64404827D01*
X77573702Y-64404827D02*
X77726083Y-64404827D01*
X77726083Y-64404827D02*
X77802273Y-64442922D01*
X77802273Y-64442922D02*
X77878464Y-64519112D01*
X77878464Y-64519112D02*
X77916559Y-64671493D01*
X77916559Y-64671493D02*
X77916559Y-64938160D01*
X77916559Y-64938160D02*
X77878464Y-65090541D01*
X77878464Y-65090541D02*
X77802273Y-65166732D01*
X77802273Y-65166732D02*
X77726083Y-65204827D01*
X77726083Y-65204827D02*
X77573702Y-65204827D01*
X77573702Y-65204827D02*
X77497511Y-65166732D01*
X77497511Y-65166732D02*
X77421321Y-65090541D01*
X77421321Y-65090541D02*
X77383225Y-64938160D01*
X77383225Y-64938160D02*
X77383225Y-64671493D01*
X77383225Y-64671493D02*
X77421321Y-64519112D01*
X77421321Y-64519112D02*
X77497511Y-64442922D01*
X77497511Y-64442922D02*
X77573702Y-64404827D01*
X78640368Y-65204827D02*
X78259416Y-65204827D01*
X78259416Y-65204827D02*
X78259416Y-64404827D01*
X78907035Y-64404827D02*
X78907035Y-65052446D01*
X78907035Y-65052446D02*
X78945130Y-65128636D01*
X78945130Y-65128636D02*
X78983225Y-65166732D01*
X78983225Y-65166732D02*
X79059416Y-65204827D01*
X79059416Y-65204827D02*
X79211797Y-65204827D01*
X79211797Y-65204827D02*
X79287987Y-65166732D01*
X79287987Y-65166732D02*
X79326082Y-65128636D01*
X79326082Y-65128636D02*
X79364178Y-65052446D01*
X79364178Y-65052446D02*
X79364178Y-64404827D01*
X79745130Y-65204827D02*
X79745130Y-64404827D01*
X79745130Y-64404827D02*
X80011796Y-64976255D01*
X80011796Y-64976255D02*
X80278463Y-64404827D01*
X80278463Y-64404827D02*
X80278463Y-65204827D01*
X80659416Y-64785779D02*
X80926082Y-64785779D01*
X81040368Y-65204827D02*
X80659416Y-65204827D01*
X80659416Y-65204827D02*
X80659416Y-64404827D01*
X80659416Y-64404827D02*
X81040368Y-64404827D01*
X72887988Y-85404827D02*
X73040369Y-85404827D01*
X73040369Y-85404827D02*
X73116559Y-85442922D01*
X73116559Y-85442922D02*
X73192750Y-85519112D01*
X73192750Y-85519112D02*
X73230845Y-85671493D01*
X73230845Y-85671493D02*
X73230845Y-85938160D01*
X73230845Y-85938160D02*
X73192750Y-86090541D01*
X73192750Y-86090541D02*
X73116559Y-86166732D01*
X73116559Y-86166732D02*
X73040369Y-86204827D01*
X73040369Y-86204827D02*
X72887988Y-86204827D01*
X72887988Y-86204827D02*
X72811797Y-86166732D01*
X72811797Y-86166732D02*
X72735607Y-86090541D01*
X72735607Y-86090541D02*
X72697511Y-85938160D01*
X72697511Y-85938160D02*
X72697511Y-85671493D01*
X72697511Y-85671493D02*
X72735607Y-85519112D01*
X72735607Y-85519112D02*
X72811797Y-85442922D01*
X72811797Y-85442922D02*
X72887988Y-85404827D01*
X73573702Y-85404827D02*
X73573702Y-86052446D01*
X73573702Y-86052446D02*
X73611797Y-86128636D01*
X73611797Y-86128636D02*
X73649892Y-86166732D01*
X73649892Y-86166732D02*
X73726083Y-86204827D01*
X73726083Y-86204827D02*
X73878464Y-86204827D01*
X73878464Y-86204827D02*
X73954654Y-86166732D01*
X73954654Y-86166732D02*
X73992749Y-86128636D01*
X73992749Y-86128636D02*
X74030845Y-86052446D01*
X74030845Y-86052446D02*
X74030845Y-85404827D01*
X74297511Y-85404827D02*
X74754654Y-85404827D01*
X74526082Y-86204827D02*
X74526082Y-85404827D01*
X75021321Y-86204827D02*
X75021321Y-85404827D01*
X75021321Y-85404827D02*
X75326083Y-85404827D01*
X75326083Y-85404827D02*
X75402273Y-85442922D01*
X75402273Y-85442922D02*
X75440368Y-85481017D01*
X75440368Y-85481017D02*
X75478464Y-85557208D01*
X75478464Y-85557208D02*
X75478464Y-85671493D01*
X75478464Y-85671493D02*
X75440368Y-85747684D01*
X75440368Y-85747684D02*
X75402273Y-85785779D01*
X75402273Y-85785779D02*
X75326083Y-85823874D01*
X75326083Y-85823874D02*
X75021321Y-85823874D01*
X75821321Y-85404827D02*
X75821321Y-86052446D01*
X75821321Y-86052446D02*
X75859416Y-86128636D01*
X75859416Y-86128636D02*
X75897511Y-86166732D01*
X75897511Y-86166732D02*
X75973702Y-86204827D01*
X75973702Y-86204827D02*
X76126083Y-86204827D01*
X76126083Y-86204827D02*
X76202273Y-86166732D01*
X76202273Y-86166732D02*
X76240368Y-86128636D01*
X76240368Y-86128636D02*
X76278464Y-86052446D01*
X76278464Y-86052446D02*
X76278464Y-85404827D01*
X76545130Y-85404827D02*
X77002273Y-85404827D01*
X76773701Y-86204827D02*
X76773701Y-85404827D01*
D12*
%TO.C,HB_BRIDGE1*%
X84680000Y-60339964D02*
X94720000Y-60339964D01*
X84680000Y-80899964D02*
X84680000Y-60339964D01*
X87700000Y-80899964D02*
X87700000Y-60339964D01*
X92600000Y-80899964D02*
X92600000Y-60339964D01*
X94100000Y-80899964D02*
X94100000Y-60339964D01*
X94720000Y-60339964D02*
X94720000Y-77939964D01*
X94720000Y-78539964D02*
X94720000Y-80899964D01*
X94720000Y-80899964D02*
X84680000Y-80899964D01*
X95330000Y-78679964D02*
X94720000Y-78239964D01*
X95330000Y-77799964D01*
X95330000Y-78679964D01*
G36*
X95330000Y-78679964D02*
G01*
X94720000Y-78239964D01*
X95330000Y-77799964D01*
X95330000Y-78679964D01*
G37*
%TO.C,PICKUP_SELECTOR1*%
X71280000Y-38373700D02*
X81320000Y-38373700D01*
X71280000Y-40733700D02*
X71280000Y-38373700D01*
X71280000Y-58933700D02*
X71280000Y-41333700D01*
X71900000Y-38373700D02*
X71900000Y-58933700D01*
X73400000Y-38373700D02*
X73400000Y-58933700D01*
X78300000Y-38373700D02*
X78300000Y-58933700D01*
X81320000Y-38373700D02*
X81320000Y-58933700D01*
X81320000Y-58933700D02*
X71280000Y-58933700D01*
X71280000Y-41033700D02*
X70670000Y-41473700D01*
X70670000Y-40593700D01*
X71280000Y-41033700D01*
G36*
X71280000Y-41033700D02*
G01*
X70670000Y-41473700D01*
X70670000Y-40593700D01*
X71280000Y-41033700D01*
G37*
%TO.C,VOLUME1*%
X71030000Y-65429964D02*
X81070000Y-65429964D01*
X71030000Y-67789964D02*
X71030000Y-65429964D01*
X71030000Y-80909964D02*
X71030000Y-68389964D01*
X71650000Y-65429964D02*
X71650000Y-80909964D01*
X73150000Y-65429964D02*
X73150000Y-80909964D01*
X78050000Y-65429964D02*
X78050000Y-80909964D01*
X81070000Y-65429964D02*
X81070000Y-80909964D01*
X81070000Y-80909964D02*
X71030000Y-80909964D01*
X71030000Y-68089964D02*
X70420000Y-68529964D01*
X70420000Y-67649964D01*
X71030000Y-68089964D01*
G36*
X71030000Y-68089964D02*
G01*
X70420000Y-68529964D01*
X70420000Y-67649964D01*
X71030000Y-68089964D01*
G37*
%TO.C,J1*%
X77840000Y-82852464D02*
X88240000Y-82852464D01*
X77840000Y-85872464D02*
X88240000Y-85872464D01*
X77840000Y-90772464D02*
X88240000Y-90772464D01*
X77840000Y-92272464D02*
X88240000Y-92272464D01*
X77840000Y-92892464D02*
X77840000Y-82852464D01*
X80200000Y-92892464D02*
X77840000Y-92892464D01*
X88240000Y-82852464D02*
X88240000Y-92892464D01*
X88240000Y-92892464D02*
X80800000Y-92892464D01*
X80940000Y-93502464D02*
X80060000Y-93502464D01*
X80500000Y-92892464D01*
X80940000Y-93502464D01*
G36*
X80940000Y-93502464D02*
G01*
X80060000Y-93502464D01*
X80500000Y-92892464D01*
X80940000Y-93502464D01*
G37*
%TO.C,HB_NECK1*%
X84680000Y-38453700D02*
X94720000Y-38453700D01*
X84680000Y-59013700D02*
X84680000Y-38453700D01*
X87700000Y-59013700D02*
X87700000Y-38453700D01*
X92600000Y-59013700D02*
X92600000Y-38453700D01*
X94100000Y-59013700D02*
X94100000Y-38453700D01*
X94720000Y-38453700D02*
X94720000Y-56053700D01*
X94720000Y-56653700D02*
X94720000Y-59013700D01*
X94720000Y-59013700D02*
X84680000Y-59013700D01*
X95330000Y-56793700D02*
X94720000Y-56353700D01*
X95330000Y-55913700D01*
X95330000Y-56793700D01*
G36*
X95330000Y-56793700D02*
G01*
X94720000Y-56353700D01*
X95330000Y-55913700D01*
X95330000Y-56793700D01*
G37*
%TD*%
M02*
