%TF.GenerationSoftware,KiCad,Pcbnew,9.0.7*%
%TF.CreationDate,2026-02-02T17:13:15+00:00*%
%TF.ProjectId,guitarwire,67756974-6172-4776-9972-652e6b696361,rev?*%
%TF.SameCoordinates,Original*%
%TF.FileFunction,Legend,Bot*%
%TF.FilePolarity,Positive*%
%FSLAX46Y46*%
G04 Gerber Fmt 4.6, Leading zero omitted, Abs format (unit mm)*
G04 Created by KiCad (PCBNEW 9.0.7) date 2026-02-02 17:13:15*
%MOMM*%
%LPD*%
G01*
G04 APERTURE LIST*
%ADD10C,0.100000*%
G04 APERTURE END LIST*
D10*
X78000000Y-36193700D02*
X88000000Y-36193700D01*
X88000000Y-74193700D01*
X78000000Y-74193700D01*
X78000000Y-36193700D01*
X78000000Y-74193700D02*
X88000000Y-74193700D01*
X88000000Y-84193700D01*
X78000000Y-84193700D01*
X78000000Y-74193700D01*
X81127580Y-72946115D02*
X82127580Y-72946115D01*
X82127580Y-72946115D02*
X82127580Y-72708020D01*
X82127580Y-72708020D02*
X82079961Y-72565163D01*
X82079961Y-72565163D02*
X81984723Y-72469925D01*
X81984723Y-72469925D02*
X81889485Y-72422306D01*
X81889485Y-72422306D02*
X81699009Y-72374687D01*
X81699009Y-72374687D02*
X81556152Y-72374687D01*
X81556152Y-72374687D02*
X81365676Y-72422306D01*
X81365676Y-72422306D02*
X81270438Y-72469925D01*
X81270438Y-72469925D02*
X81175200Y-72565163D01*
X81175200Y-72565163D02*
X81127580Y-72708020D01*
X81127580Y-72708020D02*
X81127580Y-72946115D01*
X81413295Y-71993734D02*
X81413295Y-71517544D01*
X81127580Y-72088972D02*
X82127580Y-71755639D01*
X82127580Y-71755639D02*
X81127580Y-71422306D01*
X82127580Y-71231829D02*
X82127580Y-70660401D01*
X81127580Y-70946115D02*
X82127580Y-70946115D01*
X81651390Y-70327067D02*
X81651390Y-69993734D01*
X81127580Y-69850877D02*
X81127580Y-70327067D01*
X81127580Y-70327067D02*
X82127580Y-70327067D01*
X82127580Y-70327067D02*
X82127580Y-69850877D01*
X82032342Y-68708019D02*
X82079961Y-68660400D01*
X82079961Y-68660400D02*
X82127580Y-68565162D01*
X82127580Y-68565162D02*
X82127580Y-68327067D01*
X82127580Y-68327067D02*
X82079961Y-68231829D01*
X82079961Y-68231829D02*
X82032342Y-68184210D01*
X82032342Y-68184210D02*
X81937104Y-68136591D01*
X81937104Y-68136591D02*
X81841866Y-68136591D01*
X81841866Y-68136591D02*
X81699009Y-68184210D01*
X81699009Y-68184210D02*
X81127580Y-68755638D01*
X81127580Y-68755638D02*
X81127580Y-68136591D01*
X82127580Y-67517543D02*
X82127580Y-67422305D01*
X82127580Y-67422305D02*
X82079961Y-67327067D01*
X82079961Y-67327067D02*
X82032342Y-67279448D01*
X82032342Y-67279448D02*
X81937104Y-67231829D01*
X81937104Y-67231829D02*
X81746628Y-67184210D01*
X81746628Y-67184210D02*
X81508533Y-67184210D01*
X81508533Y-67184210D02*
X81318057Y-67231829D01*
X81318057Y-67231829D02*
X81222819Y-67279448D01*
X81222819Y-67279448D02*
X81175200Y-67327067D01*
X81175200Y-67327067D02*
X81127580Y-67422305D01*
X81127580Y-67422305D02*
X81127580Y-67517543D01*
X81127580Y-67517543D02*
X81175200Y-67612781D01*
X81175200Y-67612781D02*
X81222819Y-67660400D01*
X81222819Y-67660400D02*
X81318057Y-67708019D01*
X81318057Y-67708019D02*
X81508533Y-67755638D01*
X81508533Y-67755638D02*
X81746628Y-67755638D01*
X81746628Y-67755638D02*
X81937104Y-67708019D01*
X81937104Y-67708019D02*
X82032342Y-67660400D01*
X82032342Y-67660400D02*
X82079961Y-67612781D01*
X82079961Y-67612781D02*
X82127580Y-67517543D01*
X82032342Y-66803257D02*
X82079961Y-66755638D01*
X82079961Y-66755638D02*
X82127580Y-66660400D01*
X82127580Y-66660400D02*
X82127580Y-66422305D01*
X82127580Y-66422305D02*
X82079961Y-66327067D01*
X82079961Y-66327067D02*
X82032342Y-66279448D01*
X82032342Y-66279448D02*
X81937104Y-66231829D01*
X81937104Y-66231829D02*
X81841866Y-66231829D01*
X81841866Y-66231829D02*
X81699009Y-66279448D01*
X81699009Y-66279448D02*
X81127580Y-66850876D01*
X81127580Y-66850876D02*
X81127580Y-66231829D01*
X82127580Y-65374686D02*
X82127580Y-65565162D01*
X82127580Y-65565162D02*
X82079961Y-65660400D01*
X82079961Y-65660400D02*
X82032342Y-65708019D01*
X82032342Y-65708019D02*
X81889485Y-65803257D01*
X81889485Y-65803257D02*
X81699009Y-65850876D01*
X81699009Y-65850876D02*
X81318057Y-65850876D01*
X81318057Y-65850876D02*
X81222819Y-65803257D01*
X81222819Y-65803257D02*
X81175200Y-65755638D01*
X81175200Y-65755638D02*
X81127580Y-65660400D01*
X81127580Y-65660400D02*
X81127580Y-65469924D01*
X81127580Y-65469924D02*
X81175200Y-65374686D01*
X81175200Y-65374686D02*
X81222819Y-65327067D01*
X81222819Y-65327067D02*
X81318057Y-65279448D01*
X81318057Y-65279448D02*
X81556152Y-65279448D01*
X81556152Y-65279448D02*
X81651390Y-65327067D01*
X81651390Y-65327067D02*
X81699009Y-65374686D01*
X81699009Y-65374686D02*
X81746628Y-65469924D01*
X81746628Y-65469924D02*
X81746628Y-65660400D01*
X81746628Y-65660400D02*
X81699009Y-65755638D01*
X81699009Y-65755638D02*
X81651390Y-65803257D01*
X81651390Y-65803257D02*
X81556152Y-65850876D01*
X81508533Y-64850876D02*
X81508533Y-64088972D01*
X82127580Y-63422305D02*
X82127580Y-63327067D01*
X82127580Y-63327067D02*
X82079961Y-63231829D01*
X82079961Y-63231829D02*
X82032342Y-63184210D01*
X82032342Y-63184210D02*
X81937104Y-63136591D01*
X81937104Y-63136591D02*
X81746628Y-63088972D01*
X81746628Y-63088972D02*
X81508533Y-63088972D01*
X81508533Y-63088972D02*
X81318057Y-63136591D01*
X81318057Y-63136591D02*
X81222819Y-63184210D01*
X81222819Y-63184210D02*
X81175200Y-63231829D01*
X81175200Y-63231829D02*
X81127580Y-63327067D01*
X81127580Y-63327067D02*
X81127580Y-63422305D01*
X81127580Y-63422305D02*
X81175200Y-63517543D01*
X81175200Y-63517543D02*
X81222819Y-63565162D01*
X81222819Y-63565162D02*
X81318057Y-63612781D01*
X81318057Y-63612781D02*
X81508533Y-63660400D01*
X81508533Y-63660400D02*
X81746628Y-63660400D01*
X81746628Y-63660400D02*
X81937104Y-63612781D01*
X81937104Y-63612781D02*
X82032342Y-63565162D01*
X82032342Y-63565162D02*
X82079961Y-63517543D01*
X82079961Y-63517543D02*
X82127580Y-63422305D01*
X82032342Y-62708019D02*
X82079961Y-62660400D01*
X82079961Y-62660400D02*
X82127580Y-62565162D01*
X82127580Y-62565162D02*
X82127580Y-62327067D01*
X82127580Y-62327067D02*
X82079961Y-62231829D01*
X82079961Y-62231829D02*
X82032342Y-62184210D01*
X82032342Y-62184210D02*
X81937104Y-62136591D01*
X81937104Y-62136591D02*
X81841866Y-62136591D01*
X81841866Y-62136591D02*
X81699009Y-62184210D01*
X81699009Y-62184210D02*
X81127580Y-62755638D01*
X81127580Y-62755638D02*
X81127580Y-62136591D01*
X81508533Y-61708019D02*
X81508533Y-60946115D01*
X82127580Y-60279448D02*
X82127580Y-60184210D01*
X82127580Y-60184210D02*
X82079961Y-60088972D01*
X82079961Y-60088972D02*
X82032342Y-60041353D01*
X82032342Y-60041353D02*
X81937104Y-59993734D01*
X81937104Y-59993734D02*
X81746628Y-59946115D01*
X81746628Y-59946115D02*
X81508533Y-59946115D01*
X81508533Y-59946115D02*
X81318057Y-59993734D01*
X81318057Y-59993734D02*
X81222819Y-60041353D01*
X81222819Y-60041353D02*
X81175200Y-60088972D01*
X81175200Y-60088972D02*
X81127580Y-60184210D01*
X81127580Y-60184210D02*
X81127580Y-60279448D01*
X81127580Y-60279448D02*
X81175200Y-60374686D01*
X81175200Y-60374686D02*
X81222819Y-60422305D01*
X81222819Y-60422305D02*
X81318057Y-60469924D01*
X81318057Y-60469924D02*
X81508533Y-60517543D01*
X81508533Y-60517543D02*
X81746628Y-60517543D01*
X81746628Y-60517543D02*
X81937104Y-60469924D01*
X81937104Y-60469924D02*
X82032342Y-60422305D01*
X82032342Y-60422305D02*
X82079961Y-60374686D01*
X82079961Y-60374686D02*
X82127580Y-60279448D01*
X82032342Y-59565162D02*
X82079961Y-59517543D01*
X82079961Y-59517543D02*
X82127580Y-59422305D01*
X82127580Y-59422305D02*
X82127580Y-59184210D01*
X82127580Y-59184210D02*
X82079961Y-59088972D01*
X82079961Y-59088972D02*
X82032342Y-59041353D01*
X82032342Y-59041353D02*
X81937104Y-58993734D01*
X81937104Y-58993734D02*
X81841866Y-58993734D01*
X81841866Y-58993734D02*
X81699009Y-59041353D01*
X81699009Y-59041353D02*
X81127580Y-59612781D01*
X81127580Y-59612781D02*
X81127580Y-58993734D01*
X80127580Y-73032672D02*
X79127580Y-72699339D01*
X79127580Y-72699339D02*
X80127580Y-72366006D01*
X79651390Y-72032672D02*
X79651390Y-71699339D01*
X79127580Y-71556482D02*
X79127580Y-72032672D01*
X79127580Y-72032672D02*
X80127580Y-72032672D01*
X80127580Y-72032672D02*
X80127580Y-71556482D01*
X79127580Y-70556482D02*
X79603771Y-70889815D01*
X79127580Y-71127910D02*
X80127580Y-71127910D01*
X80127580Y-71127910D02*
X80127580Y-70746958D01*
X80127580Y-70746958D02*
X80079961Y-70651720D01*
X80079961Y-70651720D02*
X80032342Y-70604101D01*
X80032342Y-70604101D02*
X79937104Y-70556482D01*
X79937104Y-70556482D02*
X79794247Y-70556482D01*
X79794247Y-70556482D02*
X79699009Y-70604101D01*
X79699009Y-70604101D02*
X79651390Y-70651720D01*
X79651390Y-70651720D02*
X79603771Y-70746958D01*
X79603771Y-70746958D02*
X79603771Y-71127910D01*
X79175200Y-70175529D02*
X79127580Y-70032672D01*
X79127580Y-70032672D02*
X79127580Y-69794577D01*
X79127580Y-69794577D02*
X79175200Y-69699339D01*
X79175200Y-69699339D02*
X79222819Y-69651720D01*
X79222819Y-69651720D02*
X79318057Y-69604101D01*
X79318057Y-69604101D02*
X79413295Y-69604101D01*
X79413295Y-69604101D02*
X79508533Y-69651720D01*
X79508533Y-69651720D02*
X79556152Y-69699339D01*
X79556152Y-69699339D02*
X79603771Y-69794577D01*
X79603771Y-69794577D02*
X79651390Y-69985053D01*
X79651390Y-69985053D02*
X79699009Y-70080291D01*
X79699009Y-70080291D02*
X79746628Y-70127910D01*
X79746628Y-70127910D02*
X79841866Y-70175529D01*
X79841866Y-70175529D02*
X79937104Y-70175529D01*
X79937104Y-70175529D02*
X80032342Y-70127910D01*
X80032342Y-70127910D02*
X80079961Y-70080291D01*
X80079961Y-70080291D02*
X80127580Y-69985053D01*
X80127580Y-69985053D02*
X80127580Y-69746958D01*
X80127580Y-69746958D02*
X80079961Y-69604101D01*
X79127580Y-69175529D02*
X80127580Y-69175529D01*
X80127580Y-68508863D02*
X80127580Y-68318387D01*
X80127580Y-68318387D02*
X80079961Y-68223149D01*
X80079961Y-68223149D02*
X79984723Y-68127911D01*
X79984723Y-68127911D02*
X79794247Y-68080292D01*
X79794247Y-68080292D02*
X79460914Y-68080292D01*
X79460914Y-68080292D02*
X79270438Y-68127911D01*
X79270438Y-68127911D02*
X79175200Y-68223149D01*
X79175200Y-68223149D02*
X79127580Y-68318387D01*
X79127580Y-68318387D02*
X79127580Y-68508863D01*
X79127580Y-68508863D02*
X79175200Y-68604101D01*
X79175200Y-68604101D02*
X79270438Y-68699339D01*
X79270438Y-68699339D02*
X79460914Y-68746958D01*
X79460914Y-68746958D02*
X79794247Y-68746958D01*
X79794247Y-68746958D02*
X79984723Y-68699339D01*
X79984723Y-68699339D02*
X80079961Y-68604101D01*
X80079961Y-68604101D02*
X80127580Y-68508863D01*
X79127580Y-67651720D02*
X80127580Y-67651720D01*
X80127580Y-67651720D02*
X79127580Y-67080292D01*
X79127580Y-67080292D02*
X80127580Y-67080292D01*
X80032342Y-65889815D02*
X80079961Y-65842196D01*
X80079961Y-65842196D02*
X80127580Y-65746958D01*
X80127580Y-65746958D02*
X80127580Y-65508863D01*
X80127580Y-65508863D02*
X80079961Y-65413625D01*
X80079961Y-65413625D02*
X80032342Y-65366006D01*
X80032342Y-65366006D02*
X79937104Y-65318387D01*
X79937104Y-65318387D02*
X79841866Y-65318387D01*
X79841866Y-65318387D02*
X79699009Y-65366006D01*
X79699009Y-65366006D02*
X79127580Y-65937434D01*
X79127580Y-65937434D02*
X79127580Y-65318387D01*
X79222819Y-64889815D02*
X79175200Y-64842196D01*
X79175200Y-64842196D02*
X79127580Y-64889815D01*
X79127580Y-64889815D02*
X79175200Y-64937434D01*
X79175200Y-64937434D02*
X79222819Y-64889815D01*
X79222819Y-64889815D02*
X79127580Y-64889815D01*
X80127580Y-64223149D02*
X80127580Y-64127911D01*
X80127580Y-64127911D02*
X80079961Y-64032673D01*
X80079961Y-64032673D02*
X80032342Y-63985054D01*
X80032342Y-63985054D02*
X79937104Y-63937435D01*
X79937104Y-63937435D02*
X79746628Y-63889816D01*
X79746628Y-63889816D02*
X79508533Y-63889816D01*
X79508533Y-63889816D02*
X79318057Y-63937435D01*
X79318057Y-63937435D02*
X79222819Y-63985054D01*
X79222819Y-63985054D02*
X79175200Y-64032673D01*
X79175200Y-64032673D02*
X79127580Y-64127911D01*
X79127580Y-64127911D02*
X79127580Y-64223149D01*
X79127580Y-64223149D02*
X79175200Y-64318387D01*
X79175200Y-64318387D02*
X79222819Y-64366006D01*
X79222819Y-64366006D02*
X79318057Y-64413625D01*
X79318057Y-64413625D02*
X79508533Y-64461244D01*
X79508533Y-64461244D02*
X79746628Y-64461244D01*
X79746628Y-64461244D02*
X79937104Y-64413625D01*
X79937104Y-64413625D02*
X80032342Y-64366006D01*
X80032342Y-64366006D02*
X80079961Y-64318387D01*
X80079961Y-64318387D02*
X80127580Y-64223149D01*
X79222819Y-63461244D02*
X79175200Y-63413625D01*
X79175200Y-63413625D02*
X79127580Y-63461244D01*
X79127580Y-63461244D02*
X79175200Y-63508863D01*
X79175200Y-63508863D02*
X79222819Y-63461244D01*
X79222819Y-63461244D02*
X79127580Y-63461244D01*
X80127580Y-62794578D02*
X80127580Y-62699340D01*
X80127580Y-62699340D02*
X80079961Y-62604102D01*
X80079961Y-62604102D02*
X80032342Y-62556483D01*
X80032342Y-62556483D02*
X79937104Y-62508864D01*
X79937104Y-62508864D02*
X79746628Y-62461245D01*
X79746628Y-62461245D02*
X79508533Y-62461245D01*
X79508533Y-62461245D02*
X79318057Y-62508864D01*
X79318057Y-62508864D02*
X79222819Y-62556483D01*
X79222819Y-62556483D02*
X79175200Y-62604102D01*
X79175200Y-62604102D02*
X79127580Y-62699340D01*
X79127580Y-62699340D02*
X79127580Y-62794578D01*
X79127580Y-62794578D02*
X79175200Y-62889816D01*
X79175200Y-62889816D02*
X79222819Y-62937435D01*
X79222819Y-62937435D02*
X79318057Y-62985054D01*
X79318057Y-62985054D02*
X79508533Y-63032673D01*
X79508533Y-63032673D02*
X79746628Y-63032673D01*
X79746628Y-63032673D02*
X79937104Y-62985054D01*
X79937104Y-62985054D02*
X80032342Y-62937435D01*
X80032342Y-62937435D02*
X80079961Y-62889816D01*
X80079961Y-62889816D02*
X80127580Y-62794578D01*
X84222819Y-72318387D02*
X84175200Y-72366006D01*
X84175200Y-72366006D02*
X84127580Y-72508863D01*
X84127580Y-72508863D02*
X84127580Y-72604101D01*
X84127580Y-72604101D02*
X84175200Y-72746958D01*
X84175200Y-72746958D02*
X84270438Y-72842196D01*
X84270438Y-72842196D02*
X84365676Y-72889815D01*
X84365676Y-72889815D02*
X84556152Y-72937434D01*
X84556152Y-72937434D02*
X84699009Y-72937434D01*
X84699009Y-72937434D02*
X84889485Y-72889815D01*
X84889485Y-72889815D02*
X84984723Y-72842196D01*
X84984723Y-72842196D02*
X85079961Y-72746958D01*
X85079961Y-72746958D02*
X85127580Y-72604101D01*
X85127580Y-72604101D02*
X85127580Y-72508863D01*
X85127580Y-72508863D02*
X85079961Y-72366006D01*
X85079961Y-72366006D02*
X85032342Y-72318387D01*
X85127580Y-71985053D02*
X85127580Y-71318387D01*
X85127580Y-71318387D02*
X84127580Y-71746958D01*
X85127580Y-70508863D02*
X85127580Y-70699339D01*
X85127580Y-70699339D02*
X85079961Y-70794577D01*
X85079961Y-70794577D02*
X85032342Y-70842196D01*
X85032342Y-70842196D02*
X84889485Y-70937434D01*
X84889485Y-70937434D02*
X84699009Y-70985053D01*
X84699009Y-70985053D02*
X84318057Y-70985053D01*
X84318057Y-70985053D02*
X84222819Y-70937434D01*
X84222819Y-70937434D02*
X84175200Y-70889815D01*
X84175200Y-70889815D02*
X84127580Y-70794577D01*
X84127580Y-70794577D02*
X84127580Y-70604101D01*
X84127580Y-70604101D02*
X84175200Y-70508863D01*
X84175200Y-70508863D02*
X84222819Y-70461244D01*
X84222819Y-70461244D02*
X84318057Y-70413625D01*
X84318057Y-70413625D02*
X84556152Y-70413625D01*
X84556152Y-70413625D02*
X84651390Y-70461244D01*
X84651390Y-70461244D02*
X84699009Y-70508863D01*
X84699009Y-70508863D02*
X84746628Y-70604101D01*
X84746628Y-70604101D02*
X84746628Y-70794577D01*
X84746628Y-70794577D02*
X84699009Y-70889815D01*
X84699009Y-70889815D02*
X84651390Y-70937434D01*
X84651390Y-70937434D02*
X84556152Y-70985053D01*
X84127580Y-69937434D02*
X84127580Y-69746958D01*
X84127580Y-69746958D02*
X84175200Y-69651720D01*
X84175200Y-69651720D02*
X84222819Y-69604101D01*
X84222819Y-69604101D02*
X84365676Y-69508863D01*
X84365676Y-69508863D02*
X84556152Y-69461244D01*
X84556152Y-69461244D02*
X84937104Y-69461244D01*
X84937104Y-69461244D02*
X85032342Y-69508863D01*
X85032342Y-69508863D02*
X85079961Y-69556482D01*
X85079961Y-69556482D02*
X85127580Y-69651720D01*
X85127580Y-69651720D02*
X85127580Y-69842196D01*
X85127580Y-69842196D02*
X85079961Y-69937434D01*
X85079961Y-69937434D02*
X85032342Y-69985053D01*
X85032342Y-69985053D02*
X84937104Y-70032672D01*
X84937104Y-70032672D02*
X84699009Y-70032672D01*
X84699009Y-70032672D02*
X84603771Y-69985053D01*
X84603771Y-69985053D02*
X84556152Y-69937434D01*
X84556152Y-69937434D02*
X84508533Y-69842196D01*
X84508533Y-69842196D02*
X84508533Y-69651720D01*
X84508533Y-69651720D02*
X84556152Y-69556482D01*
X84556152Y-69556482D02*
X84603771Y-69508863D01*
X84603771Y-69508863D02*
X84699009Y-69461244D01*
X84127580Y-68508863D02*
X84127580Y-69080291D01*
X84127580Y-68794577D02*
X85127580Y-68794577D01*
X85127580Y-68794577D02*
X84984723Y-68889815D01*
X84984723Y-68889815D02*
X84889485Y-68985053D01*
X84889485Y-68985053D02*
X84841866Y-69080291D01*
X84699009Y-67937434D02*
X84746628Y-68032672D01*
X84746628Y-68032672D02*
X84794247Y-68080291D01*
X84794247Y-68080291D02*
X84889485Y-68127910D01*
X84889485Y-68127910D02*
X84937104Y-68127910D01*
X84937104Y-68127910D02*
X85032342Y-68080291D01*
X85032342Y-68080291D02*
X85079961Y-68032672D01*
X85079961Y-68032672D02*
X85127580Y-67937434D01*
X85127580Y-67937434D02*
X85127580Y-67746958D01*
X85127580Y-67746958D02*
X85079961Y-67651720D01*
X85079961Y-67651720D02*
X85032342Y-67604101D01*
X85032342Y-67604101D02*
X84937104Y-67556482D01*
X84937104Y-67556482D02*
X84889485Y-67556482D01*
X84889485Y-67556482D02*
X84794247Y-67604101D01*
X84794247Y-67604101D02*
X84746628Y-67651720D01*
X84746628Y-67651720D02*
X84699009Y-67746958D01*
X84699009Y-67746958D02*
X84699009Y-67937434D01*
X84699009Y-67937434D02*
X84651390Y-68032672D01*
X84651390Y-68032672D02*
X84603771Y-68080291D01*
X84603771Y-68080291D02*
X84508533Y-68127910D01*
X84508533Y-68127910D02*
X84318057Y-68127910D01*
X84318057Y-68127910D02*
X84222819Y-68080291D01*
X84222819Y-68080291D02*
X84175200Y-68032672D01*
X84175200Y-68032672D02*
X84127580Y-67937434D01*
X84127580Y-67937434D02*
X84127580Y-67746958D01*
X84127580Y-67746958D02*
X84175200Y-67651720D01*
X84175200Y-67651720D02*
X84222819Y-67604101D01*
X84222819Y-67604101D02*
X84318057Y-67556482D01*
X84318057Y-67556482D02*
X84508533Y-67556482D01*
X84508533Y-67556482D02*
X84603771Y-67604101D01*
X84603771Y-67604101D02*
X84651390Y-67651720D01*
X84651390Y-67651720D02*
X84699009Y-67746958D01*
X85127580Y-66699339D02*
X85127580Y-66889815D01*
X85127580Y-66889815D02*
X85079961Y-66985053D01*
X85079961Y-66985053D02*
X85032342Y-67032672D01*
X85032342Y-67032672D02*
X84889485Y-67127910D01*
X84889485Y-67127910D02*
X84699009Y-67175529D01*
X84699009Y-67175529D02*
X84318057Y-67175529D01*
X84318057Y-67175529D02*
X84222819Y-67127910D01*
X84222819Y-67127910D02*
X84175200Y-67080291D01*
X84175200Y-67080291D02*
X84127580Y-66985053D01*
X84127580Y-66985053D02*
X84127580Y-66794577D01*
X84127580Y-66794577D02*
X84175200Y-66699339D01*
X84175200Y-66699339D02*
X84222819Y-66651720D01*
X84222819Y-66651720D02*
X84318057Y-66604101D01*
X84318057Y-66604101D02*
X84556152Y-66604101D01*
X84556152Y-66604101D02*
X84651390Y-66651720D01*
X84651390Y-66651720D02*
X84699009Y-66699339D01*
X84699009Y-66699339D02*
X84746628Y-66794577D01*
X84746628Y-66794577D02*
X84746628Y-66985053D01*
X84746628Y-66985053D02*
X84699009Y-67080291D01*
X84699009Y-67080291D02*
X84651390Y-67127910D01*
X84651390Y-67127910D02*
X84556152Y-67175529D01*
X84699009Y-66032672D02*
X84746628Y-66127910D01*
X84746628Y-66127910D02*
X84794247Y-66175529D01*
X84794247Y-66175529D02*
X84889485Y-66223148D01*
X84889485Y-66223148D02*
X84937104Y-66223148D01*
X84937104Y-66223148D02*
X85032342Y-66175529D01*
X85032342Y-66175529D02*
X85079961Y-66127910D01*
X85079961Y-66127910D02*
X85127580Y-66032672D01*
X85127580Y-66032672D02*
X85127580Y-65842196D01*
X85127580Y-65842196D02*
X85079961Y-65746958D01*
X85079961Y-65746958D02*
X85032342Y-65699339D01*
X85032342Y-65699339D02*
X84937104Y-65651720D01*
X84937104Y-65651720D02*
X84889485Y-65651720D01*
X84889485Y-65651720D02*
X84794247Y-65699339D01*
X84794247Y-65699339D02*
X84746628Y-65746958D01*
X84746628Y-65746958D02*
X84699009Y-65842196D01*
X84699009Y-65842196D02*
X84699009Y-66032672D01*
X84699009Y-66032672D02*
X84651390Y-66127910D01*
X84651390Y-66127910D02*
X84603771Y-66175529D01*
X84603771Y-66175529D02*
X84508533Y-66223148D01*
X84508533Y-66223148D02*
X84318057Y-66223148D01*
X84318057Y-66223148D02*
X84222819Y-66175529D01*
X84222819Y-66175529D02*
X84175200Y-66127910D01*
X84175200Y-66127910D02*
X84127580Y-66032672D01*
X84127580Y-66032672D02*
X84127580Y-65842196D01*
X84127580Y-65842196D02*
X84175200Y-65746958D01*
X84175200Y-65746958D02*
X84222819Y-65699339D01*
X84222819Y-65699339D02*
X84318057Y-65651720D01*
X84318057Y-65651720D02*
X84508533Y-65651720D01*
X84508533Y-65651720D02*
X84603771Y-65699339D01*
X84603771Y-65699339D02*
X84651390Y-65746958D01*
X84651390Y-65746958D02*
X84699009Y-65842196D01*
X84508533Y-65223148D02*
X84508533Y-64461244D01*
X85127580Y-64080291D02*
X85127580Y-63413625D01*
X85127580Y-63413625D02*
X84127580Y-63842196D01*
X84222819Y-62461244D02*
X84175200Y-62508863D01*
X84175200Y-62508863D02*
X84127580Y-62651720D01*
X84127580Y-62651720D02*
X84127580Y-62746958D01*
X84127580Y-62746958D02*
X84175200Y-62889815D01*
X84175200Y-62889815D02*
X84270438Y-62985053D01*
X84270438Y-62985053D02*
X84365676Y-63032672D01*
X84365676Y-63032672D02*
X84556152Y-63080291D01*
X84556152Y-63080291D02*
X84699009Y-63080291D01*
X84699009Y-63080291D02*
X84889485Y-63032672D01*
X84889485Y-63032672D02*
X84984723Y-62985053D01*
X84984723Y-62985053D02*
X85079961Y-62889815D01*
X85079961Y-62889815D02*
X85127580Y-62746958D01*
X85127580Y-62746958D02*
X85127580Y-62651720D01*
X85127580Y-62651720D02*
X85079961Y-62508863D01*
X85079961Y-62508863D02*
X85032342Y-62461244D01*
X84127580Y-61508863D02*
X84127580Y-62080291D01*
X84127580Y-61794577D02*
X85127580Y-61794577D01*
X85127580Y-61794577D02*
X84984723Y-61889815D01*
X84984723Y-61889815D02*
X84889485Y-61985053D01*
X84889485Y-61985053D02*
X84841866Y-62080291D01*
X85127580Y-60889815D02*
X85127580Y-60794577D01*
X85127580Y-60794577D02*
X85079961Y-60699339D01*
X85079961Y-60699339D02*
X85032342Y-60651720D01*
X85032342Y-60651720D02*
X84937104Y-60604101D01*
X84937104Y-60604101D02*
X84746628Y-60556482D01*
X84746628Y-60556482D02*
X84508533Y-60556482D01*
X84508533Y-60556482D02*
X84318057Y-60604101D01*
X84318057Y-60604101D02*
X84222819Y-60651720D01*
X84222819Y-60651720D02*
X84175200Y-60699339D01*
X84175200Y-60699339D02*
X84127580Y-60794577D01*
X84127580Y-60794577D02*
X84127580Y-60889815D01*
X84127580Y-60889815D02*
X84175200Y-60985053D01*
X84175200Y-60985053D02*
X84222819Y-61032672D01*
X84222819Y-61032672D02*
X84318057Y-61080291D01*
X84318057Y-61080291D02*
X84508533Y-61127910D01*
X84508533Y-61127910D02*
X84746628Y-61127910D01*
X84746628Y-61127910D02*
X84937104Y-61080291D01*
X84937104Y-61080291D02*
X85032342Y-61032672D01*
X85032342Y-61032672D02*
X85079961Y-60985053D01*
X85079961Y-60985053D02*
X85127580Y-60889815D01*
X84508533Y-60127910D02*
X84508533Y-59366006D01*
X84794247Y-58461244D02*
X84127580Y-58461244D01*
X85175200Y-58699339D02*
X84460914Y-58937434D01*
X84460914Y-58937434D02*
X84460914Y-58318387D01*
X85127580Y-57461244D02*
X85127580Y-57937434D01*
X85127580Y-57937434D02*
X84651390Y-57985053D01*
X84651390Y-57985053D02*
X84699009Y-57937434D01*
X84699009Y-57937434D02*
X84746628Y-57842196D01*
X84746628Y-57842196D02*
X84746628Y-57604101D01*
X84746628Y-57604101D02*
X84699009Y-57508863D01*
X84699009Y-57508863D02*
X84651390Y-57461244D01*
X84651390Y-57461244D02*
X84556152Y-57413625D01*
X84556152Y-57413625D02*
X84318057Y-57413625D01*
X84318057Y-57413625D02*
X84222819Y-57461244D01*
X84222819Y-57461244D02*
X84175200Y-57508863D01*
X84175200Y-57508863D02*
X84127580Y-57604101D01*
X84127580Y-57604101D02*
X84127580Y-57842196D01*
X84127580Y-57842196D02*
X84175200Y-57937434D01*
X84175200Y-57937434D02*
X84222819Y-57985053D01*
X84222819Y-56413625D02*
X84175200Y-56461244D01*
X84175200Y-56461244D02*
X84127580Y-56604101D01*
X84127580Y-56604101D02*
X84127580Y-56699339D01*
X84127580Y-56699339D02*
X84175200Y-56842196D01*
X84175200Y-56842196D02*
X84270438Y-56937434D01*
X84270438Y-56937434D02*
X84365676Y-56985053D01*
X84365676Y-56985053D02*
X84556152Y-57032672D01*
X84556152Y-57032672D02*
X84699009Y-57032672D01*
X84699009Y-57032672D02*
X84889485Y-56985053D01*
X84889485Y-56985053D02*
X84984723Y-56937434D01*
X84984723Y-56937434D02*
X85079961Y-56842196D01*
X85079961Y-56842196D02*
X85127580Y-56699339D01*
X85127580Y-56699339D02*
X85127580Y-56604101D01*
X85127580Y-56604101D02*
X85079961Y-56461244D01*
X85079961Y-56461244D02*
X85032342Y-56413625D01*
X84413295Y-56032672D02*
X84413295Y-55556482D01*
X84127580Y-56127910D02*
X85127580Y-55794577D01*
X85127580Y-55794577D02*
X84127580Y-55461244D01*
X84508533Y-55127910D02*
X84508533Y-54366006D01*
X84127580Y-53842196D02*
X84127580Y-53651720D01*
X84127580Y-53651720D02*
X84175200Y-53556482D01*
X84175200Y-53556482D02*
X84222819Y-53508863D01*
X84222819Y-53508863D02*
X84365676Y-53413625D01*
X84365676Y-53413625D02*
X84556152Y-53366006D01*
X84556152Y-53366006D02*
X84937104Y-53366006D01*
X84937104Y-53366006D02*
X85032342Y-53413625D01*
X85032342Y-53413625D02*
X85079961Y-53461244D01*
X85079961Y-53461244D02*
X85127580Y-53556482D01*
X85127580Y-53556482D02*
X85127580Y-53746958D01*
X85127580Y-53746958D02*
X85079961Y-53842196D01*
X85079961Y-53842196D02*
X85032342Y-53889815D01*
X85032342Y-53889815D02*
X84937104Y-53937434D01*
X84937104Y-53937434D02*
X84699009Y-53937434D01*
X84699009Y-53937434D02*
X84603771Y-53889815D01*
X84603771Y-53889815D02*
X84556152Y-53842196D01*
X84556152Y-53842196D02*
X84508533Y-53746958D01*
X84508533Y-53746958D02*
X84508533Y-53556482D01*
X84508533Y-53556482D02*
X84556152Y-53461244D01*
X84556152Y-53461244D02*
X84603771Y-53413625D01*
X84603771Y-53413625D02*
X84699009Y-53366006D01*
X85127580Y-52746958D02*
X85127580Y-52651720D01*
X85127580Y-52651720D02*
X85079961Y-52556482D01*
X85079961Y-52556482D02*
X85032342Y-52508863D01*
X85032342Y-52508863D02*
X84937104Y-52461244D01*
X84937104Y-52461244D02*
X84746628Y-52413625D01*
X84746628Y-52413625D02*
X84508533Y-52413625D01*
X84508533Y-52413625D02*
X84318057Y-52461244D01*
X84318057Y-52461244D02*
X84222819Y-52508863D01*
X84222819Y-52508863D02*
X84175200Y-52556482D01*
X84175200Y-52556482D02*
X84127580Y-52651720D01*
X84127580Y-52651720D02*
X84127580Y-52746958D01*
X84127580Y-52746958D02*
X84175200Y-52842196D01*
X84175200Y-52842196D02*
X84222819Y-52889815D01*
X84222819Y-52889815D02*
X84318057Y-52937434D01*
X84318057Y-52937434D02*
X84508533Y-52985053D01*
X84508533Y-52985053D02*
X84746628Y-52985053D01*
X84746628Y-52985053D02*
X84937104Y-52937434D01*
X84937104Y-52937434D02*
X85032342Y-52889815D01*
X85032342Y-52889815D02*
X85079961Y-52842196D01*
X85079961Y-52842196D02*
X85127580Y-52746958D01*
X85127580Y-51794577D02*
X85127580Y-51699339D01*
X85127580Y-51699339D02*
X85079961Y-51604101D01*
X85079961Y-51604101D02*
X85032342Y-51556482D01*
X85032342Y-51556482D02*
X84937104Y-51508863D01*
X84937104Y-51508863D02*
X84746628Y-51461244D01*
X84746628Y-51461244D02*
X84508533Y-51461244D01*
X84508533Y-51461244D02*
X84318057Y-51508863D01*
X84318057Y-51508863D02*
X84222819Y-51556482D01*
X84222819Y-51556482D02*
X84175200Y-51604101D01*
X84175200Y-51604101D02*
X84127580Y-51699339D01*
X84127580Y-51699339D02*
X84127580Y-51794577D01*
X84127580Y-51794577D02*
X84175200Y-51889815D01*
X84175200Y-51889815D02*
X84222819Y-51937434D01*
X84222819Y-51937434D02*
X84318057Y-51985053D01*
X84318057Y-51985053D02*
X84508533Y-52032672D01*
X84508533Y-52032672D02*
X84746628Y-52032672D01*
X84746628Y-52032672D02*
X84937104Y-51985053D01*
X84937104Y-51985053D02*
X85032342Y-51937434D01*
X85032342Y-51937434D02*
X85079961Y-51889815D01*
X85079961Y-51889815D02*
X85127580Y-51794577D01*
X84651390Y-50699339D02*
X84603771Y-50556482D01*
X84603771Y-50556482D02*
X84556152Y-50508863D01*
X84556152Y-50508863D02*
X84460914Y-50461244D01*
X84460914Y-50461244D02*
X84318057Y-50461244D01*
X84318057Y-50461244D02*
X84222819Y-50508863D01*
X84222819Y-50508863D02*
X84175200Y-50556482D01*
X84175200Y-50556482D02*
X84127580Y-50651720D01*
X84127580Y-50651720D02*
X84127580Y-51032672D01*
X84127580Y-51032672D02*
X85127580Y-51032672D01*
X85127580Y-51032672D02*
X85127580Y-50699339D01*
X85127580Y-50699339D02*
X85079961Y-50604101D01*
X85079961Y-50604101D02*
X85032342Y-50556482D01*
X85032342Y-50556482D02*
X84937104Y-50508863D01*
X84937104Y-50508863D02*
X84841866Y-50508863D01*
X84841866Y-50508863D02*
X84746628Y-50556482D01*
X84746628Y-50556482D02*
X84699009Y-50604101D01*
X84699009Y-50604101D02*
X84651390Y-50699339D01*
X84651390Y-50699339D02*
X84651390Y-51032672D01*
X84508533Y-50032672D02*
X84508533Y-49270768D01*
X84127580Y-48794577D02*
X85127580Y-48794577D01*
X85127580Y-48794577D02*
X85127580Y-48556482D01*
X85127580Y-48556482D02*
X85079961Y-48413625D01*
X85079961Y-48413625D02*
X84984723Y-48318387D01*
X84984723Y-48318387D02*
X84889485Y-48270768D01*
X84889485Y-48270768D02*
X84699009Y-48223149D01*
X84699009Y-48223149D02*
X84556152Y-48223149D01*
X84556152Y-48223149D02*
X84365676Y-48270768D01*
X84365676Y-48270768D02*
X84270438Y-48318387D01*
X84270438Y-48318387D02*
X84175200Y-48413625D01*
X84175200Y-48413625D02*
X84127580Y-48556482D01*
X84127580Y-48556482D02*
X84127580Y-48794577D01*
X85127580Y-47889815D02*
X85127580Y-47270768D01*
X85127580Y-47270768D02*
X84746628Y-47604101D01*
X84746628Y-47604101D02*
X84746628Y-47461244D01*
X84746628Y-47461244D02*
X84699009Y-47366006D01*
X84699009Y-47366006D02*
X84651390Y-47318387D01*
X84651390Y-47318387D02*
X84556152Y-47270768D01*
X84556152Y-47270768D02*
X84318057Y-47270768D01*
X84318057Y-47270768D02*
X84222819Y-47318387D01*
X84222819Y-47318387D02*
X84175200Y-47366006D01*
X84175200Y-47366006D02*
X84127580Y-47461244D01*
X84127580Y-47461244D02*
X84127580Y-47746958D01*
X84127580Y-47746958D02*
X84175200Y-47842196D01*
X84175200Y-47842196D02*
X84222819Y-47889815D01*
X84651390Y-46508863D02*
X84651390Y-46842196D01*
X84127580Y-46842196D02*
X85127580Y-46842196D01*
X85127580Y-46842196D02*
X85127580Y-46366006D01*
X84794247Y-45556482D02*
X84127580Y-45556482D01*
X85175200Y-45794577D02*
X84460914Y-46032672D01*
X84460914Y-46032672D02*
X84460914Y-45413625D01*
X84127580Y-44985053D02*
X84127580Y-44794577D01*
X84127580Y-44794577D02*
X84175200Y-44699339D01*
X84175200Y-44699339D02*
X84222819Y-44651720D01*
X84222819Y-44651720D02*
X84365676Y-44556482D01*
X84365676Y-44556482D02*
X84556152Y-44508863D01*
X84556152Y-44508863D02*
X84937104Y-44508863D01*
X84937104Y-44508863D02*
X85032342Y-44556482D01*
X85032342Y-44556482D02*
X85079961Y-44604101D01*
X85079961Y-44604101D02*
X85127580Y-44699339D01*
X85127580Y-44699339D02*
X85127580Y-44889815D01*
X85127580Y-44889815D02*
X85079961Y-44985053D01*
X85079961Y-44985053D02*
X85032342Y-45032672D01*
X85032342Y-45032672D02*
X84937104Y-45080291D01*
X84937104Y-45080291D02*
X84699009Y-45080291D01*
X84699009Y-45080291D02*
X84603771Y-45032672D01*
X84603771Y-45032672D02*
X84556152Y-44985053D01*
X84556152Y-44985053D02*
X84508533Y-44889815D01*
X84508533Y-44889815D02*
X84508533Y-44699339D01*
X84508533Y-44699339D02*
X84556152Y-44604101D01*
X84556152Y-44604101D02*
X84603771Y-44556482D01*
X84603771Y-44556482D02*
X84699009Y-44508863D01*
X84651390Y-44080291D02*
X84651390Y-43746958D01*
X84127580Y-43604101D02*
X84127580Y-44080291D01*
X84127580Y-44080291D02*
X85127580Y-44080291D01*
X85127580Y-44080291D02*
X85127580Y-43604101D01*
X84222819Y-42604101D02*
X84175200Y-42651720D01*
X84175200Y-42651720D02*
X84127580Y-42794577D01*
X84127580Y-42794577D02*
X84127580Y-42889815D01*
X84127580Y-42889815D02*
X84175200Y-43032672D01*
X84175200Y-43032672D02*
X84270438Y-43127910D01*
X84270438Y-43127910D02*
X84365676Y-43175529D01*
X84365676Y-43175529D02*
X84556152Y-43223148D01*
X84556152Y-43223148D02*
X84699009Y-43223148D01*
X84699009Y-43223148D02*
X84889485Y-43175529D01*
X84889485Y-43175529D02*
X84984723Y-43127910D01*
X84984723Y-43127910D02*
X85079961Y-43032672D01*
X85079961Y-43032672D02*
X85127580Y-42889815D01*
X85127580Y-42889815D02*
X85127580Y-42794577D01*
X85127580Y-42794577D02*
X85079961Y-42651720D01*
X85079961Y-42651720D02*
X85032342Y-42604101D01*
X84413295Y-42223148D02*
X84413295Y-41746958D01*
X84127580Y-42318386D02*
X85127580Y-41985053D01*
X85127580Y-41985053D02*
X84127580Y-41651720D01*
X85127580Y-40842196D02*
X85127580Y-41318386D01*
X85127580Y-41318386D02*
X84651390Y-41366005D01*
X84651390Y-41366005D02*
X84699009Y-41318386D01*
X84699009Y-41318386D02*
X84746628Y-41223148D01*
X84746628Y-41223148D02*
X84746628Y-40985053D01*
X84746628Y-40985053D02*
X84699009Y-40889815D01*
X84699009Y-40889815D02*
X84651390Y-40842196D01*
X84651390Y-40842196D02*
X84556152Y-40794577D01*
X84556152Y-40794577D02*
X84318057Y-40794577D01*
X84318057Y-40794577D02*
X84222819Y-40842196D01*
X84222819Y-40842196D02*
X84175200Y-40889815D01*
X84175200Y-40889815D02*
X84127580Y-40985053D01*
X84127580Y-40985053D02*
X84127580Y-41223148D01*
X84127580Y-41223148D02*
X84175200Y-41318386D01*
X84175200Y-41318386D02*
X84222819Y-41366005D01*
X84413295Y-40413624D02*
X84413295Y-39937434D01*
X84127580Y-40508862D02*
X85127580Y-40175529D01*
X85127580Y-40175529D02*
X84127580Y-39842196D01*
X84127580Y-39508862D02*
X85127580Y-39508862D01*
X85127580Y-39508862D02*
X85127580Y-39270767D01*
X85127580Y-39270767D02*
X85079961Y-39127910D01*
X85079961Y-39127910D02*
X84984723Y-39032672D01*
X84984723Y-39032672D02*
X84889485Y-38985053D01*
X84889485Y-38985053D02*
X84699009Y-38937434D01*
X84699009Y-38937434D02*
X84556152Y-38937434D01*
X84556152Y-38937434D02*
X84365676Y-38985053D01*
X84365676Y-38985053D02*
X84270438Y-39032672D01*
X84270438Y-39032672D02*
X84175200Y-39127910D01*
X84175200Y-39127910D02*
X84127580Y-39270767D01*
X84127580Y-39270767D02*
X84127580Y-39508862D01*
X84794247Y-38080291D02*
X84127580Y-38080291D01*
X85175200Y-38318386D02*
X84460914Y-38556481D01*
X84460914Y-38556481D02*
X84460914Y-37937434D01*
X86222819Y-72318387D02*
X86175200Y-72366006D01*
X86175200Y-72366006D02*
X86127580Y-72508863D01*
X86127580Y-72508863D02*
X86127580Y-72604101D01*
X86127580Y-72604101D02*
X86175200Y-72746958D01*
X86175200Y-72746958D02*
X86270438Y-72842196D01*
X86270438Y-72842196D02*
X86365676Y-72889815D01*
X86365676Y-72889815D02*
X86556152Y-72937434D01*
X86556152Y-72937434D02*
X86699009Y-72937434D01*
X86699009Y-72937434D02*
X86889485Y-72889815D01*
X86889485Y-72889815D02*
X86984723Y-72842196D01*
X86984723Y-72842196D02*
X87079961Y-72746958D01*
X87079961Y-72746958D02*
X87127580Y-72604101D01*
X87127580Y-72604101D02*
X87127580Y-72508863D01*
X87127580Y-72508863D02*
X87079961Y-72366006D01*
X87079961Y-72366006D02*
X87032342Y-72318387D01*
X87127580Y-71699339D02*
X87127580Y-71508863D01*
X87127580Y-71508863D02*
X87079961Y-71413625D01*
X87079961Y-71413625D02*
X86984723Y-71318387D01*
X86984723Y-71318387D02*
X86794247Y-71270768D01*
X86794247Y-71270768D02*
X86460914Y-71270768D01*
X86460914Y-71270768D02*
X86270438Y-71318387D01*
X86270438Y-71318387D02*
X86175200Y-71413625D01*
X86175200Y-71413625D02*
X86127580Y-71508863D01*
X86127580Y-71508863D02*
X86127580Y-71699339D01*
X86127580Y-71699339D02*
X86175200Y-71794577D01*
X86175200Y-71794577D02*
X86270438Y-71889815D01*
X86270438Y-71889815D02*
X86460914Y-71937434D01*
X86460914Y-71937434D02*
X86794247Y-71937434D01*
X86794247Y-71937434D02*
X86984723Y-71889815D01*
X86984723Y-71889815D02*
X87079961Y-71794577D01*
X87079961Y-71794577D02*
X87127580Y-71699339D01*
X86127580Y-70842196D02*
X87127580Y-70842196D01*
X87127580Y-70842196D02*
X86413295Y-70508863D01*
X86413295Y-70508863D02*
X87127580Y-70175530D01*
X87127580Y-70175530D02*
X86127580Y-70175530D01*
X86222819Y-69699339D02*
X86175200Y-69651720D01*
X86175200Y-69651720D02*
X86127580Y-69699339D01*
X86127580Y-69699339D02*
X86175200Y-69746958D01*
X86175200Y-69746958D02*
X86222819Y-69699339D01*
X86222819Y-69699339D02*
X86127580Y-69699339D01*
X86127580Y-69223149D02*
X87127580Y-69223149D01*
X87127580Y-68556483D02*
X87127580Y-68366007D01*
X87127580Y-68366007D02*
X87079961Y-68270769D01*
X87079961Y-68270769D02*
X86984723Y-68175531D01*
X86984723Y-68175531D02*
X86794247Y-68127912D01*
X86794247Y-68127912D02*
X86460914Y-68127912D01*
X86460914Y-68127912D02*
X86270438Y-68175531D01*
X86270438Y-68175531D02*
X86175200Y-68270769D01*
X86175200Y-68270769D02*
X86127580Y-68366007D01*
X86127580Y-68366007D02*
X86127580Y-68556483D01*
X86127580Y-68556483D02*
X86175200Y-68651721D01*
X86175200Y-68651721D02*
X86270438Y-68746959D01*
X86270438Y-68746959D02*
X86460914Y-68794578D01*
X86460914Y-68794578D02*
X86794247Y-68794578D01*
X86794247Y-68794578D02*
X86984723Y-68746959D01*
X86984723Y-68746959D02*
X87079961Y-68651721D01*
X87079961Y-68651721D02*
X87127580Y-68556483D01*
X87127580Y-67794578D02*
X87127580Y-67127912D01*
X87127580Y-67127912D02*
X86127580Y-67556483D01*
X86127580Y-66746959D02*
X87127580Y-66746959D01*
X87127580Y-66746959D02*
X86413295Y-66413626D01*
X86413295Y-66413626D02*
X87127580Y-66080293D01*
X87127580Y-66080293D02*
X86127580Y-66080293D01*
X86222819Y-65604102D02*
X86175200Y-65556483D01*
X86175200Y-65556483D02*
X86127580Y-65604102D01*
X86127580Y-65604102D02*
X86175200Y-65651721D01*
X86175200Y-65651721D02*
X86222819Y-65604102D01*
X86222819Y-65604102D02*
X86127580Y-65604102D01*
X86222819Y-64556484D02*
X86175200Y-64604103D01*
X86175200Y-64604103D02*
X86127580Y-64746960D01*
X86127580Y-64746960D02*
X86127580Y-64842198D01*
X86127580Y-64842198D02*
X86175200Y-64985055D01*
X86175200Y-64985055D02*
X86270438Y-65080293D01*
X86270438Y-65080293D02*
X86365676Y-65127912D01*
X86365676Y-65127912D02*
X86556152Y-65175531D01*
X86556152Y-65175531D02*
X86699009Y-65175531D01*
X86699009Y-65175531D02*
X86889485Y-65127912D01*
X86889485Y-65127912D02*
X86984723Y-65080293D01*
X86984723Y-65080293D02*
X87079961Y-64985055D01*
X87079961Y-64985055D02*
X87127580Y-64842198D01*
X87127580Y-64842198D02*
X87127580Y-64746960D01*
X87127580Y-64746960D02*
X87079961Y-64604103D01*
X87079961Y-64604103D02*
X87032342Y-64556484D01*
X87127580Y-63937436D02*
X87127580Y-63746960D01*
X87127580Y-63746960D02*
X87079961Y-63651722D01*
X87079961Y-63651722D02*
X86984723Y-63556484D01*
X86984723Y-63556484D02*
X86794247Y-63508865D01*
X86794247Y-63508865D02*
X86460914Y-63508865D01*
X86460914Y-63508865D02*
X86270438Y-63556484D01*
X86270438Y-63556484D02*
X86175200Y-63651722D01*
X86175200Y-63651722D02*
X86127580Y-63746960D01*
X86127580Y-63746960D02*
X86127580Y-63937436D01*
X86127580Y-63937436D02*
X86175200Y-64032674D01*
X86175200Y-64032674D02*
X86270438Y-64127912D01*
X86270438Y-64127912D02*
X86460914Y-64175531D01*
X86460914Y-64175531D02*
X86794247Y-64175531D01*
X86794247Y-64175531D02*
X86984723Y-64127912D01*
X86984723Y-64127912D02*
X87079961Y-64032674D01*
X87079961Y-64032674D02*
X87127580Y-63937436D01*
X86127580Y-63080293D02*
X87127580Y-63080293D01*
X87127580Y-63080293D02*
X86127580Y-62508865D01*
X86127580Y-62508865D02*
X87127580Y-62508865D01*
X86175200Y-62080293D02*
X86127580Y-61937436D01*
X86127580Y-61937436D02*
X86127580Y-61699341D01*
X86127580Y-61699341D02*
X86175200Y-61604103D01*
X86175200Y-61604103D02*
X86222819Y-61556484D01*
X86222819Y-61556484D02*
X86318057Y-61508865D01*
X86318057Y-61508865D02*
X86413295Y-61508865D01*
X86413295Y-61508865D02*
X86508533Y-61556484D01*
X86508533Y-61556484D02*
X86556152Y-61604103D01*
X86556152Y-61604103D02*
X86603771Y-61699341D01*
X86603771Y-61699341D02*
X86651390Y-61889817D01*
X86651390Y-61889817D02*
X86699009Y-61985055D01*
X86699009Y-61985055D02*
X86746628Y-62032674D01*
X86746628Y-62032674D02*
X86841866Y-62080293D01*
X86841866Y-62080293D02*
X86937104Y-62080293D01*
X86937104Y-62080293D02*
X87032342Y-62032674D01*
X87032342Y-62032674D02*
X87079961Y-61985055D01*
X87079961Y-61985055D02*
X87127580Y-61889817D01*
X87127580Y-61889817D02*
X87127580Y-61651722D01*
X87127580Y-61651722D02*
X87079961Y-61508865D01*
X87127580Y-61223150D02*
X87127580Y-60651722D01*
X86127580Y-60937436D02*
X87127580Y-60937436D01*
X86127580Y-59746960D02*
X86603771Y-60080293D01*
X86127580Y-60318388D02*
X87127580Y-60318388D01*
X87127580Y-60318388D02*
X87127580Y-59937436D01*
X87127580Y-59937436D02*
X87079961Y-59842198D01*
X87079961Y-59842198D02*
X87032342Y-59794579D01*
X87032342Y-59794579D02*
X86937104Y-59746960D01*
X86937104Y-59746960D02*
X86794247Y-59746960D01*
X86794247Y-59746960D02*
X86699009Y-59794579D01*
X86699009Y-59794579D02*
X86651390Y-59842198D01*
X86651390Y-59842198D02*
X86603771Y-59937436D01*
X86603771Y-59937436D02*
X86603771Y-60318388D01*
X87127580Y-59318388D02*
X86318057Y-59318388D01*
X86318057Y-59318388D02*
X86222819Y-59270769D01*
X86222819Y-59270769D02*
X86175200Y-59223150D01*
X86175200Y-59223150D02*
X86127580Y-59127912D01*
X86127580Y-59127912D02*
X86127580Y-58937436D01*
X86127580Y-58937436D02*
X86175200Y-58842198D01*
X86175200Y-58842198D02*
X86222819Y-58794579D01*
X86222819Y-58794579D02*
X86318057Y-58746960D01*
X86318057Y-58746960D02*
X87127580Y-58746960D01*
X86222819Y-57699341D02*
X86175200Y-57746960D01*
X86175200Y-57746960D02*
X86127580Y-57889817D01*
X86127580Y-57889817D02*
X86127580Y-57985055D01*
X86127580Y-57985055D02*
X86175200Y-58127912D01*
X86175200Y-58127912D02*
X86270438Y-58223150D01*
X86270438Y-58223150D02*
X86365676Y-58270769D01*
X86365676Y-58270769D02*
X86556152Y-58318388D01*
X86556152Y-58318388D02*
X86699009Y-58318388D01*
X86699009Y-58318388D02*
X86889485Y-58270769D01*
X86889485Y-58270769D02*
X86984723Y-58223150D01*
X86984723Y-58223150D02*
X87079961Y-58127912D01*
X87079961Y-58127912D02*
X87127580Y-57985055D01*
X87127580Y-57985055D02*
X87127580Y-57889817D01*
X87127580Y-57889817D02*
X87079961Y-57746960D01*
X87079961Y-57746960D02*
X87032342Y-57699341D01*
X87127580Y-57413626D02*
X87127580Y-56842198D01*
X86127580Y-57127912D02*
X87127580Y-57127912D01*
X86127580Y-56508864D02*
X87127580Y-56508864D01*
X87127580Y-55842198D02*
X87127580Y-55651722D01*
X87127580Y-55651722D02*
X87079961Y-55556484D01*
X87079961Y-55556484D02*
X86984723Y-55461246D01*
X86984723Y-55461246D02*
X86794247Y-55413627D01*
X86794247Y-55413627D02*
X86460914Y-55413627D01*
X86460914Y-55413627D02*
X86270438Y-55461246D01*
X86270438Y-55461246D02*
X86175200Y-55556484D01*
X86175200Y-55556484D02*
X86127580Y-55651722D01*
X86127580Y-55651722D02*
X86127580Y-55842198D01*
X86127580Y-55842198D02*
X86175200Y-55937436D01*
X86175200Y-55937436D02*
X86270438Y-56032674D01*
X86270438Y-56032674D02*
X86460914Y-56080293D01*
X86460914Y-56080293D02*
X86794247Y-56080293D01*
X86794247Y-56080293D02*
X86984723Y-56032674D01*
X86984723Y-56032674D02*
X87079961Y-55937436D01*
X87079961Y-55937436D02*
X87127580Y-55842198D01*
X86127580Y-54985055D02*
X87127580Y-54985055D01*
X87127580Y-54985055D02*
X86127580Y-54413627D01*
X86127580Y-54413627D02*
X87127580Y-54413627D01*
X86222819Y-53937436D02*
X86175200Y-53889817D01*
X86175200Y-53889817D02*
X86127580Y-53937436D01*
X86127580Y-53937436D02*
X86175200Y-53985055D01*
X86175200Y-53985055D02*
X86222819Y-53937436D01*
X86222819Y-53937436D02*
X86127580Y-53937436D01*
X87079961Y-52937437D02*
X87127580Y-53032675D01*
X87127580Y-53032675D02*
X87127580Y-53175532D01*
X87127580Y-53175532D02*
X87079961Y-53318389D01*
X87079961Y-53318389D02*
X86984723Y-53413627D01*
X86984723Y-53413627D02*
X86889485Y-53461246D01*
X86889485Y-53461246D02*
X86699009Y-53508865D01*
X86699009Y-53508865D02*
X86556152Y-53508865D01*
X86556152Y-53508865D02*
X86365676Y-53461246D01*
X86365676Y-53461246D02*
X86270438Y-53413627D01*
X86270438Y-53413627D02*
X86175200Y-53318389D01*
X86175200Y-53318389D02*
X86127580Y-53175532D01*
X86127580Y-53175532D02*
X86127580Y-53080294D01*
X86127580Y-53080294D02*
X86175200Y-52937437D01*
X86175200Y-52937437D02*
X86222819Y-52889818D01*
X86222819Y-52889818D02*
X86556152Y-52889818D01*
X86556152Y-52889818D02*
X86556152Y-53080294D01*
X87127580Y-52461246D02*
X86318057Y-52461246D01*
X86318057Y-52461246D02*
X86222819Y-52413627D01*
X86222819Y-52413627D02*
X86175200Y-52366008D01*
X86175200Y-52366008D02*
X86127580Y-52270770D01*
X86127580Y-52270770D02*
X86127580Y-52080294D01*
X86127580Y-52080294D02*
X86175200Y-51985056D01*
X86175200Y-51985056D02*
X86222819Y-51937437D01*
X86222819Y-51937437D02*
X86318057Y-51889818D01*
X86318057Y-51889818D02*
X87127580Y-51889818D01*
X86127580Y-51413627D02*
X87127580Y-51413627D01*
X87127580Y-51080294D02*
X87127580Y-50508866D01*
X86127580Y-50794580D02*
X87127580Y-50794580D01*
X86413295Y-50223151D02*
X86413295Y-49746961D01*
X86127580Y-50318389D02*
X87127580Y-49985056D01*
X87127580Y-49985056D02*
X86127580Y-49651723D01*
X86127580Y-48746961D02*
X86603771Y-49080294D01*
X86127580Y-49318389D02*
X87127580Y-49318389D01*
X87127580Y-49318389D02*
X87127580Y-48937437D01*
X87127580Y-48937437D02*
X87079961Y-48842199D01*
X87079961Y-48842199D02*
X87032342Y-48794580D01*
X87032342Y-48794580D02*
X86937104Y-48746961D01*
X86937104Y-48746961D02*
X86794247Y-48746961D01*
X86794247Y-48746961D02*
X86699009Y-48794580D01*
X86699009Y-48794580D02*
X86651390Y-48842199D01*
X86651390Y-48842199D02*
X86603771Y-48937437D01*
X86603771Y-48937437D02*
X86603771Y-49318389D01*
X86222819Y-48318389D02*
X86175200Y-48270770D01*
X86175200Y-48270770D02*
X86127580Y-48318389D01*
X86127580Y-48318389D02*
X86175200Y-48366008D01*
X86175200Y-48366008D02*
X86222819Y-48318389D01*
X86222819Y-48318389D02*
X86127580Y-48318389D01*
X86127580Y-47842199D02*
X87127580Y-47842199D01*
X86651390Y-47842199D02*
X86651390Y-47270771D01*
X86127580Y-47270771D02*
X87127580Y-47270771D01*
X86127580Y-46794580D02*
X87127580Y-46794580D01*
X86651390Y-46794580D02*
X86651390Y-46223152D01*
X86127580Y-46223152D02*
X87127580Y-46223152D01*
X86032342Y-45985057D02*
X86032342Y-45223152D01*
X87127580Y-45127913D02*
X86127580Y-44794580D01*
X86127580Y-44794580D02*
X87127580Y-44461247D01*
X87127580Y-43937437D02*
X87127580Y-43746961D01*
X87127580Y-43746961D02*
X87079961Y-43651723D01*
X87079961Y-43651723D02*
X86984723Y-43556485D01*
X86984723Y-43556485D02*
X86794247Y-43508866D01*
X86794247Y-43508866D02*
X86460914Y-43508866D01*
X86460914Y-43508866D02*
X86270438Y-43556485D01*
X86270438Y-43556485D02*
X86175200Y-43651723D01*
X86175200Y-43651723D02*
X86127580Y-43746961D01*
X86127580Y-43746961D02*
X86127580Y-43937437D01*
X86127580Y-43937437D02*
X86175200Y-44032675D01*
X86175200Y-44032675D02*
X86270438Y-44127913D01*
X86270438Y-44127913D02*
X86460914Y-44175532D01*
X86460914Y-44175532D02*
X86794247Y-44175532D01*
X86794247Y-44175532D02*
X86984723Y-44127913D01*
X86984723Y-44127913D02*
X87079961Y-44032675D01*
X87079961Y-44032675D02*
X87127580Y-43937437D01*
X86127580Y-42604104D02*
X86127580Y-43080294D01*
X86127580Y-43080294D02*
X87127580Y-43080294D01*
X86032342Y-42508866D02*
X86032342Y-41746961D01*
X86127580Y-41508865D02*
X87127580Y-41508865D01*
X87127580Y-41508865D02*
X87127580Y-41127913D01*
X87127580Y-41127913D02*
X87079961Y-41032675D01*
X87079961Y-41032675D02*
X87032342Y-40985056D01*
X87032342Y-40985056D02*
X86937104Y-40937437D01*
X86937104Y-40937437D02*
X86794247Y-40937437D01*
X86794247Y-40937437D02*
X86699009Y-40985056D01*
X86699009Y-40985056D02*
X86651390Y-41032675D01*
X86651390Y-41032675D02*
X86603771Y-41127913D01*
X86603771Y-41127913D02*
X86603771Y-41508865D01*
X86222819Y-39937437D02*
X86175200Y-39985056D01*
X86175200Y-39985056D02*
X86127580Y-40127913D01*
X86127580Y-40127913D02*
X86127580Y-40223151D01*
X86127580Y-40223151D02*
X86175200Y-40366008D01*
X86175200Y-40366008D02*
X86270438Y-40461246D01*
X86270438Y-40461246D02*
X86365676Y-40508865D01*
X86365676Y-40508865D02*
X86556152Y-40556484D01*
X86556152Y-40556484D02*
X86699009Y-40556484D01*
X86699009Y-40556484D02*
X86889485Y-40508865D01*
X86889485Y-40508865D02*
X86984723Y-40461246D01*
X86984723Y-40461246D02*
X87079961Y-40366008D01*
X87079961Y-40366008D02*
X87127580Y-40223151D01*
X87127580Y-40223151D02*
X87127580Y-40127913D01*
X87127580Y-40127913D02*
X87079961Y-39985056D01*
X87079961Y-39985056D02*
X87032342Y-39937437D01*
X86651390Y-39175532D02*
X86603771Y-39032675D01*
X86603771Y-39032675D02*
X86556152Y-38985056D01*
X86556152Y-38985056D02*
X86460914Y-38937437D01*
X86460914Y-38937437D02*
X86318057Y-38937437D01*
X86318057Y-38937437D02*
X86222819Y-38985056D01*
X86222819Y-38985056D02*
X86175200Y-39032675D01*
X86175200Y-39032675D02*
X86127580Y-39127913D01*
X86127580Y-39127913D02*
X86127580Y-39508865D01*
X86127580Y-39508865D02*
X87127580Y-39508865D01*
X87127580Y-39508865D02*
X87127580Y-39175532D01*
X87127580Y-39175532D02*
X87079961Y-39080294D01*
X87079961Y-39080294D02*
X87032342Y-39032675D01*
X87032342Y-39032675D02*
X86937104Y-38985056D01*
X86937104Y-38985056D02*
X86841866Y-38985056D01*
X86841866Y-38985056D02*
X86746628Y-39032675D01*
X86746628Y-39032675D02*
X86699009Y-39080294D01*
X86699009Y-39080294D02*
X86651390Y-39175532D01*
X86651390Y-39175532D02*
X86651390Y-39508865D01*
G36*
X87943039Y-74213385D02*
G01*
X87988794Y-74266189D01*
X88000000Y-74317700D01*
X88000000Y-84069700D01*
X87980315Y-84136739D01*
X87927511Y-84182494D01*
X87876000Y-84193700D01*
X78124000Y-84193700D01*
X78056961Y-84174015D01*
X78011206Y-84121211D01*
X78000000Y-84069700D01*
X78000000Y-74317700D01*
X78019685Y-74250661D01*
X78072489Y-74204906D01*
X78124000Y-74193700D01*
X87876000Y-74193700D01*
X87943039Y-74213385D01*
G37*
M02*
