%TF.GenerationSoftware,KiCad,Pcbnew,9.0.6*%
%TF.CreationDate,2025-11-15T15:38:19+00:00*%
%TF.ProjectId,guitarwire,67756974-6172-4776-9972-652e6b696361,rev?*%
%TF.SameCoordinates,Original*%
%TF.FileFunction,Copper,L2,Bot*%
%TF.FilePolarity,Positive*%
%FSLAX46Y46*%
G04 Gerber Fmt 4.6, Leading zero omitted, Abs format (unit mm)*
G04 Created by KiCad (PCBNEW 9.0.6) date 2025-11-15 15:38:19*
%MOMM*%
%LPD*%
G01*
G04 APERTURE LIST*
G04 Aperture macros list*
%AMRoundRect*
0 Rectangle with rounded corners*
0 $1 Rounding radius*
0 $2 $3 $4 $5 $6 $7 $8 $9 X,Y pos of 4 corners*
0 Add a 4 corners polygon primitive as box body*
4,1,4,$2,$3,$4,$5,$6,$7,$8,$9,$2,$3,0*
0 Add four circle primitives for the rounded corners*
1,1,$1+$1,$2,$3*
1,1,$1+$1,$4,$5*
1,1,$1+$1,$6,$7*
1,1,$1+$1,$8,$9*
0 Add four rect primitives between the rounded corners*
20,1,$1+$1,$2,$3,$4,$5,0*
20,1,$1+$1,$4,$5,$6,$7,0*
20,1,$1+$1,$6,$7,$8,$9,0*
20,1,$1+$1,$8,$9,$2,$3,0*%
G04 Aperture macros list end*
%TA.AperFunction,ComponentPad*%
%ADD10RoundRect,0.250000X1.050000X-1.050000X1.050000X1.050000X-1.050000X1.050000X-1.050000X-1.050000X0*%
%TD*%
%TA.AperFunction,ComponentPad*%
%ADD11C,2.600000*%
%TD*%
%TA.AperFunction,ComponentPad*%
%ADD12RoundRect,0.250000X-1.050000X1.050000X-1.050000X-1.050000X1.050000X-1.050000X1.050000X1.050000X0*%
%TD*%
%TA.AperFunction,ComponentPad*%
%ADD13RoundRect,0.250000X-1.050000X-1.050000X1.050000X-1.050000X1.050000X1.050000X-1.050000X1.050000X0*%
%TD*%
G04 APERTURE END LIST*
D10*
%TO.P,HB_BRIDGE1,1,HB_WHITE*%
%TO.N,/BRIDGE_MERGE*%
X90000000Y-78239964D03*
D11*
%TO.P,HB_BRIDGE1,2,HB_BLACK*%
X90000000Y-73159964D03*
%TO.P,HB_BRIDGE1,3,HB_RED*%
%TO.N,/BRIDGE_INPUT*%
X90000000Y-68079964D03*
%TO.P,HB_BRIDGE1,4,HB_GND*%
%TO.N,GND*%
X90000000Y-62999964D03*
%TD*%
D12*
%TO.P,PICKUP_SELECTOR1,1,IN_NECK*%
%TO.N,/NECK_INPUT*%
X76000000Y-41033700D03*
D11*
%TO.P,PICKUP_SELECTOR1,2,IN_BRIDGE*%
%TO.N,/BRIDGE_INPUT*%
X76000000Y-46113700D03*
%TO.P,PICKUP_SELECTOR1,3,OUT*%
%TO.N,/SWITCH_OUT*%
X76000000Y-51193700D03*
%TO.P,PICKUP_SELECTOR1,4,GND*%
%TO.N,GND*%
X76000000Y-56273700D03*
%TD*%
D12*
%TO.P,VOLUME1,1,IN*%
%TO.N,/SWITCH_OUT*%
X75750000Y-68089964D03*
D11*
%TO.P,VOLUME1,2,OUT*%
%TO.N,/VOLUME_OUT*%
X75750000Y-73169964D03*
%TO.P,VOLUME1,3,GND*%
%TO.N,GND*%
X75750000Y-78249964D03*
%TD*%
D13*
%TO.P,J1,1,Pin_1*%
%TO.N,GND*%
X80500000Y-88172464D03*
D11*
%TO.P,J1,2,Pin_2*%
%TO.N,/VOLUME_OUT*%
X85580000Y-88172464D03*
%TD*%
D10*
%TO.P,HB_NECK1,1,HB_WHITE*%
%TO.N,/NECK_MERGE*%
X90000000Y-56353700D03*
D11*
%TO.P,HB_NECK1,2,HB_BLACK*%
X90000000Y-51273700D03*
%TO.P,HB_NECK1,3,HB_RED*%
%TO.N,/NECK_INPUT*%
X90000000Y-46193700D03*
%TO.P,HB_NECK1,4,HB_GND*%
%TO.N,GND*%
X90000000Y-41113700D03*
%TD*%
%TA.AperFunction,Conductor*%
%TO.N,GND*%
G36*
X92808363Y-30520185D02*
G01*
X92829005Y-30536819D01*
X95463181Y-33170995D01*
X95496666Y-33232318D01*
X95499500Y-33258676D01*
X95499500Y-90741324D01*
X95479815Y-90808363D01*
X95463181Y-90829005D01*
X91829005Y-94463181D01*
X91767682Y-94496666D01*
X91741324Y-94499500D01*
X74258675Y-94499500D01*
X74191636Y-94479815D01*
X74170994Y-94463181D01*
X70536819Y-90829005D01*
X70503334Y-90767682D01*
X70500500Y-90741324D01*
X70500500Y-89874002D01*
X72399500Y-89874002D01*
X72399500Y-90125925D01*
X72438910Y-90374749D01*
X72516760Y-90614347D01*
X72631132Y-90838812D01*
X72779201Y-91042613D01*
X72779205Y-91042618D01*
X72957345Y-91220758D01*
X72957350Y-91220762D01*
X73135117Y-91349916D01*
X73161155Y-91368834D01*
X73304184Y-91441711D01*
X73385616Y-91483203D01*
X73385618Y-91483203D01*
X73385621Y-91483205D01*
X73625215Y-91561054D01*
X73874038Y-91600464D01*
X73874039Y-91600464D01*
X74125961Y-91600464D01*
X74125962Y-91600464D01*
X74374785Y-91561054D01*
X74614379Y-91483205D01*
X74838845Y-91368834D01*
X75042656Y-91220757D01*
X75220793Y-91042620D01*
X75368870Y-90838809D01*
X75483241Y-90614343D01*
X75561090Y-90374749D01*
X75600500Y-90125926D01*
X75600500Y-89874002D01*
X75561090Y-89625179D01*
X75483241Y-89385585D01*
X75483239Y-89385582D01*
X75483239Y-89385580D01*
X75425589Y-89272437D01*
X75368870Y-89161119D01*
X75349952Y-89135081D01*
X75220798Y-88957314D01*
X75220794Y-88957309D01*
X75042654Y-88779169D01*
X75042649Y-88779165D01*
X74838848Y-88631096D01*
X74838847Y-88631095D01*
X74838845Y-88631094D01*
X74768747Y-88595377D01*
X74614383Y-88516724D01*
X74576473Y-88504406D01*
X74487133Y-88475378D01*
X74374785Y-88438873D01*
X74159982Y-88404852D01*
X74125962Y-88399464D01*
X73874038Y-88399464D01*
X73749626Y-88419169D01*
X73625214Y-88438874D01*
X73385616Y-88516724D01*
X73161151Y-88631096D01*
X72957350Y-88779165D01*
X72957345Y-88779169D01*
X72779205Y-88957309D01*
X72779201Y-88957314D01*
X72631132Y-89161115D01*
X72516760Y-89385580D01*
X72438910Y-89625178D01*
X72399500Y-89874002D01*
X70500500Y-89874002D01*
X70500500Y-87072477D01*
X78700000Y-87072477D01*
X78700000Y-87922464D01*
X79899999Y-87922464D01*
X79874979Y-87982866D01*
X79850000Y-88108445D01*
X79850000Y-88236483D01*
X79874979Y-88362062D01*
X79899999Y-88422464D01*
X78700001Y-88422464D01*
X78700001Y-89272450D01*
X78710494Y-89375161D01*
X78765641Y-89541583D01*
X78765643Y-89541588D01*
X78857684Y-89690809D01*
X78981654Y-89814779D01*
X79130875Y-89906820D01*
X79130880Y-89906822D01*
X79297302Y-89961969D01*
X79297309Y-89961970D01*
X79400019Y-89972463D01*
X80249999Y-89972463D01*
X80250000Y-89972462D01*
X80250000Y-88772465D01*
X80310402Y-88797485D01*
X80435981Y-88822464D01*
X80564019Y-88822464D01*
X80689598Y-88797485D01*
X80750000Y-88772465D01*
X80750000Y-89972463D01*
X81599972Y-89972463D01*
X81599986Y-89972462D01*
X81702697Y-89961969D01*
X81869119Y-89906822D01*
X81869124Y-89906820D01*
X82018345Y-89814779D01*
X82142315Y-89690809D01*
X82234356Y-89541588D01*
X82234358Y-89541583D01*
X82289505Y-89375161D01*
X82289506Y-89375154D01*
X82299999Y-89272450D01*
X82300000Y-89272437D01*
X82300000Y-88422464D01*
X81100001Y-88422464D01*
X81125021Y-88362062D01*
X81150000Y-88236483D01*
X81150000Y-88108445D01*
X81139262Y-88054459D01*
X83779500Y-88054459D01*
X83779500Y-88290468D01*
X83779501Y-88290484D01*
X83810306Y-88524474D01*
X83871394Y-88752457D01*
X83961714Y-88970509D01*
X83961719Y-88970520D01*
X84032677Y-89093421D01*
X84079727Y-89174914D01*
X84079729Y-89174917D01*
X84079730Y-89174918D01*
X84223406Y-89362161D01*
X84223412Y-89362168D01*
X84390295Y-89529051D01*
X84390302Y-89529057D01*
X84406633Y-89541588D01*
X84577550Y-89672737D01*
X84708918Y-89748582D01*
X84781943Y-89790744D01*
X84781948Y-89790746D01*
X84781951Y-89790748D01*
X85000007Y-89881070D01*
X85227986Y-89942157D01*
X85461989Y-89972964D01*
X85461996Y-89972964D01*
X85698004Y-89972964D01*
X85698011Y-89972964D01*
X85932014Y-89942157D01*
X86159993Y-89881070D01*
X86177057Y-89874002D01*
X90399500Y-89874002D01*
X90399500Y-90125925D01*
X90438910Y-90374749D01*
X90516760Y-90614347D01*
X90631132Y-90838812D01*
X90779201Y-91042613D01*
X90779205Y-91042618D01*
X90957345Y-91220758D01*
X90957350Y-91220762D01*
X91135117Y-91349916D01*
X91161155Y-91368834D01*
X91304184Y-91441711D01*
X91385616Y-91483203D01*
X91385618Y-91483203D01*
X91385621Y-91483205D01*
X91625215Y-91561054D01*
X91874038Y-91600464D01*
X91874039Y-91600464D01*
X92125961Y-91600464D01*
X92125962Y-91600464D01*
X92374785Y-91561054D01*
X92614379Y-91483205D01*
X92838845Y-91368834D01*
X93042656Y-91220757D01*
X93220793Y-91042620D01*
X93368870Y-90838809D01*
X93483241Y-90614343D01*
X93561090Y-90374749D01*
X93600500Y-90125926D01*
X93600500Y-89874002D01*
X93561090Y-89625179D01*
X93483241Y-89385585D01*
X93483239Y-89385582D01*
X93483239Y-89385580D01*
X93425589Y-89272437D01*
X93368870Y-89161119D01*
X93349952Y-89135081D01*
X93220798Y-88957314D01*
X93220794Y-88957309D01*
X93042654Y-88779169D01*
X93042649Y-88779165D01*
X92838848Y-88631096D01*
X92838847Y-88631095D01*
X92838845Y-88631094D01*
X92768747Y-88595377D01*
X92614383Y-88516724D01*
X92374785Y-88438874D01*
X92271177Y-88422464D01*
X92125962Y-88399464D01*
X91874038Y-88399464D01*
X91749626Y-88419169D01*
X91625214Y-88438874D01*
X91385616Y-88516724D01*
X91161151Y-88631096D01*
X90957350Y-88779165D01*
X90957345Y-88779169D01*
X90779205Y-88957309D01*
X90779201Y-88957314D01*
X90631132Y-89161115D01*
X90516760Y-89385580D01*
X90438910Y-89625178D01*
X90399500Y-89874002D01*
X86177057Y-89874002D01*
X86378049Y-89790748D01*
X86582450Y-89672737D01*
X86769699Y-89529056D01*
X86936592Y-89362163D01*
X87080273Y-89174914D01*
X87198284Y-88970513D01*
X87288606Y-88752457D01*
X87349693Y-88524478D01*
X87380500Y-88290475D01*
X87380500Y-88054453D01*
X87349693Y-87820450D01*
X87288606Y-87592471D01*
X87198284Y-87374415D01*
X87198282Y-87374412D01*
X87198280Y-87374407D01*
X87156118Y-87301382D01*
X87080273Y-87170014D01*
X86936592Y-86982765D01*
X86936587Y-86982759D01*
X86769704Y-86815876D01*
X86769697Y-86815870D01*
X86582454Y-86672194D01*
X86582453Y-86672193D01*
X86582450Y-86672191D01*
X86500957Y-86625141D01*
X86378056Y-86554183D01*
X86378045Y-86554178D01*
X86159993Y-86463858D01*
X85932010Y-86402770D01*
X85698020Y-86371965D01*
X85698017Y-86371964D01*
X85698011Y-86371964D01*
X85461989Y-86371964D01*
X85461983Y-86371964D01*
X85461979Y-86371965D01*
X85227989Y-86402770D01*
X85000006Y-86463858D01*
X84781954Y-86554178D01*
X84781943Y-86554183D01*
X84577545Y-86672194D01*
X84390302Y-86815870D01*
X84390295Y-86815876D01*
X84223412Y-86982759D01*
X84223406Y-86982766D01*
X84079730Y-87170009D01*
X83961719Y-87374407D01*
X83961714Y-87374418D01*
X83871394Y-87592470D01*
X83810306Y-87820453D01*
X83779501Y-88054443D01*
X83779500Y-88054459D01*
X81139262Y-88054459D01*
X81125021Y-87982866D01*
X81100001Y-87922464D01*
X82299999Y-87922464D01*
X82299999Y-87072492D01*
X82299998Y-87072477D01*
X82289505Y-86969766D01*
X82234358Y-86803344D01*
X82234356Y-86803339D01*
X82142315Y-86654118D01*
X82018345Y-86530148D01*
X81869124Y-86438107D01*
X81869119Y-86438105D01*
X81702697Y-86382958D01*
X81702690Y-86382957D01*
X81599986Y-86372464D01*
X80750000Y-86372464D01*
X80750000Y-87572462D01*
X80689598Y-87547443D01*
X80564019Y-87522464D01*
X80435981Y-87522464D01*
X80310402Y-87547443D01*
X80250000Y-87572462D01*
X80250000Y-86372464D01*
X79400028Y-86372464D01*
X79400012Y-86372465D01*
X79297302Y-86382958D01*
X79130880Y-86438105D01*
X79130875Y-86438107D01*
X78981654Y-86530148D01*
X78857684Y-86654118D01*
X78765643Y-86803339D01*
X78765641Y-86803344D01*
X78710494Y-86969766D01*
X78710493Y-86969773D01*
X78700000Y-87072477D01*
X70500500Y-87072477D01*
X70500500Y-78131978D01*
X73950000Y-78131978D01*
X73950000Y-78367949D01*
X73980799Y-78601878D01*
X74041870Y-78829801D01*
X74132160Y-79047783D01*
X74132165Y-79047792D01*
X74250144Y-79252135D01*
X74250145Y-79252136D01*
X74312721Y-79333687D01*
X75148958Y-78497451D01*
X75173978Y-78557854D01*
X75245112Y-78664315D01*
X75335649Y-78754852D01*
X75442110Y-78825986D01*
X75502511Y-78851005D01*
X74666275Y-79687241D01*
X74747827Y-79749818D01*
X74747828Y-79749819D01*
X74952171Y-79867798D01*
X74952180Y-79867803D01*
X75170163Y-79958093D01*
X75170161Y-79958093D01*
X75398085Y-80019164D01*
X75632014Y-80049963D01*
X75632029Y-80049964D01*
X75867971Y-80049964D01*
X75867985Y-80049963D01*
X76101914Y-80019164D01*
X76329837Y-79958093D01*
X76547819Y-79867803D01*
X76547828Y-79867798D01*
X76752181Y-79749814D01*
X76833723Y-79687243D01*
X76833723Y-79687240D01*
X75997487Y-78851005D01*
X76057890Y-78825986D01*
X76164351Y-78754852D01*
X76254888Y-78664315D01*
X76326022Y-78557854D01*
X76351041Y-78497451D01*
X77187276Y-79333687D01*
X77187279Y-79333687D01*
X77249850Y-79252145D01*
X77367834Y-79047792D01*
X77367839Y-79047783D01*
X77458129Y-78829801D01*
X77519200Y-78601878D01*
X77549999Y-78367949D01*
X77550000Y-78367935D01*
X77550000Y-78131992D01*
X77549999Y-78131978D01*
X77519200Y-77898049D01*
X77458129Y-77670126D01*
X77367839Y-77452144D01*
X77367834Y-77452135D01*
X77249855Y-77247792D01*
X77249849Y-77247783D01*
X77222612Y-77212287D01*
X77222610Y-77212285D01*
X77187277Y-77166239D01*
X76351041Y-78002475D01*
X76326022Y-77942074D01*
X76254888Y-77835613D01*
X76164351Y-77745076D01*
X76057890Y-77673942D01*
X75997488Y-77648922D01*
X76506462Y-77139947D01*
X88199500Y-77139947D01*
X88199500Y-79339965D01*
X88199501Y-79339982D01*
X88210000Y-79442760D01*
X88210001Y-79442763D01*
X88265185Y-79609295D01*
X88265186Y-79609298D01*
X88357288Y-79758620D01*
X88481344Y-79882676D01*
X88630666Y-79974778D01*
X88797203Y-80029963D01*
X88899991Y-80040464D01*
X91100008Y-80040463D01*
X91202797Y-80029963D01*
X91369334Y-79974778D01*
X91518656Y-79882676D01*
X91642712Y-79758620D01*
X91734814Y-79609298D01*
X91789999Y-79442761D01*
X91800500Y-79339973D01*
X91800499Y-77139956D01*
X91789999Y-77037167D01*
X91734814Y-76870630D01*
X91642712Y-76721308D01*
X91518656Y-76597252D01*
X91369334Y-76505150D01*
X91202797Y-76449965D01*
X91202795Y-76449964D01*
X91100010Y-76439464D01*
X88899998Y-76439464D01*
X88899981Y-76439465D01*
X88797203Y-76449964D01*
X88797200Y-76449965D01*
X88630668Y-76505149D01*
X88630663Y-76505151D01*
X88481342Y-76597253D01*
X88357289Y-76721306D01*
X88265187Y-76870627D01*
X88265186Y-76870630D01*
X88210001Y-77037167D01*
X88210001Y-77037168D01*
X88210000Y-77037168D01*
X88199500Y-77139947D01*
X76506462Y-77139947D01*
X76833723Y-76812685D01*
X76752172Y-76750109D01*
X76752171Y-76750108D01*
X76547828Y-76632129D01*
X76547819Y-76632124D01*
X76329836Y-76541834D01*
X76329838Y-76541834D01*
X76101914Y-76480763D01*
X75867985Y-76449964D01*
X75632014Y-76449964D01*
X75398085Y-76480763D01*
X75170162Y-76541834D01*
X74952180Y-76632124D01*
X74952171Y-76632129D01*
X74747828Y-76750108D01*
X74747818Y-76750114D01*
X74666275Y-76812684D01*
X74666275Y-76812685D01*
X75502512Y-77648922D01*
X75442110Y-77673942D01*
X75335649Y-77745076D01*
X75245112Y-77835613D01*
X75173978Y-77942074D01*
X75148958Y-78002476D01*
X74312721Y-77166239D01*
X74312720Y-77166239D01*
X74250150Y-77247782D01*
X74250144Y-77247792D01*
X74132165Y-77452135D01*
X74132160Y-77452144D01*
X74041870Y-77670126D01*
X73980799Y-77898049D01*
X73950000Y-78131978D01*
X70500500Y-78131978D01*
X70500500Y-73051959D01*
X73949500Y-73051959D01*
X73949500Y-73287968D01*
X73949501Y-73287984D01*
X73978989Y-73511974D01*
X73980307Y-73521978D01*
X74041394Y-73749957D01*
X74131714Y-73968009D01*
X74131719Y-73968020D01*
X74202677Y-74090921D01*
X74249727Y-74172414D01*
X74249729Y-74172417D01*
X74249730Y-74172418D01*
X74393406Y-74359661D01*
X74393412Y-74359668D01*
X74560295Y-74526551D01*
X74560301Y-74526556D01*
X74747550Y-74670237D01*
X74878918Y-74746082D01*
X74951943Y-74788244D01*
X74951948Y-74788246D01*
X74951951Y-74788248D01*
X75170007Y-74878570D01*
X75397986Y-74939657D01*
X75631989Y-74970464D01*
X75631996Y-74970464D01*
X75868004Y-74970464D01*
X75868011Y-74970464D01*
X76102014Y-74939657D01*
X76329993Y-74878570D01*
X76548049Y-74788248D01*
X76752450Y-74670237D01*
X76939699Y-74526556D01*
X77106592Y-74359663D01*
X77250273Y-74172414D01*
X77368284Y-73968013D01*
X77458606Y-73749957D01*
X77519693Y-73521978D01*
X77550500Y-73287975D01*
X77550500Y-73051953D01*
X77549184Y-73041959D01*
X88199500Y-73041959D01*
X88199500Y-73277968D01*
X88199501Y-73277984D01*
X88230306Y-73511974D01*
X88291394Y-73739957D01*
X88381714Y-73958009D01*
X88381719Y-73958020D01*
X88452677Y-74080921D01*
X88499727Y-74162414D01*
X88499729Y-74162417D01*
X88499730Y-74162418D01*
X88643406Y-74349661D01*
X88643412Y-74349668D01*
X88810295Y-74516551D01*
X88810302Y-74516557D01*
X88920306Y-74600965D01*
X88997550Y-74660237D01*
X89128918Y-74736082D01*
X89201943Y-74778244D01*
X89201948Y-74778246D01*
X89201951Y-74778248D01*
X89420007Y-74868570D01*
X89647986Y-74929657D01*
X89881989Y-74960464D01*
X89881996Y-74960464D01*
X90118004Y-74960464D01*
X90118011Y-74960464D01*
X90352014Y-74929657D01*
X90579993Y-74868570D01*
X90798049Y-74778248D01*
X91002450Y-74660237D01*
X91189699Y-74516556D01*
X91356592Y-74349663D01*
X91500273Y-74162414D01*
X91618284Y-73958013D01*
X91708606Y-73739957D01*
X91769693Y-73511978D01*
X91800500Y-73277975D01*
X91800500Y-73041953D01*
X91769693Y-72807950D01*
X91708606Y-72579971D01*
X91618284Y-72361915D01*
X91618282Y-72361912D01*
X91618280Y-72361907D01*
X91576118Y-72288882D01*
X91500273Y-72157514D01*
X91356592Y-71970265D01*
X91356587Y-71970259D01*
X91189704Y-71803376D01*
X91189697Y-71803370D01*
X91002454Y-71659694D01*
X91002453Y-71659693D01*
X91002450Y-71659691D01*
X90920957Y-71612641D01*
X90798056Y-71541683D01*
X90798045Y-71541678D01*
X90579993Y-71451358D01*
X90389334Y-71400271D01*
X90352014Y-71390271D01*
X90352013Y-71390270D01*
X90352010Y-71390270D01*
X90118020Y-71359465D01*
X90118017Y-71359464D01*
X90118011Y-71359464D01*
X89881989Y-71359464D01*
X89881983Y-71359464D01*
X89881979Y-71359465D01*
X89647989Y-71390270D01*
X89420006Y-71451358D01*
X89201954Y-71541678D01*
X89201943Y-71541683D01*
X88997545Y-71659694D01*
X88810302Y-71803370D01*
X88810295Y-71803376D01*
X88643412Y-71970259D01*
X88643406Y-71970266D01*
X88499730Y-72157509D01*
X88499727Y-72157513D01*
X88499727Y-72157514D01*
X88492014Y-72170873D01*
X88381719Y-72361907D01*
X88381714Y-72361918D01*
X88291394Y-72579970D01*
X88230306Y-72807953D01*
X88199501Y-73041943D01*
X88199500Y-73041959D01*
X77549184Y-73041959D01*
X77549183Y-73041953D01*
X77519693Y-72817953D01*
X77519693Y-72817950D01*
X77458606Y-72589971D01*
X77368284Y-72371915D01*
X77368282Y-72371912D01*
X77368280Y-72371907D01*
X77326118Y-72298882D01*
X77250273Y-72167514D01*
X77106592Y-71980265D01*
X77106587Y-71980259D01*
X76939704Y-71813376D01*
X76939697Y-71813370D01*
X76752454Y-71669694D01*
X76752453Y-71669693D01*
X76752450Y-71669691D01*
X76670957Y-71622641D01*
X76548056Y-71551683D01*
X76548045Y-71551678D01*
X76329993Y-71461358D01*
X76102010Y-71400270D01*
X75868020Y-71369465D01*
X75868017Y-71369464D01*
X75868011Y-71369464D01*
X75631989Y-71369464D01*
X75631983Y-71369464D01*
X75631979Y-71369465D01*
X75397989Y-71400270D01*
X75170006Y-71461358D01*
X74951954Y-71551678D01*
X74951943Y-71551683D01*
X74747545Y-71669694D01*
X74560302Y-71813370D01*
X74560295Y-71813376D01*
X74393412Y-71980259D01*
X74393406Y-71980266D01*
X74249730Y-72167509D01*
X74131719Y-72371907D01*
X74131714Y-72371918D01*
X74041394Y-72589970D01*
X73980306Y-72817953D01*
X73949501Y-73051943D01*
X73949500Y-73051959D01*
X70500500Y-73051959D01*
X70500500Y-66989947D01*
X73949500Y-66989947D01*
X73949500Y-69189965D01*
X73949501Y-69189982D01*
X73960000Y-69292760D01*
X73960001Y-69292763D01*
X74007648Y-69436551D01*
X74015186Y-69459298D01*
X74107288Y-69608620D01*
X74231344Y-69732676D01*
X74380666Y-69824778D01*
X74547203Y-69879963D01*
X74649991Y-69890464D01*
X76850008Y-69890463D01*
X76952797Y-69879963D01*
X77119334Y-69824778D01*
X77268656Y-69732676D01*
X77392712Y-69608620D01*
X77484814Y-69459298D01*
X77539999Y-69292761D01*
X77550500Y-69189973D01*
X77550499Y-67961959D01*
X88199500Y-67961959D01*
X88199500Y-68197968D01*
X88199501Y-68197984D01*
X88230306Y-68431974D01*
X88291394Y-68659957D01*
X88381714Y-68878009D01*
X88381719Y-68878020D01*
X88452677Y-69000921D01*
X88499727Y-69082414D01*
X88499729Y-69082417D01*
X88499730Y-69082418D01*
X88643406Y-69269661D01*
X88643412Y-69269668D01*
X88810295Y-69436551D01*
X88810302Y-69436557D01*
X88920306Y-69520965D01*
X88997550Y-69580237D01*
X89128918Y-69656082D01*
X89201943Y-69698244D01*
X89201948Y-69698246D01*
X89201951Y-69698248D01*
X89420007Y-69788570D01*
X89647986Y-69849657D01*
X89881989Y-69880464D01*
X89881996Y-69880464D01*
X90118004Y-69880464D01*
X90118011Y-69880464D01*
X90352014Y-69849657D01*
X90579993Y-69788570D01*
X90798049Y-69698248D01*
X91002450Y-69580237D01*
X91189699Y-69436556D01*
X91356592Y-69269663D01*
X91500273Y-69082414D01*
X91618284Y-68878013D01*
X91708606Y-68659957D01*
X91769693Y-68431978D01*
X91800500Y-68197975D01*
X91800500Y-67961953D01*
X91769693Y-67727950D01*
X91708606Y-67499971D01*
X91618284Y-67281915D01*
X91618282Y-67281912D01*
X91618280Y-67281907D01*
X91576118Y-67208882D01*
X91500273Y-67077514D01*
X91433092Y-66989962D01*
X91356593Y-66890266D01*
X91356587Y-66890259D01*
X91189704Y-66723376D01*
X91189697Y-66723370D01*
X91002454Y-66579694D01*
X91002453Y-66579693D01*
X91002450Y-66579691D01*
X90920957Y-66532641D01*
X90798056Y-66461683D01*
X90798045Y-66461678D01*
X90579993Y-66371358D01*
X90352010Y-66310270D01*
X90118020Y-66279465D01*
X90118017Y-66279464D01*
X90118011Y-66279464D01*
X89881989Y-66279464D01*
X89881983Y-66279464D01*
X89881979Y-66279465D01*
X89647989Y-66310270D01*
X89420006Y-66371358D01*
X89201954Y-66461678D01*
X89201943Y-66461683D01*
X88997545Y-66579694D01*
X88810302Y-66723370D01*
X88810295Y-66723376D01*
X88643412Y-66890259D01*
X88643406Y-66890266D01*
X88499730Y-67077509D01*
X88381719Y-67281907D01*
X88381714Y-67281918D01*
X88291394Y-67499970D01*
X88230306Y-67727953D01*
X88199501Y-67961943D01*
X88199500Y-67961959D01*
X77550499Y-67961959D01*
X77550499Y-66989956D01*
X77539999Y-66887167D01*
X77484814Y-66720630D01*
X77392712Y-66571308D01*
X77268656Y-66447252D01*
X77119334Y-66355150D01*
X76952797Y-66299965D01*
X76952795Y-66299964D01*
X76850010Y-66289464D01*
X74649998Y-66289464D01*
X74649981Y-66289465D01*
X74547203Y-66299964D01*
X74547200Y-66299965D01*
X74380668Y-66355149D01*
X74380663Y-66355151D01*
X74231342Y-66447253D01*
X74107289Y-66571306D01*
X74015187Y-66720627D01*
X74015186Y-66720630D01*
X73960001Y-66887167D01*
X73960001Y-66887168D01*
X73960000Y-66887168D01*
X73949500Y-66989947D01*
X70500500Y-66989947D01*
X70500500Y-62881978D01*
X88200000Y-62881978D01*
X88200000Y-63117949D01*
X88230799Y-63351878D01*
X88291870Y-63579801D01*
X88382160Y-63797783D01*
X88382165Y-63797792D01*
X88500144Y-64002135D01*
X88500145Y-64002136D01*
X88562721Y-64083687D01*
X89398958Y-63247451D01*
X89423978Y-63307854D01*
X89495112Y-63414315D01*
X89585649Y-63504852D01*
X89692110Y-63575986D01*
X89752511Y-63601005D01*
X88916275Y-64437241D01*
X88997827Y-64499818D01*
X88997828Y-64499819D01*
X89202171Y-64617798D01*
X89202180Y-64617803D01*
X89420163Y-64708093D01*
X89420161Y-64708093D01*
X89648085Y-64769164D01*
X89882014Y-64799963D01*
X89882029Y-64799964D01*
X90117971Y-64799964D01*
X90117985Y-64799963D01*
X90351914Y-64769164D01*
X90579837Y-64708093D01*
X90797819Y-64617803D01*
X90797828Y-64617798D01*
X91002181Y-64499814D01*
X91083723Y-64437243D01*
X91083723Y-64437240D01*
X90247487Y-63601005D01*
X90307890Y-63575986D01*
X90414351Y-63504852D01*
X90504888Y-63414315D01*
X90576022Y-63307854D01*
X90601041Y-63247451D01*
X91437276Y-64083687D01*
X91437279Y-64083687D01*
X91499850Y-64002145D01*
X91617834Y-63797792D01*
X91617839Y-63797783D01*
X91708129Y-63579801D01*
X91769200Y-63351878D01*
X91799999Y-63117949D01*
X91800000Y-63117935D01*
X91800000Y-62881992D01*
X91799999Y-62881978D01*
X91769200Y-62648049D01*
X91708129Y-62420126D01*
X91617839Y-62202144D01*
X91617834Y-62202135D01*
X91499855Y-61997792D01*
X91499854Y-61997791D01*
X91437277Y-61916239D01*
X90601041Y-62752475D01*
X90576022Y-62692074D01*
X90504888Y-62585613D01*
X90414351Y-62495076D01*
X90307890Y-62423942D01*
X90247488Y-62398922D01*
X91083723Y-61562685D01*
X91002172Y-61500109D01*
X91002171Y-61500108D01*
X90797828Y-61382129D01*
X90797819Y-61382124D01*
X90579836Y-61291834D01*
X90579838Y-61291834D01*
X90351914Y-61230763D01*
X90117985Y-61199964D01*
X89882014Y-61199964D01*
X89648085Y-61230763D01*
X89420162Y-61291834D01*
X89202180Y-61382124D01*
X89202171Y-61382129D01*
X88997828Y-61500108D01*
X88997818Y-61500114D01*
X88916275Y-61562684D01*
X88916275Y-61562685D01*
X89752512Y-62398922D01*
X89692110Y-62423942D01*
X89585649Y-62495076D01*
X89495112Y-62585613D01*
X89423978Y-62692074D01*
X89398958Y-62752475D01*
X88562721Y-61916239D01*
X88562720Y-61916239D01*
X88500150Y-61997782D01*
X88500144Y-61997792D01*
X88382165Y-62202135D01*
X88382160Y-62202144D01*
X88291870Y-62420126D01*
X88230799Y-62648049D01*
X88200000Y-62881978D01*
X70500500Y-62881978D01*
X70500500Y-56155714D01*
X74200000Y-56155714D01*
X74200000Y-56391685D01*
X74230799Y-56625614D01*
X74291870Y-56853537D01*
X74382160Y-57071519D01*
X74382165Y-57071528D01*
X74500144Y-57275871D01*
X74500145Y-57275872D01*
X74562721Y-57357423D01*
X75398958Y-56521187D01*
X75423978Y-56581590D01*
X75495112Y-56688051D01*
X75585649Y-56778588D01*
X75692110Y-56849722D01*
X75752511Y-56874741D01*
X74916275Y-57710977D01*
X74997827Y-57773554D01*
X74997828Y-57773555D01*
X75202171Y-57891534D01*
X75202180Y-57891539D01*
X75420163Y-57981829D01*
X75420161Y-57981829D01*
X75648085Y-58042900D01*
X75882014Y-58073699D01*
X75882029Y-58073700D01*
X76117971Y-58073700D01*
X76117985Y-58073699D01*
X76351914Y-58042900D01*
X76579837Y-57981829D01*
X76797819Y-57891539D01*
X76797828Y-57891534D01*
X77002181Y-57773550D01*
X77083723Y-57710979D01*
X77083723Y-57710976D01*
X76247487Y-56874741D01*
X76307890Y-56849722D01*
X76414351Y-56778588D01*
X76504888Y-56688051D01*
X76576022Y-56581590D01*
X76601041Y-56521187D01*
X77437276Y-57357423D01*
X77437279Y-57357423D01*
X77499850Y-57275881D01*
X77617834Y-57071528D01*
X77617839Y-57071519D01*
X77708129Y-56853537D01*
X77769200Y-56625614D01*
X77799999Y-56391685D01*
X77800000Y-56391671D01*
X77800000Y-56155728D01*
X77799999Y-56155714D01*
X77769200Y-55921785D01*
X77708129Y-55693862D01*
X77617839Y-55475880D01*
X77617834Y-55475871D01*
X77523531Y-55312535D01*
X77523530Y-55312533D01*
X77499860Y-55271535D01*
X77499854Y-55271527D01*
X77486162Y-55253683D01*
X88199500Y-55253683D01*
X88199500Y-57453701D01*
X88199501Y-57453718D01*
X88210000Y-57556496D01*
X88210001Y-57556499D01*
X88261190Y-57710976D01*
X88265186Y-57723034D01*
X88357288Y-57872356D01*
X88481344Y-57996412D01*
X88630666Y-58088514D01*
X88797203Y-58143699D01*
X88899991Y-58154200D01*
X91100008Y-58154199D01*
X91202797Y-58143699D01*
X91369334Y-58088514D01*
X91518656Y-57996412D01*
X91642712Y-57872356D01*
X91734814Y-57723034D01*
X91789999Y-57556497D01*
X91800500Y-57453709D01*
X91800499Y-55253692D01*
X91789999Y-55150903D01*
X91734814Y-54984366D01*
X91642712Y-54835044D01*
X91518656Y-54710988D01*
X91369334Y-54618886D01*
X91202797Y-54563701D01*
X91202795Y-54563700D01*
X91100010Y-54553200D01*
X88899998Y-54553200D01*
X88899981Y-54553201D01*
X88797203Y-54563700D01*
X88797200Y-54563701D01*
X88630668Y-54618885D01*
X88630663Y-54618887D01*
X88481342Y-54710989D01*
X88357289Y-54835042D01*
X88265187Y-54984363D01*
X88265186Y-54984366D01*
X88210001Y-55150903D01*
X88210001Y-55150904D01*
X88210000Y-55150904D01*
X88199500Y-55253683D01*
X77486162Y-55253683D01*
X77437277Y-55189975D01*
X76601041Y-56026211D01*
X76576022Y-55965810D01*
X76504888Y-55859349D01*
X76414351Y-55768812D01*
X76307890Y-55697678D01*
X76247488Y-55672658D01*
X77083723Y-54836421D01*
X77002172Y-54773845D01*
X77002171Y-54773844D01*
X76797828Y-54655865D01*
X76797819Y-54655860D01*
X76579836Y-54565570D01*
X76579838Y-54565570D01*
X76351914Y-54504499D01*
X76117985Y-54473700D01*
X75882014Y-54473700D01*
X75648085Y-54504499D01*
X75420162Y-54565570D01*
X75202180Y-54655860D01*
X75202171Y-54655865D01*
X74997828Y-54773844D01*
X74997818Y-54773850D01*
X74916275Y-54836420D01*
X74916275Y-54836421D01*
X75752512Y-55672658D01*
X75692110Y-55697678D01*
X75585649Y-55768812D01*
X75495112Y-55859349D01*
X75423978Y-55965810D01*
X75398958Y-56026211D01*
X74562721Y-55189975D01*
X74562720Y-55189975D01*
X74500150Y-55271518D01*
X74500144Y-55271528D01*
X74382165Y-55475871D01*
X74382160Y-55475880D01*
X74291870Y-55693862D01*
X74230799Y-55921785D01*
X74200000Y-56155714D01*
X70500500Y-56155714D01*
X70500500Y-51075695D01*
X74199500Y-51075695D01*
X74199500Y-51311704D01*
X74199501Y-51311720D01*
X74230306Y-51545710D01*
X74291394Y-51773693D01*
X74381714Y-51991745D01*
X74381719Y-51991756D01*
X74427904Y-52071749D01*
X74499727Y-52196150D01*
X74499729Y-52196153D01*
X74499730Y-52196154D01*
X74643406Y-52383397D01*
X74643412Y-52383404D01*
X74810295Y-52550287D01*
X74810301Y-52550292D01*
X74997550Y-52693973D01*
X75128918Y-52769818D01*
X75201943Y-52811980D01*
X75201948Y-52811982D01*
X75201951Y-52811984D01*
X75420007Y-52902306D01*
X75647986Y-52963393D01*
X75881989Y-52994200D01*
X75881996Y-52994200D01*
X76118004Y-52994200D01*
X76118011Y-52994200D01*
X76352014Y-52963393D01*
X76579993Y-52902306D01*
X76798049Y-52811984D01*
X77002450Y-52693973D01*
X77189699Y-52550292D01*
X77356592Y-52383399D01*
X77500273Y-52196150D01*
X77618284Y-51991749D01*
X77708606Y-51773693D01*
X77769693Y-51545714D01*
X77800500Y-51311711D01*
X77800500Y-51155695D01*
X88199500Y-51155695D01*
X88199500Y-51391704D01*
X88199501Y-51391720D01*
X88230306Y-51625710D01*
X88291394Y-51853693D01*
X88381714Y-52071745D01*
X88381719Y-52071756D01*
X88452677Y-52194657D01*
X88499727Y-52276150D01*
X88499729Y-52276153D01*
X88499730Y-52276154D01*
X88643406Y-52463397D01*
X88643412Y-52463404D01*
X88810295Y-52630287D01*
X88810301Y-52630292D01*
X88997550Y-52773973D01*
X89128918Y-52849818D01*
X89201943Y-52891980D01*
X89201948Y-52891982D01*
X89201951Y-52891984D01*
X89420007Y-52982306D01*
X89647986Y-53043393D01*
X89881989Y-53074200D01*
X89881996Y-53074200D01*
X90118004Y-53074200D01*
X90118011Y-53074200D01*
X90352014Y-53043393D01*
X90579993Y-52982306D01*
X90798049Y-52891984D01*
X91002450Y-52773973D01*
X91189699Y-52630292D01*
X91356592Y-52463399D01*
X91500273Y-52276150D01*
X91618284Y-52071749D01*
X91708606Y-51853693D01*
X91769693Y-51625714D01*
X91800500Y-51391711D01*
X91800500Y-51155689D01*
X91769693Y-50921686D01*
X91708606Y-50693707D01*
X91618284Y-50475651D01*
X91618282Y-50475648D01*
X91618280Y-50475643D01*
X91572091Y-50395643D01*
X91500273Y-50271250D01*
X91356592Y-50084001D01*
X91356587Y-50083995D01*
X91189704Y-49917112D01*
X91189697Y-49917106D01*
X91002454Y-49773430D01*
X91002453Y-49773429D01*
X91002450Y-49773427D01*
X90920957Y-49726377D01*
X90798056Y-49655419D01*
X90798045Y-49655414D01*
X90579993Y-49565094D01*
X90352010Y-49504006D01*
X90118020Y-49473201D01*
X90118017Y-49473200D01*
X90118011Y-49473200D01*
X89881989Y-49473200D01*
X89881983Y-49473200D01*
X89881979Y-49473201D01*
X89647989Y-49504006D01*
X89420006Y-49565094D01*
X89201954Y-49655414D01*
X89201943Y-49655419D01*
X88997545Y-49773430D01*
X88810302Y-49917106D01*
X88810295Y-49917112D01*
X88643412Y-50083995D01*
X88643406Y-50084002D01*
X88499730Y-50271245D01*
X88381719Y-50475643D01*
X88381714Y-50475654D01*
X88291394Y-50693706D01*
X88230306Y-50921689D01*
X88199501Y-51155679D01*
X88199500Y-51155695D01*
X77800500Y-51155695D01*
X77800500Y-51075689D01*
X77769693Y-50841686D01*
X77708606Y-50613707D01*
X77618284Y-50395651D01*
X77618282Y-50395648D01*
X77618280Y-50395643D01*
X77546458Y-50271245D01*
X77500273Y-50191250D01*
X77417978Y-50084001D01*
X77356593Y-50004002D01*
X77356587Y-50003995D01*
X77189704Y-49837112D01*
X77189697Y-49837106D01*
X77002454Y-49693430D01*
X77002453Y-49693429D01*
X77002450Y-49693427D01*
X76920957Y-49646377D01*
X76798056Y-49575419D01*
X76798045Y-49575414D01*
X76579993Y-49485094D01*
X76352010Y-49424006D01*
X76118020Y-49393201D01*
X76118017Y-49393200D01*
X76118011Y-49393200D01*
X75881989Y-49393200D01*
X75881983Y-49393200D01*
X75881979Y-49393201D01*
X75647989Y-49424006D01*
X75420006Y-49485094D01*
X75201954Y-49575414D01*
X75201943Y-49575419D01*
X74997545Y-49693430D01*
X74810302Y-49837106D01*
X74810295Y-49837112D01*
X74643412Y-50003995D01*
X74643406Y-50004002D01*
X74499730Y-50191245D01*
X74381719Y-50395643D01*
X74381714Y-50395654D01*
X74291394Y-50613706D01*
X74230306Y-50841689D01*
X74199501Y-51075679D01*
X74199500Y-51075695D01*
X70500500Y-51075695D01*
X70500500Y-45995695D01*
X74199500Y-45995695D01*
X74199500Y-46231704D01*
X74199501Y-46231720D01*
X74230306Y-46465710D01*
X74291394Y-46693693D01*
X74381714Y-46911745D01*
X74381719Y-46911756D01*
X74427904Y-46991749D01*
X74499727Y-47116150D01*
X74499729Y-47116153D01*
X74499730Y-47116154D01*
X74643406Y-47303397D01*
X74643412Y-47303404D01*
X74810295Y-47470287D01*
X74810301Y-47470292D01*
X74997550Y-47613973D01*
X75128918Y-47689818D01*
X75201943Y-47731980D01*
X75201948Y-47731982D01*
X75201951Y-47731984D01*
X75420007Y-47822306D01*
X75647986Y-47883393D01*
X75881989Y-47914200D01*
X75881996Y-47914200D01*
X76118004Y-47914200D01*
X76118011Y-47914200D01*
X76352014Y-47883393D01*
X76579993Y-47822306D01*
X76798049Y-47731984D01*
X77002450Y-47613973D01*
X77189699Y-47470292D01*
X77356592Y-47303399D01*
X77500273Y-47116150D01*
X77618284Y-46911749D01*
X77708606Y-46693693D01*
X77769693Y-46465714D01*
X77800500Y-46231711D01*
X77800500Y-46075695D01*
X88199500Y-46075695D01*
X88199500Y-46311704D01*
X88199501Y-46311720D01*
X88230306Y-46545710D01*
X88291394Y-46773693D01*
X88381714Y-46991745D01*
X88381719Y-46991756D01*
X88452677Y-47114657D01*
X88499727Y-47196150D01*
X88499729Y-47196153D01*
X88499730Y-47196154D01*
X88643406Y-47383397D01*
X88643412Y-47383404D01*
X88810295Y-47550287D01*
X88810301Y-47550292D01*
X88997550Y-47693973D01*
X89128918Y-47769818D01*
X89201943Y-47811980D01*
X89201948Y-47811982D01*
X89201951Y-47811984D01*
X89420007Y-47902306D01*
X89647986Y-47963393D01*
X89881989Y-47994200D01*
X89881996Y-47994200D01*
X90118004Y-47994200D01*
X90118011Y-47994200D01*
X90352014Y-47963393D01*
X90579993Y-47902306D01*
X90798049Y-47811984D01*
X91002450Y-47693973D01*
X91189699Y-47550292D01*
X91356592Y-47383399D01*
X91500273Y-47196150D01*
X91618284Y-46991749D01*
X91708606Y-46773693D01*
X91769693Y-46545714D01*
X91800500Y-46311711D01*
X91800500Y-46075689D01*
X91769693Y-45841686D01*
X91708606Y-45613707D01*
X91618284Y-45395651D01*
X91618282Y-45395648D01*
X91618280Y-45395643D01*
X91572091Y-45315643D01*
X91500273Y-45191250D01*
X91356592Y-45004001D01*
X91356587Y-45003995D01*
X91189704Y-44837112D01*
X91189697Y-44837106D01*
X91002454Y-44693430D01*
X91002453Y-44693429D01*
X91002450Y-44693427D01*
X90920957Y-44646377D01*
X90798056Y-44575419D01*
X90798045Y-44575414D01*
X90579993Y-44485094D01*
X90352010Y-44424006D01*
X90118020Y-44393201D01*
X90118017Y-44393200D01*
X90118011Y-44393200D01*
X89881989Y-44393200D01*
X89881983Y-44393200D01*
X89881979Y-44393201D01*
X89647989Y-44424006D01*
X89420006Y-44485094D01*
X89201954Y-44575414D01*
X89201943Y-44575419D01*
X88997545Y-44693430D01*
X88810302Y-44837106D01*
X88810295Y-44837112D01*
X88643412Y-45003995D01*
X88643406Y-45004002D01*
X88499730Y-45191245D01*
X88381719Y-45395643D01*
X88381714Y-45395654D01*
X88291394Y-45613706D01*
X88230306Y-45841689D01*
X88199501Y-46075679D01*
X88199500Y-46075695D01*
X77800500Y-46075695D01*
X77800500Y-45995689D01*
X77769693Y-45761686D01*
X77708606Y-45533707D01*
X77618284Y-45315651D01*
X77618282Y-45315648D01*
X77618280Y-45315643D01*
X77546458Y-45191245D01*
X77500273Y-45111250D01*
X77417978Y-45004001D01*
X77356593Y-44924002D01*
X77356587Y-44923995D01*
X77189704Y-44757112D01*
X77189697Y-44757106D01*
X77002454Y-44613430D01*
X77002453Y-44613429D01*
X77002450Y-44613427D01*
X76920957Y-44566377D01*
X76798056Y-44495419D01*
X76798045Y-44495414D01*
X76579993Y-44405094D01*
X76352010Y-44344006D01*
X76118020Y-44313201D01*
X76118017Y-44313200D01*
X76118011Y-44313200D01*
X75881989Y-44313200D01*
X75881983Y-44313200D01*
X75881979Y-44313201D01*
X75647989Y-44344006D01*
X75420006Y-44405094D01*
X75201954Y-44495414D01*
X75201943Y-44495419D01*
X74997545Y-44613430D01*
X74810302Y-44757106D01*
X74810295Y-44757112D01*
X74643412Y-44923995D01*
X74643406Y-44924002D01*
X74499730Y-45111245D01*
X74381719Y-45315643D01*
X74381714Y-45315654D01*
X74291394Y-45533706D01*
X74230306Y-45761689D01*
X74199501Y-45995679D01*
X74199500Y-45995695D01*
X70500500Y-45995695D01*
X70500500Y-39933683D01*
X74199500Y-39933683D01*
X74199500Y-42133701D01*
X74199501Y-42133718D01*
X74210000Y-42236496D01*
X74210001Y-42236499D01*
X74265185Y-42403031D01*
X74265187Y-42403036D01*
X74286707Y-42437926D01*
X74357288Y-42552356D01*
X74481344Y-42676412D01*
X74630666Y-42768514D01*
X74797203Y-42823699D01*
X74899991Y-42834200D01*
X77100008Y-42834199D01*
X77202797Y-42823699D01*
X77369334Y-42768514D01*
X77518656Y-42676412D01*
X77642712Y-42552356D01*
X77734814Y-42403034D01*
X77789999Y-42236497D01*
X77800500Y-42133709D01*
X77800499Y-40995714D01*
X88200000Y-40995714D01*
X88200000Y-41231685D01*
X88230799Y-41465614D01*
X88291870Y-41693537D01*
X88382160Y-41911519D01*
X88382165Y-41911528D01*
X88500144Y-42115871D01*
X88500145Y-42115872D01*
X88562721Y-42197423D01*
X89398958Y-41361187D01*
X89423978Y-41421590D01*
X89495112Y-41528051D01*
X89585649Y-41618588D01*
X89692110Y-41689722D01*
X89752511Y-41714741D01*
X88916275Y-42550977D01*
X88997827Y-42613554D01*
X88997828Y-42613555D01*
X89202171Y-42731534D01*
X89202180Y-42731539D01*
X89420163Y-42821829D01*
X89420161Y-42821829D01*
X89648085Y-42882900D01*
X89882014Y-42913699D01*
X89882029Y-42913700D01*
X90117971Y-42913700D01*
X90117985Y-42913699D01*
X90351914Y-42882900D01*
X90579837Y-42821829D01*
X90797819Y-42731539D01*
X90797828Y-42731534D01*
X91002181Y-42613550D01*
X91083723Y-42550979D01*
X91083723Y-42550976D01*
X90247487Y-41714741D01*
X90307890Y-41689722D01*
X90414351Y-41618588D01*
X90504888Y-41528051D01*
X90576022Y-41421590D01*
X90601041Y-41361187D01*
X91437276Y-42197423D01*
X91437279Y-42197423D01*
X91499850Y-42115881D01*
X91617834Y-41911528D01*
X91617839Y-41911519D01*
X91708129Y-41693537D01*
X91769200Y-41465614D01*
X91799999Y-41231685D01*
X91800000Y-41231671D01*
X91800000Y-40995728D01*
X91799999Y-40995714D01*
X91769200Y-40761785D01*
X91708129Y-40533862D01*
X91617839Y-40315880D01*
X91617834Y-40315871D01*
X91499855Y-40111528D01*
X91499854Y-40111527D01*
X91437277Y-40029975D01*
X90601041Y-40866211D01*
X90576022Y-40805810D01*
X90504888Y-40699349D01*
X90414351Y-40608812D01*
X90307890Y-40537678D01*
X90247488Y-40512658D01*
X91083723Y-39676421D01*
X91002172Y-39613845D01*
X91002171Y-39613844D01*
X90797828Y-39495865D01*
X90797819Y-39495860D01*
X90579836Y-39405570D01*
X90579838Y-39405570D01*
X90351914Y-39344499D01*
X90117985Y-39313700D01*
X89882014Y-39313700D01*
X89648085Y-39344499D01*
X89420162Y-39405570D01*
X89202180Y-39495860D01*
X89202171Y-39495865D01*
X88997828Y-39613844D01*
X88997818Y-39613850D01*
X88916275Y-39676420D01*
X88916275Y-39676421D01*
X89752512Y-40512658D01*
X89692110Y-40537678D01*
X89585649Y-40608812D01*
X89495112Y-40699349D01*
X89423978Y-40805810D01*
X89398958Y-40866211D01*
X88562721Y-40029975D01*
X88562720Y-40029975D01*
X88500150Y-40111518D01*
X88500144Y-40111528D01*
X88382165Y-40315871D01*
X88382160Y-40315880D01*
X88291870Y-40533862D01*
X88230799Y-40761785D01*
X88200000Y-40995714D01*
X77800499Y-40995714D01*
X77800499Y-39933692D01*
X77789999Y-39830903D01*
X77734814Y-39664366D01*
X77642712Y-39515044D01*
X77518656Y-39390988D01*
X77425888Y-39333769D01*
X77369336Y-39298887D01*
X77369331Y-39298885D01*
X77367862Y-39298398D01*
X77202797Y-39243701D01*
X77202795Y-39243700D01*
X77100010Y-39233200D01*
X74899998Y-39233200D01*
X74899981Y-39233201D01*
X74797203Y-39243700D01*
X74797200Y-39243701D01*
X74630668Y-39298885D01*
X74630663Y-39298887D01*
X74481342Y-39390989D01*
X74357289Y-39515042D01*
X74265187Y-39664363D01*
X74265185Y-39664368D01*
X74261191Y-39676421D01*
X74210001Y-39830903D01*
X74210001Y-39830904D01*
X74210000Y-39830904D01*
X74199500Y-39933683D01*
X70500500Y-39933683D01*
X70500500Y-33874002D01*
X72399500Y-33874002D01*
X72399500Y-34125925D01*
X72438910Y-34374749D01*
X72516760Y-34614347D01*
X72631132Y-34838812D01*
X72779201Y-35042613D01*
X72779205Y-35042618D01*
X72957345Y-35220758D01*
X72957350Y-35220762D01*
X73113890Y-35334494D01*
X73161155Y-35368834D01*
X73304184Y-35441711D01*
X73385616Y-35483203D01*
X73385618Y-35483203D01*
X73385621Y-35483205D01*
X73625215Y-35561054D01*
X73874038Y-35600464D01*
X73874039Y-35600464D01*
X74125961Y-35600464D01*
X74125962Y-35600464D01*
X74374785Y-35561054D01*
X74614379Y-35483205D01*
X74838845Y-35368834D01*
X75042656Y-35220757D01*
X75220793Y-35042620D01*
X75368870Y-34838809D01*
X75483241Y-34614343D01*
X75561090Y-34374749D01*
X75600500Y-34125926D01*
X75600500Y-33987738D01*
X90399500Y-33987738D01*
X90399500Y-34239661D01*
X90438910Y-34488485D01*
X90516760Y-34728083D01*
X90631132Y-34952548D01*
X90779201Y-35156349D01*
X90779205Y-35156354D01*
X90957345Y-35334494D01*
X90957350Y-35334498D01*
X91004606Y-35368831D01*
X91161155Y-35482570D01*
X91304184Y-35555447D01*
X91385616Y-35596939D01*
X91385618Y-35596939D01*
X91385621Y-35596941D01*
X91625215Y-35674790D01*
X91874038Y-35714200D01*
X91874039Y-35714200D01*
X92125961Y-35714200D01*
X92125962Y-35714200D01*
X92374785Y-35674790D01*
X92614379Y-35596941D01*
X92838845Y-35482570D01*
X93042656Y-35334493D01*
X93220793Y-35156356D01*
X93368870Y-34952545D01*
X93483241Y-34728079D01*
X93561090Y-34488485D01*
X93600500Y-34239662D01*
X93600500Y-33987738D01*
X93561090Y-33738915D01*
X93483241Y-33499321D01*
X93483239Y-33499318D01*
X93483239Y-33499316D01*
X93441747Y-33417884D01*
X93368870Y-33274855D01*
X93308409Y-33191637D01*
X93220798Y-33071050D01*
X93220794Y-33071045D01*
X93042654Y-32892905D01*
X93042649Y-32892901D01*
X92838848Y-32744832D01*
X92838847Y-32744831D01*
X92838845Y-32744830D01*
X92736507Y-32692686D01*
X92614383Y-32630460D01*
X92374785Y-32552610D01*
X92148211Y-32516724D01*
X92125962Y-32513200D01*
X91874038Y-32513200D01*
X91851789Y-32516724D01*
X91625214Y-32552610D01*
X91385616Y-32630460D01*
X91161151Y-32744832D01*
X90957350Y-32892901D01*
X90957345Y-32892905D01*
X90779205Y-33071045D01*
X90779201Y-33071050D01*
X90631132Y-33274851D01*
X90516760Y-33499316D01*
X90438910Y-33738914D01*
X90399500Y-33987738D01*
X75600500Y-33987738D01*
X75600500Y-33874002D01*
X75561090Y-33625179D01*
X75483241Y-33385585D01*
X75483239Y-33385582D01*
X75483239Y-33385580D01*
X75426819Y-33274851D01*
X75368870Y-33161119D01*
X75303427Y-33071044D01*
X75220798Y-32957314D01*
X75220794Y-32957309D01*
X75042654Y-32779169D01*
X75042649Y-32779165D01*
X74838848Y-32631096D01*
X74838847Y-32631095D01*
X74838845Y-32631094D01*
X74768747Y-32595377D01*
X74614383Y-32516724D01*
X74374785Y-32438874D01*
X74125962Y-32399464D01*
X73874038Y-32399464D01*
X73749626Y-32419169D01*
X73625214Y-32438874D01*
X73385616Y-32516724D01*
X73161151Y-32631096D01*
X72957350Y-32779165D01*
X72957345Y-32779169D01*
X72779205Y-32957309D01*
X72779201Y-32957314D01*
X72631132Y-33161115D01*
X72516760Y-33385580D01*
X72438910Y-33625178D01*
X72399500Y-33874002D01*
X70500500Y-33874002D01*
X70500500Y-33258676D01*
X70520185Y-33191637D01*
X70536819Y-33170995D01*
X73170995Y-30536819D01*
X73232318Y-30503334D01*
X73258676Y-30500500D01*
X92741324Y-30500500D01*
X92808363Y-30520185D01*
G37*
%TD.AperFunction*%
%TD*%
M02*
