%TF.GenerationSoftware,KiCad,Pcbnew,9.0.7*%
%TF.CreationDate,2026-02-02T17:13:14+00:00*%
%TF.ProjectId,guitarwire,67756974-6172-4776-9972-652e6b696361,rev?*%
%TF.SameCoordinates,Original*%
%TF.FileFunction,Legend,Top*%
%TF.FilePolarity,Positive*%
%FSLAX46Y46*%
G04 Gerber Fmt 4.6, Leading zero omitted, Abs format (unit mm)*
G04 Created by KiCad (PCBNEW 9.0.7) date 2026-02-02 17:13:14*
%MOMM*%
%LPD*%
G01*
G04 APERTURE LIST*
%ADD10C,0.100000*%
%ADD11C,0.175000*%
%ADD12C,0.150000*%
%ADD13C,0.120000*%
G04 APERTURE END LIST*
D10*
X81628920Y-84897026D02*
X84968920Y-84897026D01*
X84968920Y-87044526D01*
X81628920Y-87044526D01*
X81628920Y-84897026D01*
X78252967Y-39700456D02*
X83072967Y-39700456D01*
X83072967Y-45824192D01*
X78252967Y-45824192D01*
X78252967Y-39700456D01*
X82375432Y-48993143D02*
X87695432Y-48993143D01*
X87695432Y-55446879D01*
X82375432Y-55446879D01*
X82375432Y-48993143D01*
X82445432Y-50493143D02*
X87695432Y-50493143D01*
X82791534Y-67172548D02*
X88091534Y-67172548D01*
X88091534Y-73272548D01*
X82791534Y-73272548D01*
X82791534Y-67172548D01*
X78252967Y-42762324D02*
X83072967Y-42762324D01*
X82841534Y-71772548D02*
X88091534Y-71772548D01*
X82841534Y-68772548D02*
X88091534Y-68772548D01*
X78628920Y-84897026D02*
X81628920Y-84897026D01*
X81628920Y-87044526D01*
X78628920Y-87044526D01*
X78628920Y-84897026D01*
X82445432Y-52243143D02*
X87695432Y-52243143D01*
X77907437Y-77150000D02*
X83157437Y-77150000D01*
X83157437Y-82330000D01*
X77907437Y-82330000D01*
X77907437Y-77150000D01*
X82445432Y-53743143D02*
X87695432Y-53743143D01*
X77907437Y-78900000D02*
X83157437Y-78900000D01*
X78252967Y-41200456D02*
X83002967Y-41200456D01*
X77907437Y-80650000D02*
X83157437Y-80650000D01*
X78252967Y-44200456D02*
X83002967Y-44200456D01*
X82791534Y-70272548D02*
X88091534Y-70272548D01*
D11*
X83663807Y-69496495D02*
X83778093Y-69534590D01*
X83778093Y-69534590D02*
X83816188Y-69572686D01*
X83816188Y-69572686D02*
X83854284Y-69648876D01*
X83854284Y-69648876D02*
X83854284Y-69763162D01*
X83854284Y-69763162D02*
X83816188Y-69839352D01*
X83816188Y-69839352D02*
X83778093Y-69877448D01*
X83778093Y-69877448D02*
X83701903Y-69915543D01*
X83701903Y-69915543D02*
X83397141Y-69915543D01*
X83397141Y-69915543D02*
X83397141Y-69115543D01*
X83397141Y-69115543D02*
X83663807Y-69115543D01*
X83663807Y-69115543D02*
X83739998Y-69153638D01*
X83739998Y-69153638D02*
X83778093Y-69191733D01*
X83778093Y-69191733D02*
X83816188Y-69267924D01*
X83816188Y-69267924D02*
X83816188Y-69344114D01*
X83816188Y-69344114D02*
X83778093Y-69420305D01*
X83778093Y-69420305D02*
X83739998Y-69458400D01*
X83739998Y-69458400D02*
X83663807Y-69496495D01*
X83663807Y-69496495D02*
X83397141Y-69496495D01*
X84006665Y-69991733D02*
X84616188Y-69991733D01*
X85263808Y-69915543D02*
X84997141Y-69534590D01*
X84806665Y-69915543D02*
X84806665Y-69115543D01*
X84806665Y-69115543D02*
X85111427Y-69115543D01*
X85111427Y-69115543D02*
X85187617Y-69153638D01*
X85187617Y-69153638D02*
X85225712Y-69191733D01*
X85225712Y-69191733D02*
X85263808Y-69267924D01*
X85263808Y-69267924D02*
X85263808Y-69382209D01*
X85263808Y-69382209D02*
X85225712Y-69458400D01*
X85225712Y-69458400D02*
X85187617Y-69496495D01*
X85187617Y-69496495D02*
X85111427Y-69534590D01*
X85111427Y-69534590D02*
X84806665Y-69534590D01*
X85606665Y-69496495D02*
X85873331Y-69496495D01*
X85987617Y-69915543D02*
X85606665Y-69915543D01*
X85606665Y-69915543D02*
X85606665Y-69115543D01*
X85606665Y-69115543D02*
X85987617Y-69115543D01*
X86330475Y-69915543D02*
X86330475Y-69115543D01*
X86330475Y-69115543D02*
X86520951Y-69115543D01*
X86520951Y-69115543D02*
X86635237Y-69153638D01*
X86635237Y-69153638D02*
X86711427Y-69229828D01*
X86711427Y-69229828D02*
X86749522Y-69306019D01*
X86749522Y-69306019D02*
X86787618Y-69458400D01*
X86787618Y-69458400D02*
X86787618Y-69572686D01*
X86787618Y-69572686D02*
X86749522Y-69725067D01*
X86749522Y-69725067D02*
X86711427Y-69801257D01*
X86711427Y-69801257D02*
X86635237Y-69877448D01*
X86635237Y-69877448D02*
X86520951Y-69915543D01*
X86520951Y-69915543D02*
X86330475Y-69915543D01*
X91605607Y-39192995D02*
X91605607Y-38392995D01*
X91605607Y-38392995D02*
X92062750Y-39192995D01*
X92062750Y-39192995D02*
X92062750Y-38392995D01*
X92443702Y-38773947D02*
X92710368Y-38773947D01*
X92824654Y-39192995D02*
X92443702Y-39192995D01*
X92443702Y-39192995D02*
X92443702Y-38392995D01*
X92443702Y-38392995D02*
X92824654Y-38392995D01*
X93624655Y-39116804D02*
X93586559Y-39154900D01*
X93586559Y-39154900D02*
X93472274Y-39192995D01*
X93472274Y-39192995D02*
X93396083Y-39192995D01*
X93396083Y-39192995D02*
X93281797Y-39154900D01*
X93281797Y-39154900D02*
X93205607Y-39078709D01*
X93205607Y-39078709D02*
X93167512Y-39002519D01*
X93167512Y-39002519D02*
X93129416Y-38850138D01*
X93129416Y-38850138D02*
X93129416Y-38735852D01*
X93129416Y-38735852D02*
X93167512Y-38583471D01*
X93167512Y-38583471D02*
X93205607Y-38507280D01*
X93205607Y-38507280D02*
X93281797Y-38431090D01*
X93281797Y-38431090D02*
X93396083Y-38392995D01*
X93396083Y-38392995D02*
X93472274Y-38392995D01*
X93472274Y-38392995D02*
X93586559Y-38431090D01*
X93586559Y-38431090D02*
X93624655Y-38469185D01*
X93967512Y-39192995D02*
X93967512Y-38392995D01*
X94424655Y-39192995D02*
X94081797Y-38735852D01*
X94424655Y-38392995D02*
X93967512Y-38850138D01*
X78348758Y-79242995D02*
X78615425Y-80042995D01*
X78615425Y-80042995D02*
X78882091Y-79242995D01*
X79301139Y-79242995D02*
X79453520Y-79242995D01*
X79453520Y-79242995D02*
X79529710Y-79281090D01*
X79529710Y-79281090D02*
X79605901Y-79357280D01*
X79605901Y-79357280D02*
X79643996Y-79509661D01*
X79643996Y-79509661D02*
X79643996Y-79776328D01*
X79643996Y-79776328D02*
X79605901Y-79928709D01*
X79605901Y-79928709D02*
X79529710Y-80004900D01*
X79529710Y-80004900D02*
X79453520Y-80042995D01*
X79453520Y-80042995D02*
X79301139Y-80042995D01*
X79301139Y-80042995D02*
X79224948Y-80004900D01*
X79224948Y-80004900D02*
X79148758Y-79928709D01*
X79148758Y-79928709D02*
X79110662Y-79776328D01*
X79110662Y-79776328D02*
X79110662Y-79509661D01*
X79110662Y-79509661D02*
X79148758Y-79357280D01*
X79148758Y-79357280D02*
X79224948Y-79281090D01*
X79224948Y-79281090D02*
X79301139Y-79242995D01*
X80367805Y-80042995D02*
X79986853Y-80042995D01*
X79986853Y-80042995D02*
X79986853Y-79242995D01*
X78808574Y-40843451D02*
X78808574Y-40043451D01*
X78808574Y-40043451D02*
X79265717Y-40843451D01*
X79265717Y-40843451D02*
X79265717Y-40043451D01*
X79646669Y-40424403D02*
X79913335Y-40424403D01*
X80027621Y-40843451D02*
X79646669Y-40843451D01*
X79646669Y-40843451D02*
X79646669Y-40043451D01*
X79646669Y-40043451D02*
X80027621Y-40043451D01*
X80827622Y-40767260D02*
X80789526Y-40805356D01*
X80789526Y-40805356D02*
X80675241Y-40843451D01*
X80675241Y-40843451D02*
X80599050Y-40843451D01*
X80599050Y-40843451D02*
X80484764Y-40805356D01*
X80484764Y-40805356D02*
X80408574Y-40729165D01*
X80408574Y-40729165D02*
X80370479Y-40652975D01*
X80370479Y-40652975D02*
X80332383Y-40500594D01*
X80332383Y-40500594D02*
X80332383Y-40386308D01*
X80332383Y-40386308D02*
X80370479Y-40233927D01*
X80370479Y-40233927D02*
X80408574Y-40157736D01*
X80408574Y-40157736D02*
X80484764Y-40081546D01*
X80484764Y-40081546D02*
X80599050Y-40043451D01*
X80599050Y-40043451D02*
X80675241Y-40043451D01*
X80675241Y-40043451D02*
X80789526Y-40081546D01*
X80789526Y-40081546D02*
X80827622Y-40119641D01*
X81170479Y-40843451D02*
X81170479Y-40043451D01*
X81627622Y-40843451D02*
X81284764Y-40386308D01*
X81627622Y-40043451D02*
X81170479Y-40500594D01*
X71658464Y-39240238D02*
X71772750Y-39278333D01*
X71772750Y-39278333D02*
X71963226Y-39278333D01*
X71963226Y-39278333D02*
X72039417Y-39240238D01*
X72039417Y-39240238D02*
X72077512Y-39202142D01*
X72077512Y-39202142D02*
X72115607Y-39125952D01*
X72115607Y-39125952D02*
X72115607Y-39049761D01*
X72115607Y-39049761D02*
X72077512Y-38973571D01*
X72077512Y-38973571D02*
X72039417Y-38935476D01*
X72039417Y-38935476D02*
X71963226Y-38897380D01*
X71963226Y-38897380D02*
X71810845Y-38859285D01*
X71810845Y-38859285D02*
X71734655Y-38821190D01*
X71734655Y-38821190D02*
X71696560Y-38783095D01*
X71696560Y-38783095D02*
X71658464Y-38706904D01*
X71658464Y-38706904D02*
X71658464Y-38630714D01*
X71658464Y-38630714D02*
X71696560Y-38554523D01*
X71696560Y-38554523D02*
X71734655Y-38516428D01*
X71734655Y-38516428D02*
X71810845Y-38478333D01*
X71810845Y-38478333D02*
X72001322Y-38478333D01*
X72001322Y-38478333D02*
X72115607Y-38516428D01*
X72382274Y-38478333D02*
X72572750Y-39278333D01*
X72572750Y-39278333D02*
X72725131Y-38706904D01*
X72725131Y-38706904D02*
X72877512Y-39278333D01*
X72877512Y-39278333D02*
X73067989Y-38478333D01*
X73372751Y-39278333D02*
X73372751Y-38478333D01*
X73639417Y-38478333D02*
X74096560Y-38478333D01*
X73867988Y-39278333D02*
X73867988Y-38478333D01*
X74820370Y-39202142D02*
X74782274Y-39240238D01*
X74782274Y-39240238D02*
X74667989Y-39278333D01*
X74667989Y-39278333D02*
X74591798Y-39278333D01*
X74591798Y-39278333D02*
X74477512Y-39240238D01*
X74477512Y-39240238D02*
X74401322Y-39164047D01*
X74401322Y-39164047D02*
X74363227Y-39087857D01*
X74363227Y-39087857D02*
X74325131Y-38935476D01*
X74325131Y-38935476D02*
X74325131Y-38821190D01*
X74325131Y-38821190D02*
X74363227Y-38668809D01*
X74363227Y-38668809D02*
X74401322Y-38592618D01*
X74401322Y-38592618D02*
X74477512Y-38516428D01*
X74477512Y-38516428D02*
X74591798Y-38478333D01*
X74591798Y-38478333D02*
X74667989Y-38478333D01*
X74667989Y-38478333D02*
X74782274Y-38516428D01*
X74782274Y-38516428D02*
X74820370Y-38554523D01*
X75163227Y-39278333D02*
X75163227Y-38478333D01*
X75163227Y-38859285D02*
X75620370Y-38859285D01*
X75620370Y-39278333D02*
X75620370Y-38478333D01*
X79227621Y-44581546D02*
X79151431Y-44543451D01*
X79151431Y-44543451D02*
X79037145Y-44543451D01*
X79037145Y-44543451D02*
X78922859Y-44581546D01*
X78922859Y-44581546D02*
X78846669Y-44657736D01*
X78846669Y-44657736D02*
X78808574Y-44733927D01*
X78808574Y-44733927D02*
X78770478Y-44886308D01*
X78770478Y-44886308D02*
X78770478Y-45000594D01*
X78770478Y-45000594D02*
X78808574Y-45152975D01*
X78808574Y-45152975D02*
X78846669Y-45229165D01*
X78846669Y-45229165D02*
X78922859Y-45305356D01*
X78922859Y-45305356D02*
X79037145Y-45343451D01*
X79037145Y-45343451D02*
X79113336Y-45343451D01*
X79113336Y-45343451D02*
X79227621Y-45305356D01*
X79227621Y-45305356D02*
X79265717Y-45267260D01*
X79265717Y-45267260D02*
X79265717Y-45000594D01*
X79265717Y-45000594D02*
X79113336Y-45000594D01*
X79608574Y-45343451D02*
X79608574Y-44543451D01*
X79608574Y-44543451D02*
X80065717Y-45343451D01*
X80065717Y-45343451D02*
X80065717Y-44543451D01*
X80446669Y-45343451D02*
X80446669Y-44543451D01*
X80446669Y-44543451D02*
X80637145Y-44543451D01*
X80637145Y-44543451D02*
X80751431Y-44581546D01*
X80751431Y-44581546D02*
X80827621Y-44657736D01*
X80827621Y-44657736D02*
X80865716Y-44733927D01*
X80865716Y-44733927D02*
X80903812Y-44886308D01*
X80903812Y-44886308D02*
X80903812Y-45000594D01*
X80903812Y-45000594D02*
X80865716Y-45152975D01*
X80865716Y-45152975D02*
X80827621Y-45229165D01*
X80827621Y-45229165D02*
X80751431Y-45305356D01*
X80751431Y-45305356D02*
X80637145Y-45343451D01*
X80637145Y-45343451D02*
X80446669Y-45343451D01*
X83001039Y-50136138D02*
X83001039Y-49336138D01*
X83001039Y-49336138D02*
X83458182Y-50136138D01*
X83458182Y-50136138D02*
X83458182Y-49336138D01*
X83648658Y-50212328D02*
X84258181Y-50212328D01*
X84867705Y-49374233D02*
X84791515Y-49336138D01*
X84791515Y-49336138D02*
X84677229Y-49336138D01*
X84677229Y-49336138D02*
X84562943Y-49374233D01*
X84562943Y-49374233D02*
X84486753Y-49450423D01*
X84486753Y-49450423D02*
X84448658Y-49526614D01*
X84448658Y-49526614D02*
X84410562Y-49678995D01*
X84410562Y-49678995D02*
X84410562Y-49793281D01*
X84410562Y-49793281D02*
X84448658Y-49945662D01*
X84448658Y-49945662D02*
X84486753Y-50021852D01*
X84486753Y-50021852D02*
X84562943Y-50098043D01*
X84562943Y-50098043D02*
X84677229Y-50136138D01*
X84677229Y-50136138D02*
X84753420Y-50136138D01*
X84753420Y-50136138D02*
X84867705Y-50098043D01*
X84867705Y-50098043D02*
X84905801Y-50059947D01*
X84905801Y-50059947D02*
X84905801Y-49793281D01*
X84905801Y-49793281D02*
X84753420Y-49793281D01*
X85248658Y-50136138D02*
X85248658Y-49336138D01*
X85248658Y-49336138D02*
X85705801Y-50136138D01*
X85705801Y-50136138D02*
X85705801Y-49336138D01*
X86086753Y-50136138D02*
X86086753Y-49336138D01*
X86086753Y-49336138D02*
X86277229Y-49336138D01*
X86277229Y-49336138D02*
X86391515Y-49374233D01*
X86391515Y-49374233D02*
X86467705Y-49450423D01*
X86467705Y-49450423D02*
X86505800Y-49526614D01*
X86505800Y-49526614D02*
X86543896Y-49678995D01*
X86543896Y-49678995D02*
X86543896Y-49793281D01*
X86543896Y-49793281D02*
X86505800Y-49945662D01*
X86505800Y-49945662D02*
X86467705Y-50021852D01*
X86467705Y-50021852D02*
X86391515Y-50098043D01*
X86391515Y-50098043D02*
X86277229Y-50136138D01*
X86277229Y-50136138D02*
X86086753Y-50136138D01*
X83001039Y-54886138D02*
X83001039Y-54086138D01*
X83001039Y-54086138D02*
X83458182Y-54886138D01*
X83458182Y-54886138D02*
X83458182Y-54086138D01*
X83648658Y-54962328D02*
X84258181Y-54962328D01*
X84372467Y-54086138D02*
X84562943Y-54886138D01*
X84562943Y-54886138D02*
X84715324Y-54314709D01*
X84715324Y-54314709D02*
X84867705Y-54886138D01*
X84867705Y-54886138D02*
X85058182Y-54086138D01*
X85362944Y-54886138D02*
X85362944Y-54086138D01*
X85362944Y-54467090D02*
X85820087Y-54467090D01*
X85820087Y-54886138D02*
X85820087Y-54086138D01*
X86201039Y-54886138D02*
X86201039Y-54086138D01*
X78882091Y-81031090D02*
X78805901Y-80992995D01*
X78805901Y-80992995D02*
X78691615Y-80992995D01*
X78691615Y-80992995D02*
X78577329Y-81031090D01*
X78577329Y-81031090D02*
X78501139Y-81107280D01*
X78501139Y-81107280D02*
X78463044Y-81183471D01*
X78463044Y-81183471D02*
X78424948Y-81335852D01*
X78424948Y-81335852D02*
X78424948Y-81450138D01*
X78424948Y-81450138D02*
X78463044Y-81602519D01*
X78463044Y-81602519D02*
X78501139Y-81678709D01*
X78501139Y-81678709D02*
X78577329Y-81754900D01*
X78577329Y-81754900D02*
X78691615Y-81792995D01*
X78691615Y-81792995D02*
X78767806Y-81792995D01*
X78767806Y-81792995D02*
X78882091Y-81754900D01*
X78882091Y-81754900D02*
X78920187Y-81716804D01*
X78920187Y-81716804D02*
X78920187Y-81450138D01*
X78920187Y-81450138D02*
X78767806Y-81450138D01*
X79263044Y-81792995D02*
X79263044Y-80992995D01*
X79263044Y-80992995D02*
X79720187Y-81792995D01*
X79720187Y-81792995D02*
X79720187Y-80992995D01*
X80101139Y-81792995D02*
X80101139Y-80992995D01*
X80101139Y-80992995D02*
X80291615Y-80992995D01*
X80291615Y-80992995D02*
X80405901Y-81031090D01*
X80405901Y-81031090D02*
X80482091Y-81107280D01*
X80482091Y-81107280D02*
X80520186Y-81183471D01*
X80520186Y-81183471D02*
X80558282Y-81335852D01*
X80558282Y-81335852D02*
X80558282Y-81450138D01*
X80558282Y-81450138D02*
X80520186Y-81602519D01*
X80520186Y-81602519D02*
X80482091Y-81678709D01*
X80482091Y-81678709D02*
X80405901Y-81754900D01*
X80405901Y-81754900D02*
X80291615Y-81792995D01*
X80291615Y-81792995D02*
X80101139Y-81792995D01*
X82586908Y-85637521D02*
X82739289Y-85637521D01*
X82739289Y-85637521D02*
X82815479Y-85675616D01*
X82815479Y-85675616D02*
X82891670Y-85751806D01*
X82891670Y-85751806D02*
X82929765Y-85904187D01*
X82929765Y-85904187D02*
X82929765Y-86170854D01*
X82929765Y-86170854D02*
X82891670Y-86323235D01*
X82891670Y-86323235D02*
X82815479Y-86399426D01*
X82815479Y-86399426D02*
X82739289Y-86437521D01*
X82739289Y-86437521D02*
X82586908Y-86437521D01*
X82586908Y-86437521D02*
X82510717Y-86399426D01*
X82510717Y-86399426D02*
X82434527Y-86323235D01*
X82434527Y-86323235D02*
X82396431Y-86170854D01*
X82396431Y-86170854D02*
X82396431Y-85904187D01*
X82396431Y-85904187D02*
X82434527Y-85751806D01*
X82434527Y-85751806D02*
X82510717Y-85675616D01*
X82510717Y-85675616D02*
X82586908Y-85637521D01*
X83272622Y-85637521D02*
X83272622Y-86285140D01*
X83272622Y-86285140D02*
X83310717Y-86361330D01*
X83310717Y-86361330D02*
X83348812Y-86399426D01*
X83348812Y-86399426D02*
X83425003Y-86437521D01*
X83425003Y-86437521D02*
X83577384Y-86437521D01*
X83577384Y-86437521D02*
X83653574Y-86399426D01*
X83653574Y-86399426D02*
X83691669Y-86361330D01*
X83691669Y-86361330D02*
X83729765Y-86285140D01*
X83729765Y-86285140D02*
X83729765Y-85637521D01*
X83996431Y-85637521D02*
X84453574Y-85637521D01*
X84225002Y-86437521D02*
X84225002Y-85637521D01*
X78424948Y-78254900D02*
X78539234Y-78292995D01*
X78539234Y-78292995D02*
X78729710Y-78292995D01*
X78729710Y-78292995D02*
X78805901Y-78254900D01*
X78805901Y-78254900D02*
X78843996Y-78216804D01*
X78843996Y-78216804D02*
X78882091Y-78140614D01*
X78882091Y-78140614D02*
X78882091Y-78064423D01*
X78882091Y-78064423D02*
X78843996Y-77988233D01*
X78843996Y-77988233D02*
X78805901Y-77950138D01*
X78805901Y-77950138D02*
X78729710Y-77912042D01*
X78729710Y-77912042D02*
X78577329Y-77873947D01*
X78577329Y-77873947D02*
X78501139Y-77835852D01*
X78501139Y-77835852D02*
X78463044Y-77797757D01*
X78463044Y-77797757D02*
X78424948Y-77721566D01*
X78424948Y-77721566D02*
X78424948Y-77645376D01*
X78424948Y-77645376D02*
X78463044Y-77569185D01*
X78463044Y-77569185D02*
X78501139Y-77531090D01*
X78501139Y-77531090D02*
X78577329Y-77492995D01*
X78577329Y-77492995D02*
X78767806Y-77492995D01*
X78767806Y-77492995D02*
X78882091Y-77531090D01*
X79148758Y-77492995D02*
X79339234Y-78292995D01*
X79339234Y-78292995D02*
X79491615Y-77721566D01*
X79491615Y-77721566D02*
X79643996Y-78292995D01*
X79643996Y-78292995D02*
X79834473Y-77492995D01*
X80139235Y-78292995D02*
X80139235Y-77492995D01*
X80405901Y-77492995D02*
X80863044Y-77492995D01*
X80634472Y-78292995D02*
X80634472Y-77492995D01*
X81586854Y-78216804D02*
X81548758Y-78254900D01*
X81548758Y-78254900D02*
X81434473Y-78292995D01*
X81434473Y-78292995D02*
X81358282Y-78292995D01*
X81358282Y-78292995D02*
X81243996Y-78254900D01*
X81243996Y-78254900D02*
X81167806Y-78178709D01*
X81167806Y-78178709D02*
X81129711Y-78102519D01*
X81129711Y-78102519D02*
X81091615Y-77950138D01*
X81091615Y-77950138D02*
X81091615Y-77835852D01*
X81091615Y-77835852D02*
X81129711Y-77683471D01*
X81129711Y-77683471D02*
X81167806Y-77607280D01*
X81167806Y-77607280D02*
X81243996Y-77531090D01*
X81243996Y-77531090D02*
X81358282Y-77492995D01*
X81358282Y-77492995D02*
X81434473Y-77492995D01*
X81434473Y-77492995D02*
X81548758Y-77531090D01*
X81548758Y-77531090D02*
X81586854Y-77569185D01*
X81929711Y-78292995D02*
X81929711Y-77492995D01*
X81929711Y-77873947D02*
X82386854Y-77873947D01*
X82386854Y-78292995D02*
X82386854Y-77492995D01*
X83001039Y-53386138D02*
X83001039Y-52586138D01*
X83001039Y-52586138D02*
X83458182Y-53386138D01*
X83458182Y-53386138D02*
X83458182Y-52586138D01*
X83648658Y-53462328D02*
X84258181Y-53462328D01*
X84715324Y-52967090D02*
X84829610Y-53005185D01*
X84829610Y-53005185D02*
X84867705Y-53043281D01*
X84867705Y-53043281D02*
X84905801Y-53119471D01*
X84905801Y-53119471D02*
X84905801Y-53233757D01*
X84905801Y-53233757D02*
X84867705Y-53309947D01*
X84867705Y-53309947D02*
X84829610Y-53348043D01*
X84829610Y-53348043D02*
X84753420Y-53386138D01*
X84753420Y-53386138D02*
X84448658Y-53386138D01*
X84448658Y-53386138D02*
X84448658Y-52586138D01*
X84448658Y-52586138D02*
X84715324Y-52586138D01*
X84715324Y-52586138D02*
X84791515Y-52624233D01*
X84791515Y-52624233D02*
X84829610Y-52662328D01*
X84829610Y-52662328D02*
X84867705Y-52738519D01*
X84867705Y-52738519D02*
X84867705Y-52814709D01*
X84867705Y-52814709D02*
X84829610Y-52890900D01*
X84829610Y-52890900D02*
X84791515Y-52928995D01*
X84791515Y-52928995D02*
X84715324Y-52967090D01*
X84715324Y-52967090D02*
X84448658Y-52967090D01*
X85629610Y-53386138D02*
X85248658Y-53386138D01*
X85248658Y-53386138D02*
X85248658Y-52586138D01*
X85896277Y-53386138D02*
X85896277Y-52586138D01*
X86353420Y-53386138D02*
X86010562Y-52928995D01*
X86353420Y-52586138D02*
X85896277Y-53043281D01*
X83001039Y-51636138D02*
X83001039Y-50836138D01*
X83001039Y-50836138D02*
X83458182Y-51636138D01*
X83458182Y-51636138D02*
X83458182Y-50836138D01*
X83648658Y-51712328D02*
X84258181Y-51712328D01*
X84905801Y-51636138D02*
X84639134Y-51255185D01*
X84448658Y-51636138D02*
X84448658Y-50836138D01*
X84448658Y-50836138D02*
X84753420Y-50836138D01*
X84753420Y-50836138D02*
X84829610Y-50874233D01*
X84829610Y-50874233D02*
X84867705Y-50912328D01*
X84867705Y-50912328D02*
X84905801Y-50988519D01*
X84905801Y-50988519D02*
X84905801Y-51102804D01*
X84905801Y-51102804D02*
X84867705Y-51178995D01*
X84867705Y-51178995D02*
X84829610Y-51217090D01*
X84829610Y-51217090D02*
X84753420Y-51255185D01*
X84753420Y-51255185D02*
X84448658Y-51255185D01*
X85248658Y-51217090D02*
X85515324Y-51217090D01*
X85629610Y-51636138D02*
X85248658Y-51636138D01*
X85248658Y-51636138D02*
X85248658Y-50836138D01*
X85248658Y-50836138D02*
X85629610Y-50836138D01*
X85972468Y-51636138D02*
X85972468Y-50836138D01*
X85972468Y-50836138D02*
X86162944Y-50836138D01*
X86162944Y-50836138D02*
X86277230Y-50874233D01*
X86277230Y-50874233D02*
X86353420Y-50950423D01*
X86353420Y-50950423D02*
X86391515Y-51026614D01*
X86391515Y-51026614D02*
X86429611Y-51178995D01*
X86429611Y-51178995D02*
X86429611Y-51293281D01*
X86429611Y-51293281D02*
X86391515Y-51445662D01*
X86391515Y-51445662D02*
X86353420Y-51521852D01*
X86353420Y-51521852D02*
X86277230Y-51598043D01*
X86277230Y-51598043D02*
X86162944Y-51636138D01*
X86162944Y-51636138D02*
X85972468Y-51636138D01*
X79603574Y-85675616D02*
X79527384Y-85637521D01*
X79527384Y-85637521D02*
X79413098Y-85637521D01*
X79413098Y-85637521D02*
X79298812Y-85675616D01*
X79298812Y-85675616D02*
X79222622Y-85751806D01*
X79222622Y-85751806D02*
X79184527Y-85827997D01*
X79184527Y-85827997D02*
X79146431Y-85980378D01*
X79146431Y-85980378D02*
X79146431Y-86094664D01*
X79146431Y-86094664D02*
X79184527Y-86247045D01*
X79184527Y-86247045D02*
X79222622Y-86323235D01*
X79222622Y-86323235D02*
X79298812Y-86399426D01*
X79298812Y-86399426D02*
X79413098Y-86437521D01*
X79413098Y-86437521D02*
X79489289Y-86437521D01*
X79489289Y-86437521D02*
X79603574Y-86399426D01*
X79603574Y-86399426D02*
X79641670Y-86361330D01*
X79641670Y-86361330D02*
X79641670Y-86094664D01*
X79641670Y-86094664D02*
X79489289Y-86094664D01*
X79984527Y-86437521D02*
X79984527Y-85637521D01*
X79984527Y-85637521D02*
X80441670Y-86437521D01*
X80441670Y-86437521D02*
X80441670Y-85637521D01*
X80822622Y-86437521D02*
X80822622Y-85637521D01*
X80822622Y-85637521D02*
X81013098Y-85637521D01*
X81013098Y-85637521D02*
X81127384Y-85675616D01*
X81127384Y-85675616D02*
X81203574Y-85751806D01*
X81203574Y-85751806D02*
X81241669Y-85827997D01*
X81241669Y-85827997D02*
X81279765Y-85980378D01*
X81279765Y-85980378D02*
X81279765Y-86094664D01*
X81279765Y-86094664D02*
X81241669Y-86247045D01*
X81241669Y-86247045D02*
X81203574Y-86323235D01*
X81203574Y-86323235D02*
X81127384Y-86399426D01*
X81127384Y-86399426D02*
X81013098Y-86437521D01*
X81013098Y-86437521D02*
X80822622Y-86437521D01*
X83663807Y-67996495D02*
X83778093Y-68034590D01*
X83778093Y-68034590D02*
X83816188Y-68072686D01*
X83816188Y-68072686D02*
X83854284Y-68148876D01*
X83854284Y-68148876D02*
X83854284Y-68263162D01*
X83854284Y-68263162D02*
X83816188Y-68339352D01*
X83816188Y-68339352D02*
X83778093Y-68377448D01*
X83778093Y-68377448D02*
X83701903Y-68415543D01*
X83701903Y-68415543D02*
X83397141Y-68415543D01*
X83397141Y-68415543D02*
X83397141Y-67615543D01*
X83397141Y-67615543D02*
X83663807Y-67615543D01*
X83663807Y-67615543D02*
X83739998Y-67653638D01*
X83739998Y-67653638D02*
X83778093Y-67691733D01*
X83778093Y-67691733D02*
X83816188Y-67767924D01*
X83816188Y-67767924D02*
X83816188Y-67844114D01*
X83816188Y-67844114D02*
X83778093Y-67920305D01*
X83778093Y-67920305D02*
X83739998Y-67958400D01*
X83739998Y-67958400D02*
X83663807Y-67996495D01*
X83663807Y-67996495D02*
X83397141Y-67996495D01*
X84006665Y-68491733D02*
X84616188Y-68491733D01*
X85225712Y-67653638D02*
X85149522Y-67615543D01*
X85149522Y-67615543D02*
X85035236Y-67615543D01*
X85035236Y-67615543D02*
X84920950Y-67653638D01*
X84920950Y-67653638D02*
X84844760Y-67729828D01*
X84844760Y-67729828D02*
X84806665Y-67806019D01*
X84806665Y-67806019D02*
X84768569Y-67958400D01*
X84768569Y-67958400D02*
X84768569Y-68072686D01*
X84768569Y-68072686D02*
X84806665Y-68225067D01*
X84806665Y-68225067D02*
X84844760Y-68301257D01*
X84844760Y-68301257D02*
X84920950Y-68377448D01*
X84920950Y-68377448D02*
X85035236Y-68415543D01*
X85035236Y-68415543D02*
X85111427Y-68415543D01*
X85111427Y-68415543D02*
X85225712Y-68377448D01*
X85225712Y-68377448D02*
X85263808Y-68339352D01*
X85263808Y-68339352D02*
X85263808Y-68072686D01*
X85263808Y-68072686D02*
X85111427Y-68072686D01*
X85606665Y-68415543D02*
X85606665Y-67615543D01*
X85606665Y-67615543D02*
X86063808Y-68415543D01*
X86063808Y-68415543D02*
X86063808Y-67615543D01*
X86444760Y-68415543D02*
X86444760Y-67615543D01*
X86444760Y-67615543D02*
X86635236Y-67615543D01*
X86635236Y-67615543D02*
X86749522Y-67653638D01*
X86749522Y-67653638D02*
X86825712Y-67729828D01*
X86825712Y-67729828D02*
X86863807Y-67806019D01*
X86863807Y-67806019D02*
X86901903Y-67958400D01*
X86901903Y-67958400D02*
X86901903Y-68072686D01*
X86901903Y-68072686D02*
X86863807Y-68225067D01*
X86863807Y-68225067D02*
X86825712Y-68301257D01*
X86825712Y-68301257D02*
X86749522Y-68377448D01*
X86749522Y-68377448D02*
X86635236Y-68415543D01*
X86635236Y-68415543D02*
X86444760Y-68415543D01*
X90881079Y-66131237D02*
X90995365Y-66169332D01*
X90995365Y-66169332D02*
X91033460Y-66207428D01*
X91033460Y-66207428D02*
X91071556Y-66283618D01*
X91071556Y-66283618D02*
X91071556Y-66397904D01*
X91071556Y-66397904D02*
X91033460Y-66474094D01*
X91033460Y-66474094D02*
X90995365Y-66512190D01*
X90995365Y-66512190D02*
X90919175Y-66550285D01*
X90919175Y-66550285D02*
X90614413Y-66550285D01*
X90614413Y-66550285D02*
X90614413Y-65750285D01*
X90614413Y-65750285D02*
X90881079Y-65750285D01*
X90881079Y-65750285D02*
X90957270Y-65788380D01*
X90957270Y-65788380D02*
X90995365Y-65826475D01*
X90995365Y-65826475D02*
X91033460Y-65902666D01*
X91033460Y-65902666D02*
X91033460Y-65978856D01*
X91033460Y-65978856D02*
X90995365Y-66055047D01*
X90995365Y-66055047D02*
X90957270Y-66093142D01*
X90957270Y-66093142D02*
X90881079Y-66131237D01*
X90881079Y-66131237D02*
X90614413Y-66131237D01*
X91871556Y-66550285D02*
X91604889Y-66169332D01*
X91414413Y-66550285D02*
X91414413Y-65750285D01*
X91414413Y-65750285D02*
X91719175Y-65750285D01*
X91719175Y-65750285D02*
X91795365Y-65788380D01*
X91795365Y-65788380D02*
X91833460Y-65826475D01*
X91833460Y-65826475D02*
X91871556Y-65902666D01*
X91871556Y-65902666D02*
X91871556Y-66016951D01*
X91871556Y-66016951D02*
X91833460Y-66093142D01*
X91833460Y-66093142D02*
X91795365Y-66131237D01*
X91795365Y-66131237D02*
X91719175Y-66169332D01*
X91719175Y-66169332D02*
X91414413Y-66169332D01*
X92214413Y-66550285D02*
X92214413Y-65750285D01*
X92595365Y-66550285D02*
X92595365Y-65750285D01*
X92595365Y-65750285D02*
X92785841Y-65750285D01*
X92785841Y-65750285D02*
X92900127Y-65788380D01*
X92900127Y-65788380D02*
X92976317Y-65864570D01*
X92976317Y-65864570D02*
X93014412Y-65940761D01*
X93014412Y-65940761D02*
X93052508Y-66093142D01*
X93052508Y-66093142D02*
X93052508Y-66207428D01*
X93052508Y-66207428D02*
X93014412Y-66359809D01*
X93014412Y-66359809D02*
X92976317Y-66435999D01*
X92976317Y-66435999D02*
X92900127Y-66512190D01*
X92900127Y-66512190D02*
X92785841Y-66550285D01*
X92785841Y-66550285D02*
X92595365Y-66550285D01*
X93814412Y-65788380D02*
X93738222Y-65750285D01*
X93738222Y-65750285D02*
X93623936Y-65750285D01*
X93623936Y-65750285D02*
X93509650Y-65788380D01*
X93509650Y-65788380D02*
X93433460Y-65864570D01*
X93433460Y-65864570D02*
X93395365Y-65940761D01*
X93395365Y-65940761D02*
X93357269Y-66093142D01*
X93357269Y-66093142D02*
X93357269Y-66207428D01*
X93357269Y-66207428D02*
X93395365Y-66359809D01*
X93395365Y-66359809D02*
X93433460Y-66435999D01*
X93433460Y-66435999D02*
X93509650Y-66512190D01*
X93509650Y-66512190D02*
X93623936Y-66550285D01*
X93623936Y-66550285D02*
X93700127Y-66550285D01*
X93700127Y-66550285D02*
X93814412Y-66512190D01*
X93814412Y-66512190D02*
X93852508Y-66474094D01*
X93852508Y-66474094D02*
X93852508Y-66207428D01*
X93852508Y-66207428D02*
X93700127Y-66207428D01*
X94195365Y-66131237D02*
X94462031Y-66131237D01*
X94576317Y-66550285D02*
X94195365Y-66550285D01*
X94195365Y-66550285D02*
X94195365Y-65750285D01*
X94195365Y-65750285D02*
X94576317Y-65750285D01*
X83663807Y-70996495D02*
X83778093Y-71034590D01*
X83778093Y-71034590D02*
X83816188Y-71072686D01*
X83816188Y-71072686D02*
X83854284Y-71148876D01*
X83854284Y-71148876D02*
X83854284Y-71263162D01*
X83854284Y-71263162D02*
X83816188Y-71339352D01*
X83816188Y-71339352D02*
X83778093Y-71377448D01*
X83778093Y-71377448D02*
X83701903Y-71415543D01*
X83701903Y-71415543D02*
X83397141Y-71415543D01*
X83397141Y-71415543D02*
X83397141Y-70615543D01*
X83397141Y-70615543D02*
X83663807Y-70615543D01*
X83663807Y-70615543D02*
X83739998Y-70653638D01*
X83739998Y-70653638D02*
X83778093Y-70691733D01*
X83778093Y-70691733D02*
X83816188Y-70767924D01*
X83816188Y-70767924D02*
X83816188Y-70844114D01*
X83816188Y-70844114D02*
X83778093Y-70920305D01*
X83778093Y-70920305D02*
X83739998Y-70958400D01*
X83739998Y-70958400D02*
X83663807Y-70996495D01*
X83663807Y-70996495D02*
X83397141Y-70996495D01*
X84006665Y-71491733D02*
X84616188Y-71491733D01*
X85073331Y-70996495D02*
X85187617Y-71034590D01*
X85187617Y-71034590D02*
X85225712Y-71072686D01*
X85225712Y-71072686D02*
X85263808Y-71148876D01*
X85263808Y-71148876D02*
X85263808Y-71263162D01*
X85263808Y-71263162D02*
X85225712Y-71339352D01*
X85225712Y-71339352D02*
X85187617Y-71377448D01*
X85187617Y-71377448D02*
X85111427Y-71415543D01*
X85111427Y-71415543D02*
X84806665Y-71415543D01*
X84806665Y-71415543D02*
X84806665Y-70615543D01*
X84806665Y-70615543D02*
X85073331Y-70615543D01*
X85073331Y-70615543D02*
X85149522Y-70653638D01*
X85149522Y-70653638D02*
X85187617Y-70691733D01*
X85187617Y-70691733D02*
X85225712Y-70767924D01*
X85225712Y-70767924D02*
X85225712Y-70844114D01*
X85225712Y-70844114D02*
X85187617Y-70920305D01*
X85187617Y-70920305D02*
X85149522Y-70958400D01*
X85149522Y-70958400D02*
X85073331Y-70996495D01*
X85073331Y-70996495D02*
X84806665Y-70996495D01*
X85987617Y-71415543D02*
X85606665Y-71415543D01*
X85606665Y-71415543D02*
X85606665Y-70615543D01*
X86254284Y-71415543D02*
X86254284Y-70615543D01*
X86711427Y-71415543D02*
X86368569Y-70958400D01*
X86711427Y-70615543D02*
X86254284Y-71072686D01*
X83663807Y-72496495D02*
X83778093Y-72534590D01*
X83778093Y-72534590D02*
X83816188Y-72572686D01*
X83816188Y-72572686D02*
X83854284Y-72648876D01*
X83854284Y-72648876D02*
X83854284Y-72763162D01*
X83854284Y-72763162D02*
X83816188Y-72839352D01*
X83816188Y-72839352D02*
X83778093Y-72877448D01*
X83778093Y-72877448D02*
X83701903Y-72915543D01*
X83701903Y-72915543D02*
X83397141Y-72915543D01*
X83397141Y-72915543D02*
X83397141Y-72115543D01*
X83397141Y-72115543D02*
X83663807Y-72115543D01*
X83663807Y-72115543D02*
X83739998Y-72153638D01*
X83739998Y-72153638D02*
X83778093Y-72191733D01*
X83778093Y-72191733D02*
X83816188Y-72267924D01*
X83816188Y-72267924D02*
X83816188Y-72344114D01*
X83816188Y-72344114D02*
X83778093Y-72420305D01*
X83778093Y-72420305D02*
X83739998Y-72458400D01*
X83739998Y-72458400D02*
X83663807Y-72496495D01*
X83663807Y-72496495D02*
X83397141Y-72496495D01*
X84006665Y-72991733D02*
X84616188Y-72991733D01*
X84730474Y-72115543D02*
X84920950Y-72915543D01*
X84920950Y-72915543D02*
X85073331Y-72344114D01*
X85073331Y-72344114D02*
X85225712Y-72915543D01*
X85225712Y-72915543D02*
X85416189Y-72115543D01*
X85720951Y-72915543D02*
X85720951Y-72115543D01*
X85720951Y-72496495D02*
X86178094Y-72496495D01*
X86178094Y-72915543D02*
X86178094Y-72115543D01*
X86559046Y-72915543D02*
X86559046Y-72115543D01*
X79075240Y-41924403D02*
X79189526Y-41962498D01*
X79189526Y-41962498D02*
X79227621Y-42000594D01*
X79227621Y-42000594D02*
X79265717Y-42076784D01*
X79265717Y-42076784D02*
X79265717Y-42191070D01*
X79265717Y-42191070D02*
X79227621Y-42267260D01*
X79227621Y-42267260D02*
X79189526Y-42305356D01*
X79189526Y-42305356D02*
X79113336Y-42343451D01*
X79113336Y-42343451D02*
X78808574Y-42343451D01*
X78808574Y-42343451D02*
X78808574Y-41543451D01*
X78808574Y-41543451D02*
X79075240Y-41543451D01*
X79075240Y-41543451D02*
X79151431Y-41581546D01*
X79151431Y-41581546D02*
X79189526Y-41619641D01*
X79189526Y-41619641D02*
X79227621Y-41695832D01*
X79227621Y-41695832D02*
X79227621Y-41772022D01*
X79227621Y-41772022D02*
X79189526Y-41848213D01*
X79189526Y-41848213D02*
X79151431Y-41886308D01*
X79151431Y-41886308D02*
X79075240Y-41924403D01*
X79075240Y-41924403D02*
X78808574Y-41924403D01*
X80065717Y-42343451D02*
X79799050Y-41962498D01*
X79608574Y-42343451D02*
X79608574Y-41543451D01*
X79608574Y-41543451D02*
X79913336Y-41543451D01*
X79913336Y-41543451D02*
X79989526Y-41581546D01*
X79989526Y-41581546D02*
X80027621Y-41619641D01*
X80027621Y-41619641D02*
X80065717Y-41695832D01*
X80065717Y-41695832D02*
X80065717Y-41810117D01*
X80065717Y-41810117D02*
X80027621Y-41886308D01*
X80027621Y-41886308D02*
X79989526Y-41924403D01*
X79989526Y-41924403D02*
X79913336Y-41962498D01*
X79913336Y-41962498D02*
X79608574Y-41962498D01*
X80408574Y-42343451D02*
X80408574Y-41543451D01*
X80789526Y-42343451D02*
X80789526Y-41543451D01*
X80789526Y-41543451D02*
X80980002Y-41543451D01*
X80980002Y-41543451D02*
X81094288Y-41581546D01*
X81094288Y-41581546D02*
X81170478Y-41657736D01*
X81170478Y-41657736D02*
X81208573Y-41733927D01*
X81208573Y-41733927D02*
X81246669Y-41886308D01*
X81246669Y-41886308D02*
X81246669Y-42000594D01*
X81246669Y-42000594D02*
X81208573Y-42152975D01*
X81208573Y-42152975D02*
X81170478Y-42229165D01*
X81170478Y-42229165D02*
X81094288Y-42305356D01*
X81094288Y-42305356D02*
X80980002Y-42343451D01*
X80980002Y-42343451D02*
X80789526Y-42343451D01*
X82008573Y-41581546D02*
X81932383Y-41543451D01*
X81932383Y-41543451D02*
X81818097Y-41543451D01*
X81818097Y-41543451D02*
X81703811Y-41581546D01*
X81703811Y-41581546D02*
X81627621Y-41657736D01*
X81627621Y-41657736D02*
X81589526Y-41733927D01*
X81589526Y-41733927D02*
X81551430Y-41886308D01*
X81551430Y-41886308D02*
X81551430Y-42000594D01*
X81551430Y-42000594D02*
X81589526Y-42152975D01*
X81589526Y-42152975D02*
X81627621Y-42229165D01*
X81627621Y-42229165D02*
X81703811Y-42305356D01*
X81703811Y-42305356D02*
X81818097Y-42343451D01*
X81818097Y-42343451D02*
X81894288Y-42343451D01*
X81894288Y-42343451D02*
X82008573Y-42305356D01*
X82008573Y-42305356D02*
X82046669Y-42267260D01*
X82046669Y-42267260D02*
X82046669Y-42000594D01*
X82046669Y-42000594D02*
X81894288Y-42000594D01*
X82389526Y-41924403D02*
X82656192Y-41924403D01*
X82770478Y-42343451D02*
X82389526Y-42343451D01*
X82389526Y-42343451D02*
X82389526Y-41543451D01*
X82389526Y-41543451D02*
X82770478Y-41543451D01*
X78770478Y-43805356D02*
X78884764Y-43843451D01*
X78884764Y-43843451D02*
X79075240Y-43843451D01*
X79075240Y-43843451D02*
X79151431Y-43805356D01*
X79151431Y-43805356D02*
X79189526Y-43767260D01*
X79189526Y-43767260D02*
X79227621Y-43691070D01*
X79227621Y-43691070D02*
X79227621Y-43614879D01*
X79227621Y-43614879D02*
X79189526Y-43538689D01*
X79189526Y-43538689D02*
X79151431Y-43500594D01*
X79151431Y-43500594D02*
X79075240Y-43462498D01*
X79075240Y-43462498D02*
X78922859Y-43424403D01*
X78922859Y-43424403D02*
X78846669Y-43386308D01*
X78846669Y-43386308D02*
X78808574Y-43348213D01*
X78808574Y-43348213D02*
X78770478Y-43272022D01*
X78770478Y-43272022D02*
X78770478Y-43195832D01*
X78770478Y-43195832D02*
X78808574Y-43119641D01*
X78808574Y-43119641D02*
X78846669Y-43081546D01*
X78846669Y-43081546D02*
X78922859Y-43043451D01*
X78922859Y-43043451D02*
X79113336Y-43043451D01*
X79113336Y-43043451D02*
X79227621Y-43081546D01*
X79494288Y-43043451D02*
X79684764Y-43843451D01*
X79684764Y-43843451D02*
X79837145Y-43272022D01*
X79837145Y-43272022D02*
X79989526Y-43843451D01*
X79989526Y-43843451D02*
X80180003Y-43043451D01*
X80484765Y-43843451D02*
X80484765Y-43043451D01*
X80751431Y-43043451D02*
X81208574Y-43043451D01*
X80980002Y-43843451D02*
X80980002Y-43043451D01*
X81932384Y-43767260D02*
X81894288Y-43805356D01*
X81894288Y-43805356D02*
X81780003Y-43843451D01*
X81780003Y-43843451D02*
X81703812Y-43843451D01*
X81703812Y-43843451D02*
X81589526Y-43805356D01*
X81589526Y-43805356D02*
X81513336Y-43729165D01*
X81513336Y-43729165D02*
X81475241Y-43652975D01*
X81475241Y-43652975D02*
X81437145Y-43500594D01*
X81437145Y-43500594D02*
X81437145Y-43386308D01*
X81437145Y-43386308D02*
X81475241Y-43233927D01*
X81475241Y-43233927D02*
X81513336Y-43157736D01*
X81513336Y-43157736D02*
X81589526Y-43081546D01*
X81589526Y-43081546D02*
X81703812Y-43043451D01*
X81703812Y-43043451D02*
X81780003Y-43043451D01*
X81780003Y-43043451D02*
X81894288Y-43081546D01*
X81894288Y-43081546D02*
X81932384Y-43119641D01*
X82275241Y-43843451D02*
X82275241Y-43043451D01*
X82275241Y-43424403D02*
X82732384Y-43424403D01*
X82732384Y-43843451D02*
X82732384Y-43043451D01*
X71517414Y-70580519D02*
X71784081Y-71380519D01*
X71784081Y-71380519D02*
X72050747Y-70580519D01*
X72469795Y-70580519D02*
X72622176Y-70580519D01*
X72622176Y-70580519D02*
X72698366Y-70618614D01*
X72698366Y-70618614D02*
X72774557Y-70694804D01*
X72774557Y-70694804D02*
X72812652Y-70847185D01*
X72812652Y-70847185D02*
X72812652Y-71113852D01*
X72812652Y-71113852D02*
X72774557Y-71266233D01*
X72774557Y-71266233D02*
X72698366Y-71342424D01*
X72698366Y-71342424D02*
X72622176Y-71380519D01*
X72622176Y-71380519D02*
X72469795Y-71380519D01*
X72469795Y-71380519D02*
X72393604Y-71342424D01*
X72393604Y-71342424D02*
X72317414Y-71266233D01*
X72317414Y-71266233D02*
X72279318Y-71113852D01*
X72279318Y-71113852D02*
X72279318Y-70847185D01*
X72279318Y-70847185D02*
X72317414Y-70694804D01*
X72317414Y-70694804D02*
X72393604Y-70618614D01*
X72393604Y-70618614D02*
X72469795Y-70580519D01*
X73536461Y-71380519D02*
X73155509Y-71380519D01*
X73155509Y-71380519D02*
X73155509Y-70580519D01*
X73803128Y-70580519D02*
X73803128Y-71228138D01*
X73803128Y-71228138D02*
X73841223Y-71304328D01*
X73841223Y-71304328D02*
X73879318Y-71342424D01*
X73879318Y-71342424D02*
X73955509Y-71380519D01*
X73955509Y-71380519D02*
X74107890Y-71380519D01*
X74107890Y-71380519D02*
X74184080Y-71342424D01*
X74184080Y-71342424D02*
X74222175Y-71304328D01*
X74222175Y-71304328D02*
X74260271Y-71228138D01*
X74260271Y-71228138D02*
X74260271Y-70580519D01*
X74641223Y-71380519D02*
X74641223Y-70580519D01*
X74641223Y-70580519D02*
X74907889Y-71151947D01*
X74907889Y-71151947D02*
X75174556Y-70580519D01*
X75174556Y-70580519D02*
X75174556Y-71380519D01*
X75555509Y-70961471D02*
X75822175Y-70961471D01*
X75936461Y-71380519D02*
X75555509Y-71380519D01*
X75555509Y-71380519D02*
X75555509Y-70580519D01*
X75555509Y-70580519D02*
X75936461Y-70580519D01*
X85957988Y-85592995D02*
X86110369Y-85592995D01*
X86110369Y-85592995D02*
X86186559Y-85631090D01*
X86186559Y-85631090D02*
X86262750Y-85707280D01*
X86262750Y-85707280D02*
X86300845Y-85859661D01*
X86300845Y-85859661D02*
X86300845Y-86126328D01*
X86300845Y-86126328D02*
X86262750Y-86278709D01*
X86262750Y-86278709D02*
X86186559Y-86354900D01*
X86186559Y-86354900D02*
X86110369Y-86392995D01*
X86110369Y-86392995D02*
X85957988Y-86392995D01*
X85957988Y-86392995D02*
X85881797Y-86354900D01*
X85881797Y-86354900D02*
X85805607Y-86278709D01*
X85805607Y-86278709D02*
X85767511Y-86126328D01*
X85767511Y-86126328D02*
X85767511Y-85859661D01*
X85767511Y-85859661D02*
X85805607Y-85707280D01*
X85805607Y-85707280D02*
X85881797Y-85631090D01*
X85881797Y-85631090D02*
X85957988Y-85592995D01*
X86643702Y-85592995D02*
X86643702Y-86240614D01*
X86643702Y-86240614D02*
X86681797Y-86316804D01*
X86681797Y-86316804D02*
X86719892Y-86354900D01*
X86719892Y-86354900D02*
X86796083Y-86392995D01*
X86796083Y-86392995D02*
X86948464Y-86392995D01*
X86948464Y-86392995D02*
X87024654Y-86354900D01*
X87024654Y-86354900D02*
X87062749Y-86316804D01*
X87062749Y-86316804D02*
X87100845Y-86240614D01*
X87100845Y-86240614D02*
X87100845Y-85592995D01*
X87367511Y-85592995D02*
X87824654Y-85592995D01*
X87596082Y-86392995D02*
X87596082Y-85592995D01*
X88091321Y-86392995D02*
X88091321Y-85592995D01*
X88091321Y-85592995D02*
X88396083Y-85592995D01*
X88396083Y-85592995D02*
X88472273Y-85631090D01*
X88472273Y-85631090D02*
X88510368Y-85669185D01*
X88510368Y-85669185D02*
X88548464Y-85745376D01*
X88548464Y-85745376D02*
X88548464Y-85859661D01*
X88548464Y-85859661D02*
X88510368Y-85935852D01*
X88510368Y-85935852D02*
X88472273Y-85973947D01*
X88472273Y-85973947D02*
X88396083Y-86012042D01*
X88396083Y-86012042D02*
X88091321Y-86012042D01*
X88891321Y-85592995D02*
X88891321Y-86240614D01*
X88891321Y-86240614D02*
X88929416Y-86316804D01*
X88929416Y-86316804D02*
X88967511Y-86354900D01*
X88967511Y-86354900D02*
X89043702Y-86392995D01*
X89043702Y-86392995D02*
X89196083Y-86392995D01*
X89196083Y-86392995D02*
X89272273Y-86354900D01*
X89272273Y-86354900D02*
X89310368Y-86316804D01*
X89310368Y-86316804D02*
X89348464Y-86240614D01*
X89348464Y-86240614D02*
X89348464Y-85592995D01*
X89615130Y-85592995D02*
X90072273Y-85592995D01*
X89843701Y-86392995D02*
X89843701Y-85592995D01*
D12*
X75238095Y-53956819D02*
X75809523Y-53956819D01*
X75523809Y-54956819D02*
X75523809Y-53956819D01*
X76142857Y-54956819D02*
X76142857Y-53956819D01*
X76142857Y-53956819D02*
X76523809Y-53956819D01*
X76523809Y-53956819D02*
X76619047Y-54004438D01*
X76619047Y-54004438D02*
X76666666Y-54052057D01*
X76666666Y-54052057D02*
X76714285Y-54147295D01*
X76714285Y-54147295D02*
X76714285Y-54290152D01*
X76714285Y-54290152D02*
X76666666Y-54385390D01*
X76666666Y-54385390D02*
X76619047Y-54433009D01*
X76619047Y-54433009D02*
X76523809Y-54480628D01*
X76523809Y-54480628D02*
X76142857Y-54480628D01*
X77571428Y-54290152D02*
X77571428Y-54956819D01*
X77333333Y-53909200D02*
X77095238Y-54623485D01*
X77095238Y-54623485D02*
X77714285Y-54623485D01*
X71238095Y-53956819D02*
X71809523Y-53956819D01*
X71523809Y-54956819D02*
X71523809Y-53956819D01*
X72142857Y-54956819D02*
X72142857Y-53956819D01*
X72142857Y-53956819D02*
X72523809Y-53956819D01*
X72523809Y-53956819D02*
X72619047Y-54004438D01*
X72619047Y-54004438D02*
X72666666Y-54052057D01*
X72666666Y-54052057D02*
X72714285Y-54147295D01*
X72714285Y-54147295D02*
X72714285Y-54290152D01*
X72714285Y-54290152D02*
X72666666Y-54385390D01*
X72666666Y-54385390D02*
X72619047Y-54433009D01*
X72619047Y-54433009D02*
X72523809Y-54480628D01*
X72523809Y-54480628D02*
X72142857Y-54480628D01*
X73666666Y-54956819D02*
X73095238Y-54956819D01*
X73380952Y-54956819D02*
X73380952Y-53956819D01*
X73380952Y-53956819D02*
X73285714Y-54099676D01*
X73285714Y-54099676D02*
X73190476Y-54194914D01*
X73190476Y-54194914D02*
X73095238Y-54242533D01*
X92238095Y-56456819D02*
X92809523Y-56456819D01*
X92523809Y-57456819D02*
X92523809Y-56456819D01*
X93142857Y-57456819D02*
X93142857Y-56456819D01*
X93142857Y-56456819D02*
X93523809Y-56456819D01*
X93523809Y-56456819D02*
X93619047Y-56504438D01*
X93619047Y-56504438D02*
X93666666Y-56552057D01*
X93666666Y-56552057D02*
X93714285Y-56647295D01*
X93714285Y-56647295D02*
X93714285Y-56790152D01*
X93714285Y-56790152D02*
X93666666Y-56885390D01*
X93666666Y-56885390D02*
X93619047Y-56933009D01*
X93619047Y-56933009D02*
X93523809Y-56980628D01*
X93523809Y-56980628D02*
X93142857Y-56980628D01*
X94047619Y-56456819D02*
X94666666Y-56456819D01*
X94666666Y-56456819D02*
X94333333Y-56837771D01*
X94333333Y-56837771D02*
X94476190Y-56837771D01*
X94476190Y-56837771D02*
X94571428Y-56885390D01*
X94571428Y-56885390D02*
X94619047Y-56933009D01*
X94619047Y-56933009D02*
X94666666Y-57028247D01*
X94666666Y-57028247D02*
X94666666Y-57266342D01*
X94666666Y-57266342D02*
X94619047Y-57361580D01*
X94619047Y-57361580D02*
X94571428Y-57409200D01*
X94571428Y-57409200D02*
X94476190Y-57456819D01*
X94476190Y-57456819D02*
X94190476Y-57456819D01*
X94190476Y-57456819D02*
X94095238Y-57409200D01*
X94095238Y-57409200D02*
X94047619Y-57361580D01*
X71238095Y-65956819D02*
X71809523Y-65956819D01*
X71523809Y-66956819D02*
X71523809Y-65956819D01*
X72142857Y-66956819D02*
X72142857Y-65956819D01*
X72142857Y-65956819D02*
X72523809Y-65956819D01*
X72523809Y-65956819D02*
X72619047Y-66004438D01*
X72619047Y-66004438D02*
X72666666Y-66052057D01*
X72666666Y-66052057D02*
X72714285Y-66147295D01*
X72714285Y-66147295D02*
X72714285Y-66290152D01*
X72714285Y-66290152D02*
X72666666Y-66385390D01*
X72666666Y-66385390D02*
X72619047Y-66433009D01*
X72619047Y-66433009D02*
X72523809Y-66480628D01*
X72523809Y-66480628D02*
X72142857Y-66480628D01*
X73619047Y-65956819D02*
X73142857Y-65956819D01*
X73142857Y-65956819D02*
X73095238Y-66433009D01*
X73095238Y-66433009D02*
X73142857Y-66385390D01*
X73142857Y-66385390D02*
X73238095Y-66337771D01*
X73238095Y-66337771D02*
X73476190Y-66337771D01*
X73476190Y-66337771D02*
X73571428Y-66385390D01*
X73571428Y-66385390D02*
X73619047Y-66433009D01*
X73619047Y-66433009D02*
X73666666Y-66528247D01*
X73666666Y-66528247D02*
X73666666Y-66766342D01*
X73666666Y-66766342D02*
X73619047Y-66861580D01*
X73619047Y-66861580D02*
X73571428Y-66909200D01*
X73571428Y-66909200D02*
X73476190Y-66956819D01*
X73476190Y-66956819D02*
X73238095Y-66956819D01*
X73238095Y-66956819D02*
X73142857Y-66909200D01*
X73142857Y-66909200D02*
X73095238Y-66861580D01*
X88238095Y-60956819D02*
X88809523Y-60956819D01*
X88523809Y-61956819D02*
X88523809Y-60956819D01*
X89142857Y-61956819D02*
X89142857Y-60956819D01*
X89142857Y-60956819D02*
X89523809Y-60956819D01*
X89523809Y-60956819D02*
X89619047Y-61004438D01*
X89619047Y-61004438D02*
X89666666Y-61052057D01*
X89666666Y-61052057D02*
X89714285Y-61147295D01*
X89714285Y-61147295D02*
X89714285Y-61290152D01*
X89714285Y-61290152D02*
X89666666Y-61385390D01*
X89666666Y-61385390D02*
X89619047Y-61433009D01*
X89619047Y-61433009D02*
X89523809Y-61480628D01*
X89523809Y-61480628D02*
X89142857Y-61480628D01*
X90095238Y-61052057D02*
X90142857Y-61004438D01*
X90142857Y-61004438D02*
X90238095Y-60956819D01*
X90238095Y-60956819D02*
X90476190Y-60956819D01*
X90476190Y-60956819D02*
X90571428Y-61004438D01*
X90571428Y-61004438D02*
X90619047Y-61052057D01*
X90619047Y-61052057D02*
X90666666Y-61147295D01*
X90666666Y-61147295D02*
X90666666Y-61242533D01*
X90666666Y-61242533D02*
X90619047Y-61385390D01*
X90619047Y-61385390D02*
X90047619Y-61956819D01*
X90047619Y-61956819D02*
X90666666Y-61956819D01*
D13*
%TO.C,HB_BRIDGE1*%
X88250000Y-81350082D02*
X88250000Y-82600082D01*
X88250000Y-82600082D02*
X89500000Y-82600082D01*
X90800000Y-67200082D02*
X90800000Y-67950082D01*
X90800000Y-67950082D02*
X93750000Y-67950082D01*
X90800000Y-81550082D02*
X92140000Y-81550082D01*
X90800000Y-82300082D02*
X90800000Y-81550082D01*
X93750000Y-67950082D02*
X93750000Y-74750082D01*
X93750000Y-74750082D02*
X93750000Y-80490082D01*
X88540000Y-82310082D02*
X94510000Y-82310082D01*
X94510000Y-67190082D01*
X88540000Y-67190082D01*
X88540000Y-82310082D01*
X88550000Y-69000082D02*
X89300000Y-69000082D01*
X89300000Y-67200082D01*
X88550000Y-67200082D01*
X88550000Y-69000082D01*
X88550000Y-79000082D02*
X89300000Y-79000082D01*
X89300000Y-70500082D01*
X88550000Y-70500082D01*
X88550000Y-79000082D01*
X88550000Y-82300082D02*
X89300000Y-82300082D01*
X89300000Y-80500082D01*
X88550000Y-80500082D01*
X88550000Y-82300082D01*
%TO.C,PICKUP_SELECTOR1*%
X72250000Y-46350000D02*
X72250000Y-41860000D01*
X72250000Y-51900000D02*
X72250000Y-46350000D01*
X75200000Y-40050000D02*
X75200000Y-40800000D01*
X75200000Y-40800000D02*
X73860000Y-40800000D01*
X75200000Y-51900000D02*
X72250000Y-51900000D01*
X75200000Y-52650000D02*
X75200000Y-51900000D01*
X77750000Y-39750000D02*
X76500000Y-39750000D01*
X77750000Y-41000000D02*
X77750000Y-39750000D01*
X77450000Y-40050000D02*
X76700000Y-40050000D01*
X76700000Y-41850000D01*
X77450000Y-41850000D01*
X77450000Y-40050000D01*
X77450000Y-43350000D02*
X76700000Y-43350000D01*
X76700000Y-49350000D01*
X77450000Y-49350000D01*
X77450000Y-43350000D01*
X77450000Y-50850000D02*
X76700000Y-50850000D01*
X76700000Y-52650000D01*
X77450000Y-52650000D01*
X77450000Y-50850000D01*
X77460000Y-40040000D02*
X71490000Y-40040000D01*
X71490000Y-52660000D01*
X77460000Y-52660000D01*
X77460000Y-40040000D01*
%TO.C,TP4*%
X75300000Y-55300000D02*
X77700000Y-55300000D01*
X75300000Y-57700000D02*
X75300000Y-55300000D01*
X77700000Y-55300000D02*
X77700000Y-57700000D01*
X77700000Y-57700000D02*
X75300000Y-57700000D01*
%TO.C,TP1*%
X71300000Y-55300000D02*
X73700000Y-55300000D01*
X71300000Y-57700000D02*
X71300000Y-55300000D01*
X73700000Y-55300000D02*
X73700000Y-57700000D01*
X73700000Y-57700000D02*
X71300000Y-57700000D01*
%TO.C,TP3*%
X92300000Y-57800000D02*
X94700000Y-57800000D01*
X92300000Y-60200000D02*
X92300000Y-57800000D01*
X94700000Y-57800000D02*
X94700000Y-60200000D01*
X94700000Y-60200000D02*
X92300000Y-60200000D01*
%TO.C,VOLUME1*%
X72250000Y-77250082D02*
X72250000Y-74010082D01*
X72250000Y-81550082D02*
X72250000Y-77250082D01*
X75200000Y-72200082D02*
X75200000Y-72950082D01*
X75200000Y-72950082D02*
X73860000Y-72950082D01*
X75200000Y-81550082D02*
X72250000Y-81550082D01*
X75200000Y-82300082D02*
X75200000Y-81550082D01*
X77750000Y-71900082D02*
X76500000Y-71900082D01*
X77750000Y-73150082D02*
X77750000Y-71900082D01*
X77450000Y-72200082D02*
X76700000Y-72200082D01*
X76700000Y-74000082D01*
X77450000Y-74000082D01*
X77450000Y-72200082D01*
X77450000Y-75500082D02*
X76700000Y-75500082D01*
X76700000Y-79000082D01*
X77450000Y-79000082D01*
X77450000Y-75500082D01*
X77450000Y-80500082D02*
X76700000Y-80500082D01*
X76700000Y-82300082D01*
X77450000Y-82300082D01*
X77450000Y-80500082D01*
X77460000Y-72190082D02*
X71490000Y-72190082D01*
X71490000Y-82310082D01*
X77460000Y-82310082D01*
X77460000Y-72190082D01*
%TO.C,TP5*%
X71300000Y-67300000D02*
X73700000Y-67300000D01*
X71300000Y-69700000D02*
X71300000Y-67300000D01*
X73700000Y-67300000D02*
X73700000Y-69700000D01*
X73700000Y-69700000D02*
X71300000Y-69700000D01*
%TO.C,TP2*%
X88300000Y-62300000D02*
X90700000Y-62300000D01*
X88300000Y-64700000D02*
X88300000Y-62300000D01*
X90700000Y-62300000D02*
X90700000Y-64700000D01*
X90700000Y-64700000D02*
X88300000Y-64700000D01*
%TO.C,J1*%
X78650000Y-87250000D02*
X78650000Y-88500000D01*
X78950000Y-89800000D02*
X79700000Y-89800000D01*
X79700000Y-89800000D02*
X79700000Y-91140000D01*
X79900000Y-87250000D02*
X78650000Y-87250000D01*
X82750000Y-92750000D02*
X80760000Y-92750000D01*
X85800000Y-89800000D02*
X85800000Y-92750000D01*
X85800000Y-92750000D02*
X82750000Y-92750000D01*
X86550000Y-89800000D02*
X85800000Y-89800000D01*
X78940000Y-87540000D02*
X86560000Y-87540000D01*
X86560000Y-93510000D01*
X78940000Y-93510000D01*
X78940000Y-87540000D01*
X78950000Y-87550000D02*
X80750000Y-87550000D01*
X80750000Y-88300000D01*
X78950000Y-88300000D01*
X78950000Y-87550000D01*
X82250000Y-87550000D02*
X83250000Y-87550000D01*
X83250000Y-88300000D01*
X82250000Y-88300000D01*
X82250000Y-87550000D01*
X84750000Y-87550000D02*
X86550000Y-87550000D01*
X86550000Y-88300000D01*
X84750000Y-88300000D01*
X84750000Y-87550000D01*
%TO.C,HB_NECK1*%
X88250000Y-54200000D02*
X88250000Y-55450000D01*
X88250000Y-55450000D02*
X89500000Y-55450000D01*
X90800000Y-40050000D02*
X90800000Y-40800000D01*
X90800000Y-40800000D02*
X93750000Y-40800000D01*
X90800000Y-54400000D02*
X92140000Y-54400000D01*
X90800000Y-55150000D02*
X90800000Y-54400000D01*
X93750000Y-40800000D02*
X93750000Y-47600000D01*
X93750000Y-47600000D02*
X93750000Y-53340000D01*
X88540000Y-55160000D02*
X94510000Y-55160000D01*
X94510000Y-40040000D01*
X88540000Y-40040000D01*
X88540000Y-55160000D01*
X88550000Y-41850000D02*
X89300000Y-41850000D01*
X89300000Y-40050000D01*
X88550000Y-40050000D01*
X88550000Y-41850000D01*
X88550000Y-51850000D02*
X89300000Y-51850000D01*
X89300000Y-43350000D01*
X88550000Y-43350000D01*
X88550000Y-51850000D01*
X88550000Y-55150000D02*
X89300000Y-55150000D01*
X89300000Y-53350000D01*
X88550000Y-53350000D01*
X88550000Y-55150000D01*
%TD*%
M02*
