%TF.GenerationSoftware,KiCad,Pcbnew,9.0.7*%
%TF.CreationDate,2026-02-02T17:13:14+00:00*%
%TF.ProjectId,guitarwire,67756974-6172-4776-9972-652e6b696361,rev?*%
%TF.SameCoordinates,Original*%
%TF.FileFunction,Copper,L1,Top*%
%TF.FilePolarity,Positive*%
%FSLAX46Y46*%
G04 Gerber Fmt 4.6, Leading zero omitted, Abs format (unit mm)*
G04 Created by KiCad (PCBNEW 9.0.7) date 2026-02-02 17:13:14*
%MOMM*%
%LPD*%
G01*
G04 APERTURE LIST*
G04 Aperture macros list*
%AMRoundRect*
0 Rectangle with rounded corners*
0 $1 Rounding radius*
0 $2 $3 $4 $5 $6 $7 $8 $9 X,Y pos of 4 corners*
0 Add a 4 corners polygon primitive as box body*
4,1,4,$2,$3,$4,$5,$6,$7,$8,$9,$2,$3,0*
0 Add four circle primitives for the rounded corners*
1,1,$1+$1,$2,$3*
1,1,$1+$1,$4,$5*
1,1,$1+$1,$6,$7*
1,1,$1+$1,$8,$9*
0 Add four rect primitives between the rounded corners*
20,1,$1+$1,$2,$3,$4,$5,0*
20,1,$1+$1,$4,$5,$6,$7,0*
20,1,$1+$1,$6,$7,$8,$9,0*
20,1,$1+$1,$8,$9,$2,$3,0*%
G04 Aperture macros list end*
%TA.AperFunction,ComponentPad*%
%ADD10RoundRect,0.250000X0.725000X-0.600000X0.725000X0.600000X-0.725000X0.600000X-0.725000X-0.600000X0*%
%TD*%
%TA.AperFunction,ComponentPad*%
%ADD11O,1.950000X1.700000*%
%TD*%
%TA.AperFunction,ComponentPad*%
%ADD12RoundRect,0.250000X-0.725000X0.600000X-0.725000X-0.600000X0.725000X-0.600000X0.725000X0.600000X0*%
%TD*%
%TA.AperFunction,ComponentPad*%
%ADD13R,2.000000X2.000000*%
%TD*%
%TA.AperFunction,ComponentPad*%
%ADD14RoundRect,0.250000X-0.600000X-0.750000X0.600000X-0.750000X0.600000X0.750000X-0.600000X0.750000X0*%
%TD*%
%TA.AperFunction,ComponentPad*%
%ADD15O,1.700000X2.000000*%
%TD*%
%TA.AperFunction,Conductor*%
%ADD16C,1.000000*%
%TD*%
G04 APERTURE END LIST*
D10*
%TO.P,HB_BRIDGE1,1,HB_WHITE*%
%TO.N,/BRIDGE_MERGE*%
X91000000Y-79750082D03*
D11*
%TO.P,HB_BRIDGE1,2,HB_BLACK*%
X91000000Y-77250082D03*
%TO.P,HB_BRIDGE1,3,HB_RED*%
%TO.N,IN_BRIDGE*%
X91000000Y-74750082D03*
%TO.P,HB_BRIDGE1,4,HB_GND*%
%TO.N,GND*%
X91000000Y-72250082D03*
%TO.P,HB_BRIDGE1,5,HB_SHIELD*%
X91000000Y-69750082D03*
%TD*%
D12*
%TO.P,PICKUP_SELECTOR1,1,IN_NECK*%
%TO.N,IN_NECK*%
X75000000Y-42600000D03*
D11*
%TO.P,PICKUP_SELECTOR1,2,IN_BRIDGE*%
%TO.N,IN_BRIDGE*%
X75000000Y-45100000D03*
%TO.P,PICKUP_SELECTOR1,3,OUT*%
%TO.N,OUT_SWITCH*%
X75000000Y-47600000D03*
%TO.P,PICKUP_SELECTOR1,4,GND*%
%TO.N,GND*%
X75000000Y-50100000D03*
%TD*%
D13*
%TO.P,TP4,1,1*%
%TO.N,OUT_SWITCH*%
X76500000Y-56500000D03*
%TD*%
%TO.P,TP1,1,1*%
%TO.N,GND*%
X72500000Y-56500000D03*
%TD*%
%TO.P,TP3,1,1*%
%TO.N,IN_NECK*%
X93500000Y-59000000D03*
%TD*%
D12*
%TO.P,VOLUME1,1,IN*%
%TO.N,OUT_SWITCH*%
X75000000Y-74750082D03*
D11*
%TO.P,VOLUME1,2,OUT*%
%TO.N,OUTPUT*%
X75000000Y-77250082D03*
%TO.P,VOLUME1,3,GND*%
%TO.N,GND*%
X75000000Y-79750082D03*
%TD*%
D13*
%TO.P,TP5,1,1*%
%TO.N,OUTPUT*%
X72500000Y-68500000D03*
%TD*%
%TO.P,TP2,1,1*%
%TO.N,IN_BRIDGE*%
X89500000Y-63500000D03*
%TD*%
D14*
%TO.P,J1,1,Pin_1*%
%TO.N,GND*%
X81500000Y-90000000D03*
D15*
%TO.P,J1,2,Pin_2*%
%TO.N,OUTPUT*%
X84000000Y-90000000D03*
%TD*%
D10*
%TO.P,HB_NECK1,1,HB_WHITE*%
%TO.N,Net-(HB_NECK1-HB_BLACK)*%
X91000000Y-52600000D03*
D11*
%TO.P,HB_NECK1,2,HB_BLACK*%
X91000000Y-50100000D03*
%TO.P,HB_NECK1,3,HB_RED*%
%TO.N,IN_NECK*%
X91000000Y-47600000D03*
%TO.P,HB_NECK1,4,HB_GND*%
%TO.N,GND*%
X91000000Y-45100000D03*
%TO.P,HB_NECK1,5,HB_SHIELD*%
X91000000Y-42600000D03*
%TD*%
D16*
%TO.N,Net-(HB_NECK1-HB_BLACK)*%
X91000000Y-53000000D02*
X91000000Y-50500000D01*
%TO.N,/BRIDGE_MERGE*%
X91000000Y-77250082D02*
X91000000Y-79750082D01*
%TO.N,IN_BRIDGE*%
X85000000Y-66000000D02*
X87500000Y-63500000D01*
X85000000Y-71000000D02*
X88750082Y-74750082D01*
X87500000Y-63500000D02*
X89500000Y-63500000D01*
X85000000Y-51000000D02*
X85000000Y-67500000D01*
X88750082Y-74750082D02*
X91000000Y-74750082D01*
X85000000Y-67500000D02*
X85000000Y-66000000D01*
X75000000Y-45100000D02*
X79100000Y-45100000D01*
X79100000Y-45100000D02*
X85000000Y-51000000D01*
X85000000Y-67500000D02*
X85000000Y-71000000D01*
%TO.N,IN_NECK*%
X75000000Y-42600000D02*
X81600000Y-42600000D01*
X93400000Y-47600000D02*
X91000000Y-47600000D01*
X86600000Y-47600000D02*
X91000000Y-47600000D01*
X94351000Y-58149000D02*
X93500000Y-59000000D01*
X93400000Y-47600000D02*
X94351000Y-48551000D01*
X94351000Y-48551000D02*
X94351000Y-58149000D01*
X81600000Y-42600000D02*
X86600000Y-47600000D01*
%TO.N,OUTPUT*%
X72500000Y-68500000D02*
X71649000Y-69351000D01*
X71649000Y-69351000D02*
X71649000Y-75624082D01*
X75000000Y-77250082D02*
X80250082Y-77250082D01*
X84000000Y-81000000D02*
X84000000Y-90000000D01*
X71649000Y-75624082D02*
X73275000Y-77250082D01*
X73275000Y-77250082D02*
X75000000Y-77250082D01*
X80250082Y-77250082D02*
X84000000Y-81000000D01*
%TO.N,OUT_SWITCH*%
X80000000Y-54500000D02*
X80000000Y-71000000D01*
X77600000Y-47600000D02*
X80000000Y-50000000D01*
X75000000Y-47600000D02*
X77600000Y-47600000D01*
X75000000Y-74750082D02*
X76249918Y-74750082D01*
X76249918Y-74750082D02*
X80000000Y-71000000D01*
X78000000Y-56500000D02*
X80000000Y-54500000D01*
X80000000Y-53500000D02*
X80000000Y-54500000D01*
X76500000Y-56500000D02*
X78000000Y-56500000D01*
X80000000Y-50000000D02*
X80000000Y-53500000D01*
%TD*%
M02*
