M48
; DRILL file {KiCad 9.0.7} date 2026-02-02T17:13:08+0000
; FORMAT={-:-/ absolute / metric / decimal}
; #@! TF.CreationDate,2026-02-02T17:13:08+00:00
; #@! TF.GenerationSoftware,Kicad,Pcbnew,9.0.7
; #@! TF.FileFunction,Plated,1,2,PTH
FMAT,2
METRIC
; #@! TA.AperFunction,Plated,PTH,ComponentDrill
T1C0.950
; #@! TA.AperFunction,Plated,PTH,ComponentDrill
T2C1.000
%
G90
G05
T1
X75.0Y-42.6
X75.0Y-45.1
X75.0Y-47.6
X75.0Y-50.1
X75.0Y-74.75
X75.0Y-77.25
X75.0Y-79.75
X91.0Y-42.6
X91.0Y-45.1
X91.0Y-47.6
X91.0Y-50.1
X91.0Y-52.6
X91.0Y-69.75
X91.0Y-72.25
X91.0Y-74.75
X91.0Y-77.25
X91.0Y-79.75
T2
X72.5Y-56.5
X72.5Y-68.5
X76.5Y-56.5
X81.5Y-90.0
X84.0Y-90.0
X89.5Y-63.5
X93.5Y-59.0
M30
